SplineFontDB: 3.2
FontName: myAASameerSagarNastaleeqBold
FullName: myAA Sameer Sagar Nastaleeq Bold
FamilyName: myAA Sameer Sagar Nastaleeq Bold
Weight: Book
Copyright: AA Sameer
Version: 1.002
ItalicAngle: 0
UnderlinePosition: -256
UnderlineWidth: 102
Ascent: 1638
Descent: 410
InvalidEm: 0
sfntRevision: 0x00010083
LayerCount: 2
Layer: 0 1 "Back" 1
Layer: 1 1 "Fore" 0
XUID: [1021 77 -878739225 1088574]
StyleMap: 0x0040
FSType: 0
OS2Version: 2
OS2_WeightWidthSlopeOnly: 0
OS2_UseTypoMetrics: 0
CreationTime: 1051668545
ModificationTime: 1703928507
PfmFamily: 17
TTFWeight: 400
TTFWidth: 5
LineGap: 102
VLineGap: 0
Panose: 2 0 5 0 0 0 0 2 0 2
OS2TypoAscent: 1536
OS2TypoAOffset: 0
OS2TypoDescent: -197
OS2TypoDOffset: 0
OS2TypoLinegap: 102
OS2WinAscent: 3200
OS2WinAOffset: 0
OS2WinDescent: 1626
OS2WinDOffset: 0
HheadAscent: 1536
HheadAOffset: 0
HheadDescent: -197
HheadDOffset: 0
OS2SubXSize: 205
OS2SubYSize: 205
OS2SubXOff: 0
OS2SubYOff: 287
OS2SupXSize: 205
OS2SupYSize: 205
OS2SupXOff: 0
OS2SupYOff: 287
OS2StrikeYSize: 102
OS2StrikeYPos: 512
OS2CapHeight: 3140
OS2XHeight: 500
OS2Vendor: 'CRLP'
OS2CodePages: 00000043.00000000
OS2UnicodeRanges: 00000002.00000000.00000000.00000000
Lookup: 2 9 0 "'isol' Isolated Forms in Arabic lookup 0" { "'isol' Isolated Forms in Arabic lookup 0 subtable"  } ['isol' ('arab' <'dflt' > ) ]
Lookup: 2 1 0 "'fina' Terminal Forms in Arabic lookup 1" { "'fina' Terminal Forms in Arabic lookup 1 subtable"  } ['fina' ('arab' <'dflt' > ) ]
Lookup: 2 1 0 "'init' Initial Forms in Arabic lookup 2" { "'init' Initial Forms in Arabic lookup 2 subtable"  } ['init' ('arab' <'dflt' > ) ]
Lookup: 2 1 0 "'medi' Medial Forms in Arabic lookup 3" { "'medi' Medial Forms in Arabic lookup 3 subtable"  } ['medi' ('arab' <'dflt' > ) ]
Lookup: 6 9 0 "'calt' Contextual Alternates in Arabic lookup 4" { "'calt' Contextual Alternates in Arabic lookup 4 subtable"  } ['calt' ('arab' <'dflt' > ) ]

StartChar: exclam
Encoding: 33 33 5
Width: 545
GlyphClass: 2
Flags: W
LayerCount: 2
Fore
SplineSet
115 -260 m 0,0,1
 111 -252 111 -252 127 -224.5 c 128,-1,2
 143 -197 143 -197 164.5 -167 c 128,-1,3
 186 -137 186 -137 209 -110.5 c 128,-1,4
 232 -84 232 -84 249 -84 c 0,5,6
 260 -84 260 -84 288.5 -103 c 128,-1,7
 317 -122 317 -122 348 -143.5 c 128,-1,8
 379 -165 379 -165 405.5 -186.5 c 128,-1,9
 432 -208 432 -208 432 -217 c 0,10,11
 432 -228 432 -228 416.5 -256.5 c 128,-1,12
 401 -285 401 -285 380 -313 c 128,-1,13
 359 -341 359 -341 335.5 -365.5 c 128,-1,14
 312 -390 312 -390 287 -394 c 1,15,16
 241 -361 241 -361 196 -330 c 128,-1,17
 151 -299 151 -299 115 -260 c 0,0,1
294 932 m 0,18,19
 308 965 308 965 337 1024 c 0,20,21
 348 1052 348 1052 363.5 1041 c 128,-1,22
 379 1030 379 1030 379 1022 c 2,23,-1
 379 537 l 2,24,25
 379 425 379 425 357 335.5 c 128,-1,26
 335 246 335 246 286 153 c 0,27,28
 282 144 282 144 267.5 119 c 128,-1,29
 253 94 253 94 214 94 c 1,30,31
 214 151 214 151 223 192.5 c 128,-1,32
 232 234 232 234 232 279 c 2,33,-1
 232 709 l 2,34,35
 232 763 232 763 252.5 823 c 128,-1,36
 273 883 273 883 294 932 c 0,18,19
EndSplineSet
Validated: 1
EndChar

StartChar: quotedbl
Encoding: 34 34 6
Width: 532
GlyphClass: 2
Flags: W
LayerCount: 2
Fore
SplineSet
395 1142 m 1,0,1
 387 1263 387 1263 379 1321 c 128,-1,2
 371 1379 371 1379 361.5 1415.5 c 128,-1,3
 352 1452 352 1452 342 1475.5 c 128,-1,4
 332 1499 332 1499 324 1525 c 0,5,6
 324 1533 324 1533 327 1547.5 c 128,-1,7
 330 1562 330 1562 334 1576.5 c 128,-1,8
 338 1591 338 1591 345 1606.5 c 128,-1,9
 352 1622 352 1622 365 1622 c 0,10,11
 386 1626 386 1626 401.5 1598.5 c 128,-1,12
 417 1571 417 1571 428.5 1535.5 c 128,-1,13
 440 1500 440 1500 448 1455.5 c 128,-1,14
 456 1411 456 1411 456 1370 c 0,15,16
 456 1313 456 1313 454 1252 c 128,-1,17
 452 1191 452 1191 395 1142 c 1,0,1
238 1133 m 1,18,19
 229 1254 229 1254 221 1312.5 c 128,-1,20
 213 1371 213 1371 204 1407.5 c 128,-1,21
 195 1444 195 1444 184.5 1467.5 c 128,-1,22
 174 1491 174 1491 166 1517 c 0,23,24
 166 1525 166 1525 169 1539 c 128,-1,25
 172 1553 172 1553 176 1568 c 128,-1,26
 180 1583 180 1583 187 1598.5 c 128,-1,27
 194 1614 194 1614 208 1614 c 0,28,29
 229 1618 229 1618 244 1590.5 c 128,-1,30
 259 1563 259 1563 270.5 1527.5 c 128,-1,31
 282 1492 282 1492 290 1447.5 c 128,-1,32
 298 1403 298 1403 298 1362 c 0,33,34
 298 1305 298 1305 296 1244 c 128,-1,35
 294 1183 294 1183 238 1133 c 1,18,19
EndSplineSet
Validated: 1
EndChar

StartChar: numbersign
Encoding: 35 35 7
Width: 1210
GlyphClass: 2
Flags: W
LayerCount: 2
Fore
SplineSet
555 -66 m 1,0,-1
 660 -66 l 1,1,-1
 675 49 l 1,2,-1
 570 49 l 1,3,-1
 555 -66 l 1,0,-1
1093 49 m 1,4,-1
 828 49 l 1,5,-1
 813 -66 l 1,6,-1
 1097 -66 l 1,7,-1
 1095 -209 l 1,8,-1
 797 -209 l 1,9,-1
 764 -499 l 1,10,-1
 611 -499 l 1,11,-1
 644 -209 l 1,12,-1
 539 -209 l 1,13,-1
 506 -502 l 1,14,-1
 353 -502 l 1,15,-1
 386 -209 l 1,16,-1
 145 -209 l 1,17,-1
 145 -66 l 1,18,-1
 402 -66 l 1,19,-1
 417 49 l 1,20,-1
 143 49 l 1,21,-1
 143 192 l 1,22,-1
 433 192 l 1,23,-1
 466 479 l 1,24,-1
 619 477 l 1,25,-1
 586 192 l 1,26,-1
 691 192 l 1,27,-1
 724 481 l 1,28,-1
 877 479 l 1,29,-1
 844 192 l 1,30,-1
 1095 192 l 1,31,-1
 1093 49 l 1,4,-1
EndSplineSet
Validated: 1
EndChar

StartChar: dollar
Encoding: 36 36 8
Width: 989
GlyphClass: 2
Flags: W
LayerCount: 2
Fore
SplineSet
298 801 m 0,0,1
 298 765 298 765 312 725 c 128,-1,2
 326 685 326 685 351.5 653.5 c 128,-1,3
 377 622 377 622 410.5 602.5 c 128,-1,4
 444 583 444 583 480 583 c 1,5,-1
 467 583 l 1,6,7
 467 582 467 582 468 602.5 c 128,-1,8
 469 623 469 623 469 670 c 0,9,10
 469 719 469 719 469 803 c 256,11,12
 469 887 469 887 469 1012 c 1,13,14
 446 1012 446 1012 412 994 c 128,-1,15
 378 976 378 976 353 946.5 c 128,-1,16
 328 917 328 917 313 878 c 128,-1,17
 298 839 298 839 298 801 c 0,0,1
556 1 m 1,18,19
 613 16 613 16 668 73 c 128,-1,20
 723 130 723 130 723 215 c 0,21,22
 723 255 723 255 707 290.5 c 128,-1,23
 691 326 691 326 666 353 c 128,-1,24
 641 380 641 380 607 398.5 c 128,-1,25
 573 417 573 417 556 422 c 1,26,-1
 556 1 l 1,18,19
469 -145 m 1,27,28
 427 -145 427 -145 368.5 -117 c 128,-1,29
 310 -89 310 -89 263.5 -45.5 c 128,-1,30
 217 -2 217 -2 187.5 53 c 128,-1,31
 158 108 158 108 158 170 c 1,32,33
 203 170 203 170 234 170 c 0,34,35
 266 170 266 170 309 164 c 1,36,37
 324 96 324 96 375 50.5 c 128,-1,38
 426 5 426 5 469 -1 c 1,39,40
 467 43 467 43 467 90 c 256,41,42
 467 137 467 137 467 186 c 0,43,44
 467 238 467 238 467 297 c 0,45,46
 467 358 467 358 465 434 c 1,47,48
 420 450 420 450 386.5 463.5 c 128,-1,49
 353 477 353 477 333 486.5 c 128,-1,50
 313 496 313 496 303 501.5 c 128,-1,51
 293 507 293 507 288 512 c 0,52,53
 213 564 213 564 178 642 c 128,-1,54
 143 720 143 720 143 807 c 0,55,56
 143 873 143 873 169.5 935 c 128,-1,57
 196 997 196 997 242.5 1045.5 c 128,-1,58
 289 1094 289 1094 350 1124.5 c 128,-1,59
 411 1155 411 1155 481 1155 c 1,60,61
 475 1153 475 1153 474 1224.5 c 128,-1,62
 473 1296 473 1296 490 1296 c 2,63,-1
 560 1296 l 1,64,65
 560 1276 560 1276 560 1255 c 0,66,67
 560 1235 560 1235 560 1212 c 0,68,69
 560 1190 560 1190 560 1169 c 0,70,71
 560 1149 560 1149 560 1151 c 1,72,73
 607 1151 607 1151 661.5 1125 c 128,-1,74
 716 1099 716 1099 758.5 1057.5 c 128,-1,75
 801 1016 801 1016 829 963.5 c 128,-1,76
 857 911 857 911 868 844 c 1,77,-1
 715 844 l 1,78,79
 687 911 687 911 646 953.5 c 128,-1,80
 605 996 605 996 565 1007 c 1,81,-1
 565 573 l 1,82,83
 600 569 600 569 643 552.5 c 128,-1,84
 686 536 686 536 722 511.5 c 128,-1,85
 758 487 758 487 785.5 453.5 c 128,-1,86
 813 420 813 420 834 382 c 128,-1,87
 855 344 855 344 865.5 302.5 c 128,-1,88
 876 261 876 261 876 215 c 0,89,90
 876 146 876 146 851 84.5 c 128,-1,91
 826 23 826 23 781.5 -27 c 128,-1,92
 737 -77 737 -77 676 -108.5 c 128,-1,93
 615 -140 615 -140 556 -147 c 1,94,95
 556 -158 556 -158 556 -188 c 0,96,97
 556 -221 556 -221 556 -250 c 0,98,99
 556 -281 556 -281 556 -301 c 0,100,101
 556 -324 556 -324 556 -336 c 1,102,103
 540 -336 540 -336 531 -337 c 128,-1,104
 522 -338 522 -338 511 -338 c 256,105,106
 500 -338 500 -338 492 -338 c 0,107,108
 469 -338 469 -338 469 -324 c 2,109,-1
 469 -145 l 1,27,28
EndSplineSet
Validated: 37
EndChar

StartChar: percent
Encoding: 37 37 9
Width: 1192
GlyphClass: 2
Flags: W
LayerCount: 2
Fore
SplineSet
407 -112 m 1,0,1
 335 -155 335 -155 288 -181 c 128,-1,2
 241 -207 241 -207 143 -264 c 1,3,-1
 848 1010 l 1,4,-1
 1111 1167 l 1,5,6
 1020 1005 1020 1005 961.5 899.5 c 128,-1,7
 903 794 903 794 851 697.5 c 128,-1,8
 799 601 799 601 748.5 510 c 128,-1,9
 698 419 698 419 646 322.5 c 128,-1,10
 594 226 594 226 535.5 120.5 c 128,-1,11
 477 15 477 15 407 -112 c 1,0,1
763 70 m 0,12,13
 759 78 759 78 775 105.5 c 128,-1,14
 791 133 791 133 813 162.5 c 128,-1,15
 835 192 835 192 858 219 c 128,-1,16
 881 246 881 246 897 246 c 0,17,18
 907 246 907 246 936 227 c 128,-1,19
 965 208 965 208 996 186.5 c 128,-1,20
 1027 165 1027 165 1053.5 143.5 c 128,-1,21
 1080 122 1080 122 1080 113 c 0,22,23
 1080 101 1080 101 1064.5 73 c 128,-1,24
 1049 45 1049 45 1028 17 c 128,-1,25
 1007 -11 1007 -11 983.5 -35.5 c 128,-1,26
 960 -60 960 -60 936 -64 c 1,27,28
 888 -32 888 -32 843.5 -0.5 c 128,-1,29
 799 31 799 31 763 70 c 0,12,13
158 752 m 0,30,31
 154 760 154 760 170.5 787.5 c 128,-1,32
 187 815 187 815 209 844.5 c 128,-1,33
 231 874 231 874 254 901 c 128,-1,34
 277 928 277 928 293 928 c 0,35,36
 303 928 303 928 332 909 c 128,-1,37
 361 890 361 890 392 868.5 c 128,-1,38
 423 847 423 847 449.5 825.5 c 128,-1,39
 476 804 476 804 476 795 c 0,40,41
 476 782 476 782 460 754.5 c 128,-1,42
 444 727 444 727 423 699 c 128,-1,43
 402 671 402 671 378.5 646.5 c 128,-1,44
 355 622 355 622 332 618 c 1,45,46
 284 650 284 650 239.5 681.5 c 128,-1,47
 195 713 195 713 158 752 c 0,30,31
EndSplineSet
Validated: 1
EndChar

StartChar: quotesingle
Encoding: 39 39 10
Width: 406
GlyphClass: 2
Flags: W
LayerCount: 2
Fore
SplineSet
238 1133 m 1,0,1
 229 1254 229 1254 221 1312.5 c 128,-1,2
 213 1371 213 1371 204 1407.5 c 128,-1,3
 195 1444 195 1444 184.5 1467.5 c 128,-1,4
 174 1491 174 1491 166 1517 c 0,5,6
 166 1525 166 1525 169 1539 c 128,-1,7
 172 1553 172 1553 176 1568 c 128,-1,8
 180 1583 180 1583 187 1598.5 c 128,-1,9
 194 1614 194 1614 208 1614 c 0,10,11
 229 1618 229 1618 244 1590.5 c 128,-1,12
 259 1563 259 1563 270.5 1527.5 c 128,-1,13
 282 1492 282 1492 290 1447.5 c 128,-1,14
 298 1403 298 1403 298 1362 c 0,15,16
 298 1305 298 1305 296 1244 c 128,-1,17
 294 1183 294 1183 238 1133 c 1,0,1
EndSplineSet
Validated: 1
EndChar

StartChar: parenleft
Encoding: 40 40 11
Width: 1186
GlyphClass: 2
Flags: W
LayerCount: 2
Fore
SplineSet
425 283 m 1,0,1
 433 67 433 67 468 -49 c 0,2,3
 504 -167 504 -167 570 -267.5 c 128,-1,4
 636 -368 636 -368 729 -450 c 128,-1,5
 822 -532 822 -532 982 -610 c 1,6,7
 770 -594 770 -594 627.5 -527 c 128,-1,8
 485 -460 485 -460 379 -353 c 128,-1,9
 273 -246 273 -246 214.5 -105 c 128,-1,10
 156 36 156 36 143 283 c 1,11,12
 156 533 156 533 214.5 674 c 128,-1,13
 273 815 273 815 379 922 c 128,-1,14
 485 1029 485 1029 627.5 1096 c 128,-1,15
 770 1163 770 1163 982 1179 c 1,16,17
 822 1101 822 1101 729 1019 c 128,-1,18
 636 937 636 937 570 836.5 c 128,-1,19
 504 736 504 736 468 619 c 0,20,21
 433 503 433 503 425 287 c 1,22,-1
 425 283 l 1,0,1
EndSplineSet
Validated: 1
EndChar

StartChar: parenright
Encoding: 41 41 12
Width: 1057
GlyphClass: 2
Flags: W
LayerCount: 2
Fore
SplineSet
701 291 m 1,0,1
 692 507 692 507 658 623 c 0,2,3
 622 740 622 740 556 840.5 c 128,-1,4
 490 941 490 941 397 1023 c 128,-1,5
 304 1105 304 1105 143 1183 c 1,6,7
 356 1167 356 1167 498 1100 c 128,-1,8
 640 1033 640 1033 746 926 c 128,-1,9
 852 819 852 819 911 678.5 c 128,-1,10
 970 538 970 538 982 287 c 1,11,12
 970 40 970 40 911 -101 c 128,-1,13
 852 -242 852 -242 746 -349 c 128,-1,14
 640 -456 640 -456 498 -523 c 128,-1,15
 356 -590 356 -590 143 -606 c 1,16,17
 304 -528 304 -528 397 -446 c 128,-1,18
 490 -364 490 -364 556 -263.5 c 128,-1,19
 622 -163 622 -163 658 -45 c 0,20,21
 692 71 692 71 701 287 c 1,22,-1
 701 291 l 1,0,1
EndSplineSet
Validated: 1
EndChar

StartChar: asterisk
Encoding: 42 42 13
Width: 1280
GlyphClass: 2
Flags: W
LayerCount: 2
Fore
SplineSet
562 -12 m 2,0,1
 562 -8 562 -8 565 13 c 128,-1,2
 568 34 568 34 573 61.5 c 128,-1,3
 578 89 578 89 582.5 115.5 c 128,-1,4
 587 142 587 142 591 159 c 0,5,6
 593 167 593 167 596 183.5 c 128,-1,7
 599 200 599 200 605 221.5 c 128,-1,8
 611 243 611 243 617 265.5 c 128,-1,9
 623 288 623 288 625 296 c 1,10,-1
 641 293 l 1,11,12
 609 230 609 230 562.5 162 c 128,-1,13
 516 94 516 94 470 30 c 0,14,15
 463 17 463 17 443 13 c 2,16,-1
 292 -9 l 1,17,-1
 312 137 l 2,18,19
 312 143 312 143 325 160 c 1,20,21
 390 208 390 208 457 251.5 c 128,-1,22
 524 295 524 295 586 327 c 1,23,24
 586 326 586 326 588 324 c 1,25,26
 584 323 584 323 564.5 319 c 128,-1,27
 545 315 545 315 526.5 309.5 c 128,-1,28
 508 304 508 304 491.5 299.5 c 128,-1,29
 475 295 475 295 468 295 c 0,30,31
 452 291 452 291 422 285 c 128,-1,32
 392 279 392 279 362 274 c 128,-1,33
 332 269 332 269 308 264.5 c 128,-1,34
 284 260 284 260 280 260 c 2,35,-1
 271 260 l 1,36,-1
 143 358 l 1,37,38
 193 394 193 394 217.5 413.5 c 128,-1,39
 242 433 242 433 257 443 c 0,40,41
 270 452 270 452 280 452 c 2,42,-1
 283 452 l 1,43,44
 444 430 444 430 587 389 c 1,45,46
 581 383 581 383 582 384.5 c 128,-1,47
 583 386 583 386 583 383 c 1,48,49
 452 458 452 458 327 552 c 0,50,51
 312 561 312 561 312 575 c 2,52,-1
 292 719 l 1,53,-1
 443 700 l 2,54,55
 461 696 461 696 470 682 c 0,56,57
 516 620 516 620 559.5 554 c 128,-1,58
 603 488 603 488 636 430 c 1,59,60
 631 428 631 428 623 428 c 1,61,62
 617 454 617 454 606 496 c 128,-1,63
 595 538 595 538 591 552 c 0,64,65
 587 568 587 568 582.5 595 c 128,-1,66
 578 622 578 622 573 649.5 c 128,-1,67
 568 677 568 677 565 699 c 128,-1,68
 562 721 562 721 562 725 c 2,69,-1
 562 743 l 1,70,-1
 640 849 l 1,71,-1
 663 866 l 1,72,-1
 680 849 l 1,73,-1
 758 743 l 1,74,-1
 758 725 l 2,75,76
 758 721 758 721 755 699 c 128,-1,77
 752 677 752 677 747 649.5 c 128,-1,78
 742 622 742 622 737.5 595 c 128,-1,79
 733 568 733 568 728 551 c 0,80,81
 727 544 727 544 724 528.5 c 128,-1,82
 721 513 721 513 715 493.5 c 128,-1,83
 709 474 709 474 704 453 c 128,-1,84
 699 432 699 432 694 423 c 1,85,86
 689 425 689 425 690 424.5 c 128,-1,87
 691 424 691 424 680 424 c 1,88,89
 756 559 756 559 850 682 c 0,90,91
 859 693 859 693 875 700 c 1,92,-1
 1030 719 l 1,93,-1
 1008 574 l 2,94,95
 1003 558 1003 558 993 552 c 0,96,97
 927 503 927 503 860 458.5 c 128,-1,98
 793 414 793 414 731 382 c 1,99,100
 730 384 730 384 727 388 c 1,101,102
 793 406 793 406 872.5 424 c 128,-1,103
 952 442 952 442 1037 452 c 1,104,-1
 1040 452 l 2,105,106
 1048 452 1048 452 1053.5 449.5 c 128,-1,107
 1059 447 1059 447 1064 442 c 0,108,109
 1073 434 1073 434 1176 358 c 1,110,-1
 1048 260 l 1,111,-1
 1040 260 l 2,112,113
 1036 260 1036 260 1011.5 264.5 c 128,-1,114
 987 269 987 269 957 274 c 128,-1,115
 927 279 927 279 897.5 285 c 128,-1,116
 868 291 868 291 852 295 c 0,117,118
 844 295 844 295 828 299.5 c 128,-1,119
 812 304 812 304 791.5 309.5 c 128,-1,120
 771 315 771 315 749 321 c 128,-1,121
 727 327 727 327 725 327 c 1,122,123
 725 326 725 326 731 329 c 1,124,125
 789 296 789 296 858 253 c 128,-1,126
 927 210 927 210 995 160 c 0,127,128
 1003 150 1003 150 1008 138 c 2,129,-1
 1030 -9 l 1,130,-1
 875 13 l 1,131,132
 857 20 857 20 850 29 c 0,133,134
 749 158 749 158 676 295 c 1,135,-1
 692 298 l 1,136,137
 694 288 694 288 700.5 267 c 128,-1,138
 707 246 707 246 713 224 c 128,-1,139
 719 202 719 202 723 184.5 c 128,-1,140
 727 167 727 167 729 159 c 0,141,142
 733 142 733 142 737.5 115.5 c 128,-1,143
 742 89 742 89 747 61.5 c 128,-1,144
 752 34 752 34 755 13 c 128,-1,145
 758 -8 758 -8 758 -12 c 2,146,-1
 758 -31 l 1,147,-1
 679 -138 l 1,148,-1
 659 -153 l 1,149,150
 638 -139 638 -139 638 -135 c 2,151,-1
 562 -31 l 1,152,-1
 562 -12 l 2,0,1
EndSplineSet
Validated: 5
EndChar

StartChar: plus
Encoding: 43 43 14
Width: 1182
GlyphClass: 2
Flags: W
LayerCount: 2
Fore
SplineSet
524 250 m 1,0,-1
 143 250 l 1,1,-1
 143 407 l 1,2,3
 253 407 253 407 347 406 c 128,-1,4
 441 405 441 405 524 408 c 1,5,-1
 524 786 l 1,6,-1
 689 786 l 1,7,8
 689 711 689 711 690.5 611.5 c 128,-1,9
 692 512 692 512 689 405 c 1,10,11
 699 405 699 405 752 405 c 0,12,13
 806 405 806 405 865 405 c 256,14,15
 924 405 924 405 978 405 c 0,16,17
 1031 405 1031 405 1068 405 c 1,18,-1
 1068 254 l 1,19,-1
 694 256 l 1,20,-1
 694 -137 l 1,21,22
 601 -137 601 -137 570 -137 c 0,23,24
 524 -137 524 -137 524 -123 c 2,25,-1
 524 250 l 1,0,-1
EndSplineSet
Validated: 33
EndChar

StartChar: comma
Encoding: 44 44 15
Width: 514
GlyphClass: 2
Flags: W
LayerCount: 2
Fore
SplineSet
444 216 m 1,0,1
 446 100 446 100 400.5 38.5 c 128,-1,2
 355 -23 355 -23 293 -32.5 c 128,-1,3
 231 -42 231 -42 178 2 c 128,-1,4
 125 46 125 46 117 130 c 0,5,6
 109 201 109 201 135 288 c 128,-1,7
 161 375 161 375 212 467 c 1,8,9
 224 501 224 501 253 535 c 128,-1,10
 282 569 282 569 313 592 c 128,-1,11
 344 615 344 615 358.5 598 c 128,-1,12
 373 581 373 581 346 525 c 0,13,14
 334 501 334 501 309 455.5 c 128,-1,15
 284 410 284 410 266.5 358 c 128,-1,16
 249 306 249 306 249 256 c 0,17,18
 249 210 249 210 283 182 c 0,19,20
 287 179 287 179 290.5 182.5 c 128,-1,21
 294 186 294 186 305 217 c 0,22,23
 313 236 313 236 331 248 c 128,-1,24
 349 260 349 260 372 261 c 128,-1,25
 395 262 395 262 414.5 250 c 128,-1,26
 434 238 434 238 444 216 c 1,0,1
EndSplineSet
Validated: 33
EndChar

StartChar: hyphen
Encoding: 45 45 16
Width: 963
GlyphClass: 2
Flags: W
LayerCount: 2
Fore
SplineSet
849 273 m 1,0,-1
 143 273 l 1,1,-1
 143 416 l 1,2,3
 291 416 291 416 469.5 417 c 128,-1,4
 648 418 648 418 849 418 c 1,5,-1
 849 273 l 1,0,-1
EndSplineSet
Validated: 1
EndChar

StartChar: period
Encoding: 46 46 17
Width: 1075
GlyphClass: 2
Flags: W
LayerCount: 2
Fore
SplineSet
180 -104 m 0,0,1
 143 -100 143 -100 152 -86.5 c 128,-1,2
 161 -73 161 -73 166 -62 c 2,3,-1
 297 80 l 2,4,5
 311 99 311 99 343.5 102.5 c 128,-1,6
 376 106 376 106 390 106 c 0,7,8
 443 106 443 106 517 106 c 0,9,10
 590 106 590 106 668 106 c 256,11,12
 746 106 746 106 818 106 c 0,13,14
 889 106 889 106 936 106 c 0,15,16
 984 106 984 106 968.5 93 c 128,-1,17
 953 80 953 80 948 76 c 0,18,19
 921 48 921 48 880.5 12 c 128,-1,20
 840 -24 840 -24 801 -53 c 0,21,22
 780 -70 780 -70 751.5 -85 c 128,-1,23
 723 -100 723 -100 692 -102 c 0,24,25
 675 -102 675 -102 638.5 -103 c 128,-1,26
 602 -104 602 -104 551 -104 c 0,27,28
 504 -104 504 -104 449 -104 c 0,29,30
 396 -104 396 -104 343 -104 c 0,31,32
 291 -104 291 -104 248 -104 c 256,33,34
 205 -104 205 -104 180 -104 c 0,0,1
EndSplineSet
Validated: 1
EndChar

StartChar: slash
Encoding: 47 47 18
Width: 1186
GlyphClass: 2
Flags: W
LayerCount: 2
Fore
SplineSet
407 -358 m 1,0,1
 337 -401 337 -401 289.5 -426.5 c 128,-1,2
 242 -452 242 -452 143 -510 c 1,3,-1
 849 764 l 1,4,-1
 1111 921 l 1,5,6
 1021 759 1021 759 962.5 653.5 c 128,-1,7
 904 548 904 548 852 451.5 c 128,-1,8
 800 355 800 355 749.5 264 c 128,-1,9
 699 173 699 173 647 77 c 128,-1,10
 595 -19 595 -19 536.5 -124.5 c 128,-1,11
 478 -230 478 -230 407 -358 c 1,0,1
EndSplineSet
Validated: 1
EndChar

StartChar: zero
Encoding: 48 48 19
Width: 1019
GlyphClass: 2
Flags: W
LayerCount: 2
Fore
SplineSet
100 236 m 1,0,-1
 100 340 l 2,1,2
 100 424 100 424 101 507.5 c 128,-1,3
 102 591 102 591 102 654 c 2,4,-1
 102 723 l 1,5,-1
 102 757 l 2,6,7
 104 842 104 842 137 916.5 c 128,-1,8
 170 991 170 991 227.5 1046.5 c 128,-1,9
 285 1102 285 1102 361.5 1134 c 128,-1,10
 438 1166 438 1166 526 1166 c 0,11,12
 609 1166 609 1166 684 1133.5 c 128,-1,13
 759 1101 759 1101 815.5 1046.5 c 128,-1,14
 872 992 872 992 905.5 919.5 c 128,-1,15
 939 847 939 847 941 765 c 0,16,17
 941 692 941 692 941.5 636 c 128,-1,18
 942 580 942 580 942.5 534 c 128,-1,19
 943 488 943 488 943.5 447.5 c 128,-1,20
 944 407 944 407 944.5 365.5 c 128,-1,21
 945 324 945 324 945.5 276.5 c 128,-1,22
 946 229 946 229 946 169 c 0,23,24
 945 85 945 85 910.5 13 c 128,-1,25
 876 -59 876 -59 818 -112.5 c 128,-1,26
 760 -166 760 -166 683.5 -196.5 c 128,-1,27
 607 -227 607 -227 524 -227 c 0,28,29
 436 -227 436 -227 358.5 -194.5 c 128,-1,30
 281 -162 281 -162 223.5 -105.5 c 128,-1,31
 166 -49 166 -49 133 26.5 c 128,-1,32
 100 102 100 102 100 190 c 2,33,-1
 100 236 l 1,0,-1
440 -7 m 0,34,35
 474 -24 474 -24 523 -24 c 0,36,37
 555 -24 555 -24 584.5 -14 c 128,-1,38
 614 -4 614 -4 640.5 15 c 128,-1,39
 667 34 667 34 686.5 60.5 c 128,-1,40
 706 87 706 87 716 119 c 0,41,42
 719 131 719 131 721.5 171.5 c 128,-1,43
 724 212 724 212 726 269.5 c 128,-1,44
 728 327 728 327 729 395 c 128,-1,45
 730 463 730 463 730 530 c 0,46,47
 730 580 730 580 729.5 626.5 c 128,-1,48
 729 673 729 673 727.5 710.5 c 128,-1,49
 726 748 726 748 724.5 773.5 c 128,-1,50
 723 799 723 799 721 808 c 1,51,-1
 733 773 l 1,52,-1
 394 20 l 1,53,54
 412 6 412 6 440 -7 c 0,34,35
315 198 m 0,55,56
 315 169 315 169 310 187 c 1,57,-1
 642 923 l 1,58,59
 635 928 635 928 620.5 935.5 c 128,-1,60
 606 943 606 943 590 950 c 0,61,62
 568 961 568 961 529 961 c 0,63,64
 491 961 491 961 453 946.5 c 128,-1,65
 415 932 415 932 384 906 c 128,-1,66
 353 880 353 880 333 844.5 c 128,-1,67
 313 809 313 809 310 768 c 2,68,-1
 310 767 l 2,69,70
 310 755 310 755 310.5 720.5 c 128,-1,71
 311 686 311 686 311.5 637.5 c 128,-1,72
 312 589 312 589 312.5 530.5 c 128,-1,73
 313 472 313 472 313.5 412.5 c 128,-1,74
 314 353 314 353 314.5 297 c 128,-1,75
 315 241 315 241 315 198 c 0,55,56
EndSplineSet
Validated: 5
EndChar

StartChar: one
Encoding: 49 49 20
Width: 682
GlyphClass: 2
Flags: W
LayerCount: 2
Fore
SplineSet
180 846 m 1,0,1
 180 951 180 951 185 955 c 2,2,-1
 300 1032 l 1,3,-1
 219 951 l 1,4,5
 219 977 219 977 209 970 c 128,-1,6
 199 963 199 963 201 966 c 0,7,8
 211 971 211 971 218.5 977 c 128,-1,9
 226 983 226 983 229 985 c 0,10,11
 270 1025 270 1025 295.5 1063.5 c 128,-1,12
 321 1102 321 1102 332 1162 c 1,13,-1
 542 1162 l 1,14,-1
 540 -227 l 1,15,-1
 328 -227 l 1,16,-1
 328 843 l 1,17,-1
 325 846 l 1,18,-1
 180 846 l 1,0,1
EndSplineSet
Validated: 5
EndChar

StartChar: two
Encoding: 50 50 21
Width: 1020
GlyphClass: 2
Flags: W
LayerCount: 2
Fore
SplineSet
888 539 m 0,0,1
 886 535 886 535 879.5 526.5 c 128,-1,2
 873 518 873 518 855.5 497 c 128,-1,3
 838 476 838 476 806 439 c 128,-1,4
 774 402 774 402 720.5 341.5 c 128,-1,5
 667 281 667 281 588 192.5 c 128,-1,6
 509 104 509 104 401 -16 c 1,7,-1
 403 -22 l 1,8,-1
 949 -28 l 1,9,-1
 949 -227 l 1,10,-1
 100 -225 l 1,11,-1
 100 -22 l 1,12,-1
 689 628 l 1,13,-1
 690 628 l 1,14,15
 707 647 707 647 719.5 680 c 128,-1,16
 732 713 732 713 732 747 c 0,17,18
 732 792 732 792 714 830.5 c 128,-1,19
 696 869 696 869 666.5 897.5 c 128,-1,20
 637 926 637 926 599.5 942 c 128,-1,21
 562 958 562 958 522 958 c 0,22,23
 496 958 496 958 476.5 953.5 c 128,-1,24
 457 949 457 949 439 940 c 128,-1,25
 421 931 421 931 404 917 c 128,-1,26
 387 903 387 903 369 885 c 0,27,28
 353 867 353 867 342.5 846.5 c 128,-1,29
 332 826 332 826 326 804 c 128,-1,30
 320 782 320 782 318 759.5 c 128,-1,31
 316 737 316 737 316 705 c 1,32,-1
 105 703 l 1,33,34
 105 719 105 719 104.5 720.5 c 128,-1,35
 104 722 104 722 104 730 c 0,36,37
 104 820 104 820 134 898 c 128,-1,38
 164 976 164 976 218.5 1034 c 128,-1,39
 273 1092 273 1092 350 1126.5 c 128,-1,40
 427 1161 427 1161 519 1163 c 0,41,42
 636 1163 636 1163 734 1109 c 128,-1,43
 832 1055 832 1055 887 962 c 1,44,-1
 888 962 l 1,45,46
 922 909 922 909 936 855 c 128,-1,47
 950 801 950 801 950 745 c 0,48,49
 950 687 950 687 935 634.5 c 128,-1,50
 920 582 920 582 888 539 c 0,0,1
EndSplineSet
Validated: 1
EndChar

StartChar: three
Encoding: 51 51 22
Width: 1009
GlyphClass: 2
Flags: W
LayerCount: 2
Fore
SplineSet
100 196 m 1,0,-1
 100 206 l 2,1,2
 100 219 100 219 108 227 c 1,3,-1
 312 226 l 1,4,5
 312 151 312 151 311.5 152 c 128,-1,6
 311 153 311 153 311 210 c 1,7,8
 311 164 311 164 327 121 c 128,-1,9
 343 78 343 78 371 46.5 c 128,-1,10
 399 15 399 15 437 -3.5 c 128,-1,11
 475 -22 475 -22 520 -22 c 0,12,13
 554 -22 554 -22 586.5 -7 c 128,-1,14
 619 8 619 8 646.5 33.5 c 128,-1,15
 674 59 674 59 693 92 c 128,-1,16
 712 125 712 125 720 160 c 0,17,18
 727 174 727 174 727 220 c 0,19,20
 727 264 727 264 711.5 296.5 c 128,-1,21
 696 329 696 329 669 351.5 c 128,-1,22
 642 374 642 374 604.5 387.5 c 128,-1,23
 567 401 567 401 525 407 c 1,24,-1
 522 407 l 2,25,26
 514 408 514 408 508.5 408.5 c 128,-1,27
 503 409 503 409 498 409 c 2,28,-1
 472 409 l 1,29,-1
 472 515 l 1,30,31
 524 526 524 526 567.5 545.5 c 128,-1,32
 611 565 611 565 647 595.5 c 128,-1,33
 683 626 683 626 706 666 c 128,-1,34
 729 706 729 706 729 755 c 0,35,36
 729 791 729 791 717.5 826 c 128,-1,37
 706 861 706 861 685 888 c 128,-1,38
 664 915 664 915 635 930.5 c 128,-1,39
 606 946 606 946 571 946 c 0,40,41
 512 946 512 946 468.5 911 c 128,-1,42
 425 876 425 876 405 817 c 0,43,44
 397 792 397 792 394 767 c 128,-1,45
 391 742 391 742 390 709 c 1,46,-1
 185 709 l 1,47,-1
 185 781 l 2,48,49
 185 798 185 798 187 815.5 c 128,-1,50
 189 833 189 833 193 852 c 0,51,52
 207 919 207 919 243 974.5 c 128,-1,53
 279 1030 279 1030 331 1069 c 128,-1,54
 383 1108 383 1108 447.5 1129.5 c 128,-1,55
 512 1151 512 1151 582 1151 c 0,56,57
 659 1151 659 1151 723.5 1125 c 128,-1,58
 788 1099 788 1099 835 1053 c 128,-1,59
 882 1007 882 1007 908 944 c 128,-1,60
 934 881 934 881 934 806 c 0,61,62
 934 709 934 709 894 636 c 128,-1,63
 854 563 854 563 783 501 c 1,64,-1
 781 496 l 1,65,-1
 781 500 l 1,66,67
 815 476 815 476 845.5 448.5 c 128,-1,68
 876 421 876 421 897 387 c 128,-1,69
 918 353 918 353 928.5 314 c 128,-1,70
 939 275 939 275 939 226 c 0,71,72
 939 141 939 141 907 60.5 c 128,-1,73
 875 -20 875 -20 818 -84.5 c 128,-1,74
 761 -149 761 -149 683.5 -188 c 128,-1,75
 606 -227 606 -227 515 -227 c 0,76,77
 434 -227 434 -227 360 -196 c 128,-1,78
 286 -165 286 -165 229 -112.5 c 128,-1,79
 172 -60 172 -60 137.5 10 c 128,-1,80
 103 80 103 80 100 159 c 2,81,-1
 100 196 l 1,0,-1
EndSplineSet
Validated: 37
EndChar

StartChar: four
Encoding: 52 52 23
Width: 1004
GlyphClass: 2
Flags: W
LayerCount: 2
Fore
SplineSet
547 290 m 1,0,-1
 550 293 l 1,1,-1
 548 924 l 1,2,-1
 554 923 l 1,3,-1
 330 294 l 1,4,-1
 332 290 l 1,5,-1
 547 290 l 1,0,-1
944 289 m 1,6,-1
 944 115 l 1,7,-1
 772 115 l 1,8,-1
 769 112 l 1,9,-1
 769 -227 l 1,10,-1
 551 -227 l 1,11,-1
 550 113 l 1,12,-1
 547 116 l 1,13,-1
 100 116 l 1,14,-1
 100 294 l 1,15,-1
 450 1161 l 1,16,-1
 769 1161 l 1,17,-1
 769 292 l 1,18,-1
 772 289 l 1,19,-1
 944 289 l 1,6,-1
EndSplineSet
Validated: 5
EndChar

StartChar: five
Encoding: 53 53 24
Width: 1014
GlyphClass: 2
Flags: W
LayerCount: 2
Fore
SplineSet
317 139 m 1,0,1
 344 61 344 61 395 19.5 c 128,-1,2
 446 -22 446 -22 520 -22 c 0,3,4
 558 -22 558 -22 594.5 -7 c 128,-1,5
 631 8 631 8 659 35.5 c 128,-1,6
 687 63 687 63 705 100.5 c 128,-1,7
 723 138 723 138 723 181 c 0,8,9
 723 240 723 240 721.5 275.5 c 128,-1,10
 720 311 720 311 718 331 c 128,-1,11
 716 351 716 351 713.5 360.5 c 128,-1,12
 711 370 711 370 711 369 c 1,13,-1
 711 369 l 1,14,15
 698 407 698 407 677.5 431 c 128,-1,16
 657 455 657 455 632 472 c 128,-1,17
 607 489 607 489 578 497.5 c 128,-1,18
 549 506 549 506 520 506 c 0,19,20
 455 506 455 506 398.5 477.5 c 128,-1,21
 342 449 342 449 302 388 c 1,22,-1
 104 388 l 1,23,-1
 105 1153 l 1,24,-1
 867 1153 l 1,25,-1
 867 951 l 1,26,-1
 320 952 l 1,27,-1
 317 949 l 1,28,-1
 317 660 l 1,29,-1
 318 660 l 1,30,31
 360 679 360 679 410.5 695.5 c 128,-1,32
 461 712 461 712 519 712 c 0,33,34
 586 712 586 712 650 691 c 128,-1,35
 714 670 714 670 766.5 633 c 128,-1,36
 819 596 819 596 858.5 544 c 128,-1,37
 898 492 898 492 919 430 c 0,38,39
 933 387 933 387 938.5 348 c 128,-1,40
 944 309 944 309 944 267 c 0,41,42
 944 240 944 240 942 213 c 128,-1,43
 940 186 940 186 938 155 c 0,44,45
 933 74 933 74 897 5 c 128,-1,46
 861 -64 861 -64 804.5 -116 c 128,-1,47
 748 -168 748 -168 674 -197.5 c 128,-1,48
 600 -227 600 -227 520 -227 c 0,49,50
 454 -227 454 -227 391.5 -209.5 c 128,-1,51
 329 -192 329 -192 276 -158 c 128,-1,52
 223 -124 223 -124 182.5 -75 c 128,-1,53
 142 -26 142 -26 119 35 c 0,54,55
 111 58 111 58 105.5 82 c 128,-1,56
 100 106 100 106 100 139 c 1,57,-1
 317 139 l 1,0,1
EndSplineSet
Validated: 5
EndChar

StartChar: six
Encoding: 54 54 25
Width: 1024
GlyphClass: 2
Flags: W
LayerCount: 2
Fore
SplineSet
322 189 m 2,0,1
 322 143 322 143 338.5 104 c 128,-1,2
 355 65 355 65 383 36.5 c 128,-1,3
 411 8 411 8 447.5 -8 c 128,-1,4
 484 -24 484 -24 527 -24 c 0,5,6
 569 -24 569 -24 606.5 -8.5 c 128,-1,7
 644 7 644 7 672 35.5 c 128,-1,8
 700 64 700 64 717 102.5 c 128,-1,9
 734 141 734 141 734 186 c 256,10,11
 734 231 734 231 717 269.5 c 128,-1,12
 700 308 700 308 672 336 c 128,-1,13
 644 364 644 364 606 379 c 128,-1,14
 568 394 568 394 526 394 c 0,15,16
 485 394 485 394 449 381 c 128,-1,17
 413 368 413 368 385 343.5 c 128,-1,18
 357 319 357 319 339.5 281.5 c 128,-1,19
 322 244 322 244 322 195 c 2,20,-1
 322 189 l 2,0,1
105 171 m 2,21,-1
 105 205 l 2,22,23
 105 239 105 239 104 285.5 c 128,-1,24
 103 332 103 332 103 386 c 0,25,26
 103 420 103 420 102.5 454 c 128,-1,27
 102 488 102 488 101.5 517.5 c 128,-1,28
 101 547 101 547 100.5 569.5 c 128,-1,29
 100 592 100 592 100 604 c 0,30,31
 100 667 100 667 103 724 c 128,-1,32
 106 781 106 781 118 841 c 0,33,34
 133 911 133 911 171.5 970 c 128,-1,35
 210 1029 210 1029 265 1072 c 128,-1,36
 320 1115 320 1115 388 1139 c 128,-1,37
 456 1163 456 1163 529 1163 c 0,38,39
 623 1163 623 1163 702 1129 c 128,-1,40
 781 1095 781 1095 837 1037 c 128,-1,41
 893 979 893 979 923.5 901.5 c 128,-1,42
 954 824 954 824 954 735 c 0,43,44
 954 727 954 727 953.5 726 c 128,-1,45
 953 725 953 725 953 709 c 1,46,-1
 738 710 l 1,47,48
 737 743 737 743 735.5 763.5 c 128,-1,49
 734 784 734 784 729 804 c 1,50,-1
 729 805 l 1,51,52
 720 839 720 839 699.5 868.5 c 128,-1,53
 679 898 679 898 652.5 918.5 c 128,-1,54
 626 939 626 939 594 950 c 128,-1,55
 562 961 562 961 527 961 c 0,56,57
 490 961 490 961 453.5 945 c 128,-1,58
 417 929 417 929 388 901 c 128,-1,59
 359 873 359 873 341 836.5 c 128,-1,60
 323 800 323 800 323 759 c 0,61,62
 323 727 323 727 322.5 696 c 128,-1,63
 322 665 322 665 322 635 c 2,64,-1
 322 517 l 1,65,-1
 319 519 l 1,66,67
 359 561 359 561 418.5 580 c 128,-1,68
 478 599 478 599 544 599 c 0,69,70
 633 599 633 599 708 566 c 128,-1,71
 783 533 783 533 836.5 477 c 128,-1,72
 890 421 890 421 919.5 346 c 128,-1,73
 949 271 949 271 949 187 c 0,74,75
 949 100 949 100 917.5 24.5 c 128,-1,76
 886 -51 886 -51 829 -107.5 c 128,-1,77
 772 -164 772 -164 695 -197 c 128,-1,78
 618 -230 618 -230 528 -230 c 0,79,80
 463 -230 463 -230 400 -210.5 c 128,-1,81
 337 -191 337 -191 284 -156 c 128,-1,82
 231 -121 231 -121 191 -71 c 128,-1,83
 151 -21 151 -21 133 33 c 1,84,-1
 132 33 l 1,85,86
 118 73 118 73 112.5 104 c 128,-1,87
 107 135 107 135 105 171 c 2,21,-1
EndSplineSet
Validated: 5
EndChar

StartChar: seven
Encoding: 55 55 26
Width: 949
GlyphClass: 2
Flags: W
LayerCount: 2
Fore
SplineSet
917 1148 m 1,0,-1
 849 938 l 1,1,-1
 354 -210 l 1,2,-1
 113 -210 l 1,3,-1
 637 937 l 1,4,-1
 634 942 l 1,5,-1
 326 942 l 1,6,-1
 324 941 l 1,7,-1
 304 865 l 1,8,-1
 100 865 l 1,9,-1
 101 1148 l 1,10,-1
 917 1148 l 1,0,-1
EndSplineSet
Validated: 1
EndChar

StartChar: eight
Encoding: 56 56 27
Width: 1021
GlyphClass: 2
Flags: W
LayerCount: 2
Fore
SplineSet
515 379 m 2,0,1
 476 379 476 379 440.5 367 c 128,-1,2
 405 355 405 355 378 332 c 128,-1,3
 351 309 351 309 335 275.5 c 128,-1,4
 319 242 319 242 319 200 c 2,5,-1
 319 187 l 2,6,7
 321 140 321 140 337.5 101.5 c 128,-1,8
 354 63 354 63 381 35.5 c 128,-1,9
 408 8 408 8 445 -7 c 128,-1,10
 482 -22 482 -22 525 -22 c 0,11,12
 570 -22 570 -22 607.5 -5 c 128,-1,13
 645 12 645 12 672.5 42 c 128,-1,14
 700 72 700 72 715.5 113 c 128,-1,15
 731 154 731 154 731 200 c 0,16,17
 731 247 731 247 714.5 281 c 128,-1,18
 698 315 698 315 670 336.5 c 128,-1,19
 642 358 642 358 605 368.5 c 128,-1,20
 568 379 568 379 526 379 c 2,21,-1
 515 379 l 2,0,1
320 766 m 0,22,23
 320 731 320 731 341 687.5 c 128,-1,24
 362 644 362 644 394 604.5 c 128,-1,25
 426 565 426 565 463 539.5 c 128,-1,26
 500 514 500 514 531 514 c 2,27,-1
 532 514 l 2,28,29
 547 514 547 514 567.5 525.5 c 128,-1,30
 588 537 588 537 610 556.5 c 128,-1,31
 632 576 632 576 653 602 c 128,-1,32
 674 628 674 628 690.5 654.5 c 128,-1,33
 707 681 707 681 716.5 705 c 128,-1,34
 726 729 726 729 726 746 c 2,35,-1
 726 747 l 2,36,37
 726 790 726 790 710 829 c 128,-1,38
 694 868 694 868 666.5 897.5 c 128,-1,39
 639 927 639 927 603 944 c 128,-1,40
 567 961 567 961 525 961 c 0,41,42
 488 961 488 961 451.5 946.5 c 128,-1,43
 415 932 415 932 385.5 906 c 128,-1,44
 356 880 356 880 338 844 c 128,-1,45
 320 808 320 808 320 766 c 0,22,23
100 192 m 0,46,47
 100 231 100 231 106.5 269.5 c 128,-1,48
 113 308 113 308 132 343 c 128,-1,49
 151 378 151 378 183.5 409.5 c 128,-1,50
 216 441 216 441 262 464 c 1,51,-1
 263 473 l 1,52,53
 176 534 176 534 138 604 c 128,-1,54
 100 674 100 674 100 755 c 0,55,56
 100 838 100 838 133 912 c 128,-1,57
 166 986 166 986 223.5 1042 c 128,-1,58
 281 1098 281 1098 357.5 1131 c 128,-1,59
 434 1164 434 1164 520 1164 c 0,60,61
 605 1164 605 1164 682 1131.5 c 128,-1,62
 759 1099 759 1099 817.5 1044.5 c 128,-1,63
 876 990 876 990 910 916 c 128,-1,64
 944 842 944 842 944 759 c 0,65,66
 944 669 944 669 898.5 594 c 128,-1,67
 853 519 853 519 783 471 c 1,68,-1
 784 462 l 1,69,70
 860 427 860 427 905.5 362.5 c 128,-1,71
 951 298 951 298 951 205 c 0,72,73
 951 117 951 117 920.5 38.5 c 128,-1,74
 890 -40 890 -40 834.5 -98.5 c 128,-1,75
 779 -157 779 -157 700.5 -192 c 128,-1,76
 622 -227 622 -227 529 -227 c 0,77,78
 442 -227 442 -227 364.5 -193 c 128,-1,79
 287 -159 287 -159 228.5 -102 c 128,-1,80
 170 -45 170 -45 136 31 c 128,-1,81
 102 107 102 107 100 192 c 0,46,47
EndSplineSet
Validated: 1
EndChar

StartChar: nine
Encoding: 57 57 28
Width: 1021
GlyphClass: 2
Flags: W
LayerCount: 2
Fore
SplineSet
731 748 m 2,0,1
 731 793 731 793 714.5 832 c 128,-1,2
 698 871 698 871 670 900 c 128,-1,3
 642 929 642 929 605 945.5 c 128,-1,4
 568 962 568 962 525 962 c 0,5,6
 484 962 484 962 447.5 946 c 128,-1,7
 411 930 411 930 382.5 901 c 128,-1,8
 354 872 354 872 337 833.5 c 128,-1,9
 320 795 320 795 320 751 c 0,10,11
 320 705 320 705 336.5 666 c 128,-1,12
 353 627 353 627 381 599.5 c 128,-1,13
 409 572 409 572 446 557 c 128,-1,14
 483 542 483 542 526 542 c 0,15,16
 568 542 568 542 604.5 555 c 128,-1,17
 641 568 641 568 669 593 c 128,-1,18
 697 618 697 618 714 655.5 c 128,-1,19
 731 693 731 693 731 742 c 2,20,-1
 731 748 l 2,0,1
949 549 m 2,21,22
 949 525 949 525 949.5 502.5 c 128,-1,23
 950 480 950 480 950 458 c 0,24,25
 950 432 950 432 950.5 408.5 c 128,-1,26
 951 385 951 385 951 367 c 2,27,-1
 951 299 l 2,28,29
 950 247 950 247 948 198 c 128,-1,30
 946 149 946 149 935 95 c 0,31,32
 920 25 920 25 881.5 -34 c 128,-1,33
 843 -93 843 -93 788 -136 c 128,-1,34
 733 -179 733 -179 665 -203 c 128,-1,35
 597 -227 597 -227 524 -227 c 0,36,37
 430 -227 430 -227 351.5 -192.5 c 128,-1,38
 273 -158 273 -158 217 -99.5 c 128,-1,39
 161 -41 161 -41 130.5 37.5 c 128,-1,40
 100 116 100 116 100 204 c 2,41,-1
 100 226 l 1,42,-1
 314 225 l 1,43,44
 315 195 315 195 316.5 175.5 c 128,-1,45
 318 156 318 156 324 132 c 1,46,-1
 324 131 l 1,47,48
 333 97 333 97 354 68 c 128,-1,49
 375 39 375 39 401.5 18.5 c 128,-1,50
 428 -2 428 -2 460 -13 c 128,-1,51
 492 -24 492 -24 526 -24 c 0,52,53
 563 -24 563 -24 599.5 -8 c 128,-1,54
 636 8 636 8 664.5 35.5 c 128,-1,55
 693 63 693 63 711.5 100 c 128,-1,56
 730 137 730 137 730 178 c 0,57,58
 731 194 731 194 731 209.5 c 128,-1,59
 731 225 731 225 731 240 c 2,60,-1
 731 301 l 1,61,-1
 731 362 l 2,62,63
 731 377 731 377 731 392.5 c 128,-1,64
 731 408 731 408 732 419 c 1,65,-1
 734 418 l 1,66,67
 695 378 695 378 636.5 357.5 c 128,-1,68
 578 337 578 337 515 337 c 2,69,-1
 510 337 l 2,70,71
 422 337 422 337 347.5 369.5 c 128,-1,72
 273 402 273 402 219 457 c 128,-1,73
 165 512 165 512 135 585.5 c 128,-1,74
 105 659 105 659 105 743 c 2,75,-1
 105 749 l 2,76,77
 105 835 105 835 137 910.5 c 128,-1,78
 169 986 169 986 225.5 1042.5 c 128,-1,79
 282 1099 282 1099 359 1132.5 c 128,-1,80
 436 1166 436 1166 525 1166 c 0,81,82
 592 1166 592 1166 654.5 1146.5 c 128,-1,83
 717 1127 717 1127 770 1091.5 c 128,-1,84
 823 1056 823 1056 863 1005.5 c 128,-1,85
 903 955 903 955 925 895 c 0,86,87
 937 863 937 863 941.5 831.5 c 128,-1,88
 946 800 946 800 949 765 c 2,89,-1
 949 549 l 2,21,22
EndSplineSet
Validated: 5
EndChar

StartChar: colon
Encoding: 58 58 29
Width: 592
GlyphClass: 2
Flags: W
LayerCount: 2
Fore
SplineSet
147 459 m 0,0,1
 143 467 143 467 159.5 494.5 c 128,-1,2
 176 522 176 522 198 552 c 128,-1,3
 220 582 220 582 242.5 608.5 c 128,-1,4
 265 635 265 635 282 635 c 0,5,6
 291 635 291 635 320.5 616 c 128,-1,7
 350 597 350 597 381 575.5 c 128,-1,8
 412 554 412 554 438.5 532.5 c 128,-1,9
 465 511 465 511 465 502 c 0,10,11
 465 490 465 490 449 462 c 128,-1,12
 433 434 433 434 412 406 c 128,-1,13
 391 378 391 378 367.5 353.5 c 128,-1,14
 344 329 344 329 321 325 c 1,15,16
 273 358 273 358 228.5 389 c 128,-1,17
 184 420 184 420 147 459 c 0,0,1
162 -84 m 0,18,19
 158 -76 158 -76 174 -48.5 c 128,-1,20
 190 -21 190 -21 212 9 c 128,-1,21
 234 39 234 39 256.5 65.5 c 128,-1,22
 279 92 279 92 297 92 c 0,23,24
 307 92 307 92 335.5 73 c 128,-1,25
 364 54 364 54 395 32.5 c 128,-1,26
 426 11 426 11 453 -10.5 c 128,-1,27
 480 -32 480 -32 480 -41 c 0,28,29
 480 -53 480 -53 464 -80.5 c 128,-1,30
 448 -108 448 -108 427 -136.5 c 128,-1,31
 406 -165 406 -165 382.5 -189.5 c 128,-1,32
 359 -214 359 -214 336 -218 c 1,33,34
 288 -185 288 -185 243.5 -154 c 128,-1,35
 199 -123 199 -123 162 -84 c 0,18,19
EndSplineSet
Validated: 1
EndChar

StartChar: semicolon
Encoding: 59 59 30
Width: 586
GlyphClass: 2
Flags: W
LayerCount: 2
Fore
SplineSet
464 339 m 1,0,1
 466 223 466 223 420.5 161.5 c 128,-1,2
 375 100 375 100 313.5 90.5 c 128,-1,3
 252 81 252 81 198.5 125 c 128,-1,4
 145 169 145 169 137 253 c 0,5,6
 129 324 129 324 155 411 c 128,-1,7
 181 498 181 498 232 591 c 1,8,9
 245 624 245 624 273.5 658 c 128,-1,10
 302 692 302 692 333 715 c 128,-1,11
 364 738 364 738 378.5 720.5 c 128,-1,12
 393 703 393 703 367 648 c 0,13,14
 357 628 357 628 340.5 597 c 128,-1,15
 324 566 324 566 308 531 c 128,-1,16
 292 496 292 496 281 456.5 c 128,-1,17
 270 417 270 417 270 379 c 0,18,19
 270 333 270 333 303 305 c 0,20,21
 307 302 307 302 310.5 305.5 c 128,-1,22
 314 309 314 309 326 340 c 0,23,24
 334 359 334 359 351.5 371 c 128,-1,25
 369 383 369 383 392 384 c 128,-1,26
 415 385 415 385 434.5 373 c 128,-1,27
 454 361 454 361 464 339 c 1,0,1
155 -295 m 0,28,29
 151 -287 151 -287 167 -259.5 c 128,-1,30
 183 -232 183 -232 205 -202 c 128,-1,31
 227 -172 227 -172 250 -145.5 c 128,-1,32
 273 -119 273 -119 289 -119 c 0,33,34
 300 -119 300 -119 328.5 -138 c 128,-1,35
 357 -157 357 -157 388 -178.5 c 128,-1,36
 419 -200 419 -200 445.5 -221.5 c 128,-1,37
 472 -243 472 -243 472 -252 c 0,38,39
 472 -263 472 -263 456.5 -291 c 128,-1,40
 441 -319 441 -319 420 -347.5 c 128,-1,41
 399 -376 399 -376 375.5 -400.5 c 128,-1,42
 352 -425 352 -425 328 -429 c 1,43,44
 281 -396 281 -396 236 -365 c 128,-1,45
 191 -334 191 -334 155 -295 c 0,28,29
EndSplineSet
Validated: 33
EndChar

StartChar: less
Encoding: 60 60 31
Width: 1032
GlyphClass: 2
Flags: W
LayerCount: 2
Fore
SplineSet
923 -53 m 1,0,-1
 143 430 l 1,1,-1
 922 914 l 1,2,-1
 922 764 l 1,3,-1
 381 428 l 1,4,-1
 926 96 l 1,5,-1
 923 -53 l 1,0,-1
EndSplineSet
Validated: 1
EndChar

StartChar: equal
Encoding: 61 61 32
Width: 969
GlyphClass: 2
Flags: W
LayerCount: 2
Fore
SplineSet
851 418 m 1,0,-1
 143 418 l 1,1,-1
 143 561 l 1,2,-1
 853 561 l 1,3,-1
 851 418 l 1,0,-1
853 160 m 1,4,-1
 145 160 l 1,5,-1
 145 303 l 1,6,7
 294 303 294 303 474 304 c 128,-1,8
 654 305 654 305 855 305 c 1,9,-1
 853 160 l 1,4,-1
EndSplineSet
Validated: 1
EndChar

StartChar: greater
Encoding: 62 62 33
Width: 1032
GlyphClass: 2
Flags: W
LayerCount: 2
Fore
SplineSet
143 96 m 1,0,-1
 687 428 l 1,1,-1
 147 764 l 1,2,-1
 147 914 l 1,3,-1
 926 430 l 1,4,-1
 145 -53 l 1,5,-1
 143 96 l 1,0,-1
EndSplineSet
Validated: 1
EndChar

StartChar: question
Encoding: 63 63 34
Width: 870
GlyphClass: 2
Flags: W
LayerCount: 2
Fore
SplineSet
477 25 m 0,0,1
 481 81 481 81 465.5 135 c 128,-1,2
 450 189 450 189 411 228 c 0,3,4
 363 277 363 277 317 317 c 128,-1,5
 271 357 271 357 231 402 c 128,-1,6
 191 447 191 447 167 502.5 c 128,-1,7
 143 558 143 558 143 635 c 0,8,9
 143 701 143 701 165 762.5 c 128,-1,10
 187 824 187 824 228.5 872 c 128,-1,11
 270 920 270 920 329.5 949.5 c 128,-1,12
 389 979 389 979 461 979 c 0,13,14
 510 979 510 979 562.5 963.5 c 128,-1,15
 615 948 615 948 658.5 918 c 128,-1,16
 702 888 702 888 729.5 844.5 c 128,-1,17
 757 801 757 801 757 745 c 0,18,19
 757 688 757 688 717 637 c 128,-1,20
 677 586 677 586 607 586 c 0,21,22
 549 586 549 586 512 621 c 128,-1,23
 475 656 475 656 475 709 c 0,24,25
 475 767 475 767 516 804 c 128,-1,26
 557 841 557 841 617 841 c 0,27,28
 628 841 628 841 640 839.5 c 128,-1,29
 652 838 652 838 669 828 c 1,30,31
 643 880 643 880 643 823 c 1,32,33
 643 826 643 826 644 825 c 1,34,35
 623 841 623 841 600 854 c 128,-1,36
 577 867 577 867 554 867 c 0,37,38
 508 867 508 867 466.5 848 c 128,-1,39
 425 829 425 829 395 796.5 c 128,-1,40
 365 764 365 764 347 720.5 c 128,-1,41
 329 677 329 677 331 629 c 0,42,43
 333 583 333 583 352 544 c 128,-1,44
 371 505 371 505 398 468.5 c 128,-1,45
 425 432 425 432 454.5 398 c 128,-1,46
 484 364 484 364 504 329 c 0,47,48
 534 283 534 283 546 233 c 128,-1,49
 558 183 558 183 558 129 c 0,50,51
 558 83 558 83 546.5 31 c 128,-1,52
 535 -21 535 -21 475 -85 c 1,53,54
 475 -33 475 -33 476 -14.5 c 128,-1,55
 477 4 477 4 477 25 c 0,0,1
362 -195 m 0,56,57
 362 -153 362 -153 396 -122.5 c 128,-1,58
 430 -92 430 -92 474 -92 c 0,59,60
 528 -92 528 -92 562.5 -124.5 c 128,-1,61
 597 -157 597 -157 597 -207 c 0,62,63
 597 -244 597 -244 566 -279.5 c 128,-1,64
 535 -315 535 -315 488 -315 c 0,65,66
 433 -315 433 -315 397.5 -280 c 128,-1,67
 362 -245 362 -245 362 -195 c 0,56,57
EndSplineSet
Validated: 37
EndChar

StartChar: at
Encoding: 64 64 35
Width: 1444
GlyphClass: 2
Flags: W
LayerCount: 2
Fore
SplineSet
501 195 m 0,0,1
 503 157 503 157 515 120 c 128,-1,2
 527 83 527 83 548.5 53.5 c 128,-1,3
 570 24 570 24 600 7 c 128,-1,4
 630 -10 630 -10 668 -10 c 0,5,6
 707 -10 707 -10 726.5 12 c 128,-1,7
 746 34 746 34 754 70.5 c 128,-1,8
 762 107 762 107 761 147.5 c 128,-1,9
 760 188 760 188 760 219 c 0,10,11
 760 242 760 242 760 281 c 0,12,13
 760 318 760 318 751.5 355.5 c 128,-1,14
 743 393 743 393 727.5 417 c 128,-1,15
 712 441 712 441 683 441 c 0,16,17
 639 441 639 441 605 419 c 128,-1,18
 571 397 571 397 547.5 361.5 c 128,-1,19
 524 326 524 326 512.5 281.5 c 128,-1,20
 501 237 501 237 501 195 c 0,0,1
1242 -146 m 1,21,22
 1242 -166 1242 -166 1228.5 -188.5 c 128,-1,23
 1215 -211 1215 -211 1197 -232 c 128,-1,24
 1179 -253 1179 -253 1160.5 -271 c 128,-1,25
 1142 -289 1142 -289 1130 -298 c 0,26,27
 1030 -379 1030 -379 914.5 -411.5 c 128,-1,28
 799 -444 799 -444 685.5 -431.5 c 128,-1,29
 572 -419 572 -419 471.5 -365 c 128,-1,30
 371 -311 371 -311 296.5 -222.5 c 128,-1,31
 222 -134 222 -134 182.5 -16.5 c 128,-1,32
 143 101 143 101 152 244 c 0,33,34
 158 368 158 368 205.5 477 c 128,-1,35
 253 586 253 586 331.5 667 c 128,-1,36
 410 748 410 748 515.5 794.5 c 128,-1,37
 621 841 621 841 746 841 c 0,38,39
 882 841 882 841 997 779 c 128,-1,40
 1112 717 1112 717 1189.5 618 c 128,-1,41
 1267 519 1267 519 1298.5 393.5 c 128,-1,42
 1330 268 1330 268 1300 140 c 0,43,44
 1287 86 1287 86 1256 20 c 128,-1,45
 1225 -46 1225 -46 1180 -105.5 c 128,-1,46
 1135 -165 1135 -165 1077.5 -207.5 c 128,-1,47
 1020 -250 1020 -250 955 -250 c 0,48,49
 911 -250 911 -250 879 -231.5 c 128,-1,50
 847 -213 847 -213 825.5 -185 c 128,-1,51
 804 -157 804 -157 790 -122 c 128,-1,52
 776 -87 776 -87 774 -74 c 1,53,54
 782 -68 782 -68 767 -91.5 c 128,-1,55
 752 -115 752 -115 741 -129 c 0,56,57
 714 -159 714 -159 677.5 -178.5 c 128,-1,58
 641 -198 641 -198 601 -198 c 0,59,60
 532 -198 532 -198 491.5 -163.5 c 128,-1,61
 451 -129 451 -129 428.5 -81 c 128,-1,62
 406 -33 406 -33 397.5 22.5 c 128,-1,63
 389 78 389 78 389 125 c 0,64,65
 389 180 389 180 398.5 255.5 c 128,-1,66
 408 331 408 331 435 400 c 128,-1,67
 462 469 462 469 513 519 c 128,-1,68
 564 569 564 569 648 569 c 0,69,70
 687 569 687 569 725 551 c 128,-1,71
 763 533 763 533 763 533 c 1,72,73
 762 524 762 524 775 546.5 c 128,-1,74
 788 569 788 569 806 587.5 c 128,-1,75
 824 606 824 606 845 620.5 c 128,-1,76
 866 635 866 635 883 649 c 0,77,78
 925 681 925 681 925 643 c 0,79,80
 925 635 925 635 925 614 c 0,81,82
 925 596 925 596 926 573.5 c 128,-1,83
 927 551 927 551 927 530 c 0,84,85
 927 512 927 512 927 504 c 0,86,87
 927 389 927 389 918 277.5 c 128,-1,88
 909 166 909 166 909 49 c 0,89,90
 909 28 909 28 915 -0.5 c 128,-1,91
 921 -29 921 -29 932.5 -53.5 c 128,-1,92
 944 -78 944 -78 960 -93.5 c 128,-1,93
 976 -109 976 -109 998 -109 c 0,94,95
 1061 -109 1061 -109 1107 -71.5 c 128,-1,96
 1153 -34 1153 -34 1182.5 24 c 128,-1,97
 1212 82 1212 82 1226.5 150 c 128,-1,98
 1241 218 1241 218 1241 272 c 0,99,100
 1241 376 1241 376 1200.5 466.5 c 128,-1,101
 1160 557 1160 557 1091.5 626 c 128,-1,102
 1023 695 1023 695 932.5 734.5 c 128,-1,103
 842 774 842 774 742 774 c 0,104,105
 595 774 595 774 489 711.5 c 128,-1,106
 383 649 383 649 319 548 c 128,-1,107
 255 447 255 447 234.5 315.5 c 128,-1,108
 214 184 214 184 241 50 c 0,109,110
 259 -41 259 -41 307.5 -118.5 c 128,-1,111
 356 -196 356 -196 424 -251.5 c 128,-1,112
 492 -307 492 -307 575 -339 c 128,-1,113
 658 -371 658 -371 748 -371 c 0,114,115
 825 -371 825 -371 888 -353 c 128,-1,116
 951 -335 951 -335 1005 -303.5 c 128,-1,117
 1059 -272 1059 -272 1107.5 -227.5 c 128,-1,118
 1156 -183 1156 -183 1205 -130 c 0,119,120
 1212 -122 1212 -122 1232 -118.5 c 128,-1,121
 1252 -115 1252 -115 1242 -146 c 1,21,22
EndSplineSet
Validated: 37
EndChar

StartChar: bracketleft
Encoding: 91 91 36
Width: 872
GlyphClass: 2
Flags: W
LayerCount: 2
Fore
SplineSet
392 -471 m 1,0,-1
 761 -471 l 1,1,-1
 761 -645 l 1,2,-1
 390 -645 l 2,3,4
 319 -645 319 -645 271.5 -642 c 128,-1,5
 224 -639 224 -639 192.5 -619 c 128,-1,6
 161 -599 161 -599 148 -559 c 128,-1,7
 135 -519 135 -519 135 -449 c 0,8,9
 133 -317 133 -317 134 -161.5 c 128,-1,10
 135 -6 135 -6 135 162 c 0,11,12
 135 332 135 332 136 508 c 128,-1,13
 137 684 137 684 137 852 c 0,14,15
 137 1022 137 1022 137 1180 c 0,16,17
 137 1337 137 1337 135 1468 c 0,18,19
 135 1539 135 1539 148 1580 c 128,-1,20
 161 1621 161 1621 192.5 1642 c 128,-1,21
 224 1663 224 1663 271.5 1666 c 128,-1,22
 319 1669 319 1669 390 1669 c 2,23,-1
 763 1669 l 1,24,-1
 763 1495 l 1,25,-1
 395 1495 l 1,26,-1
 392 -471 l 1,0,-1
EndSplineSet
Validated: 33
EndChar

StartChar: backslash
Encoding: 92 92 37
Width: 1186
GlyphClass: 2
Flags: W
LayerCount: 2
Fore
SplineSet
847 -358 m 1,0,1
 777 -230 777 -230 718.5 -124.5 c 128,-1,2
 660 -19 660 -19 608 77 c 128,-1,3
 556 173 556 173 505.5 264 c 128,-1,4
 455 355 455 355 403 451.5 c 128,-1,5
 351 548 351 548 292.5 653.5 c 128,-1,6
 234 759 234 759 143 921 c 1,7,-1
 406 764 l 1,8,-1
 1112 -511 l 1,9,10
 1013 -452 1013 -452 966 -426.5 c 128,-1,11
 919 -401 919 -401 847 -358 c 1,0,1
EndSplineSet
Validated: 1
EndChar

StartChar: bracketright
Encoding: 93 93 38
Width: 885
GlyphClass: 2
Flags: W
LayerCount: 2
Fore
SplineSet
512 1512 m 1,0,-1
 143 1512 l 1,1,-1
 143 1685 l 1,2,-1
 517 1685 l 2,3,4
 587 1685 587 1685 635 1682 c 128,-1,5
 683 1679 683 1679 714.5 1658 c 128,-1,6
 746 1637 746 1637 758.5 1596 c 128,-1,7
 771 1555 771 1555 771 1485 c 0,8,9
 769 1352 769 1352 769 1194 c 0,10,11
 769 1038 769 1038 769 868 c 0,12,13
 769 700 769 700 770 524 c 128,-1,14
 771 348 771 348 771 178 c 0,15,16
 771 10 771 10 771 -145 c 0,17,18
 771 -301 771 -301 771 -432 c 0,19,20
 771 -503 771 -503 758.5 -543 c 128,-1,21
 746 -583 746 -583 714.5 -602.5 c 128,-1,22
 683 -622 683 -622 635 -625 c 128,-1,23
 587 -628 587 -628 517 -628 c 2,24,-1
 145 -628 l 1,25,-1
 145 -455 l 1,26,-1
 514 -455 l 1,27,-1
 512 1512 l 1,0,-1
EndSplineSet
Validated: 1
EndChar

StartChar: asciicircum
Encoding: 94 94 39
Width: 1004
GlyphClass: 2
Flags: W
LayerCount: 2
Fore
SplineSet
749 541 m 1,0,-1
 522 908 l 1,1,-1
 298 541 l 1,2,-1
 143 541 l 1,3,-1
 524 1154 l 1,4,-1
 904 541 l 1,5,-1
 749 541 l 1,0,-1
EndSplineSet
Validated: 1
EndChar

StartChar: underscore
Encoding: 95 95 40
Width: 1491
GlyphClass: 2
Flags: W
LayerCount: 2
Fore
SplineSet
143 8 m 1,0,1
 277 8 277 8 435 8 c 0,2,3
 595 8 595 8 763 8 c 0,4,5
 930 8 930 8 1088 8 c 256,6,7
 1246 8 1246 8 1378 8 c 1,8,-1
 1378 -137 l 1,9,-1
 143 -135 l 1,10,-1
 143 8 l 1,0,1
EndSplineSet
Validated: 1
EndChar

StartChar: quotesingle.001
Encoding: 96 96 41
Width: 449
GlyphClass: 2
Flags: W
LayerCount: 2
Fore
SplineSet
364 1169 m 1,0,1
 293 1274 293 1274 257 1320.5 c 128,-1,2
 221 1367 221 1367 195 1393 c 128,-1,3
 169 1419 169 1419 149 1434.5 c 128,-1,4
 129 1450 129 1450 106 1471 c 0,5,6
 103 1477 103 1477 97.5 1491.5 c 128,-1,7
 92 1506 92 1506 89 1520.5 c 128,-1,8
 86 1535 86 1535 85 1549 c 128,-1,9
 84 1563 84 1563 90 1569 c 0,10,11
 108 1583 108 1583 136.5 1566 c 128,-1,12
 165 1549 165 1549 193 1523.5 c 128,-1,13
 221 1498 221 1498 251 1463.5 c 128,-1,14
 281 1429 281 1429 301 1394 c 0,15,16
 330 1344 330 1344 358.5 1289.5 c 128,-1,17
 387 1235 387 1235 364 1169 c 1,0,1
EndSplineSet
Validated: 33
EndChar

StartChar: braceleft
Encoding: 123 123 42
Width: 979
GlyphClass: 2
Flags: W
LayerCount: 2
Fore
SplineSet
871 -519 m 2,0,1
 899 -532 899 -532 879.5 -541 c 128,-1,2
 860 -550 860 -550 843 -553.5 c 128,-1,3
 826 -557 826 -557 810 -558 c 128,-1,4
 794 -559 794 -559 791 -559 c 0,5,6
 678 -559 678 -559 596.5 -524.5 c 128,-1,7
 515 -490 515 -490 463.5 -429 c 128,-1,8
 412 -368 412 -368 388 -283 c 128,-1,9
 364 -198 364 -198 364 -92 c 0,10,11
 364 -74 364 -74 366 -16.5 c 128,-1,12
 368 41 368 41 370 106.5 c 128,-1,13
 372 172 372 172 374 230.5 c 128,-1,14
 376 289 376 289 376 311 c 0,15,16
 378 351 378 351 363.5 388 c 128,-1,17
 349 425 349 425 322 456.5 c 128,-1,18
 295 488 295 488 261.5 510.5 c 128,-1,19
 228 533 228 533 160 554 c 1,20,21
 212 568 212 568 246 589 c 128,-1,22
 280 610 280 610 313 643 c 128,-1,23
 346 676 346 676 365 716.5 c 128,-1,24
 384 757 384 757 376 799 c 0,25,26
 376 819 376 819 374 878.5 c 128,-1,27
 372 938 372 938 370 1003.5 c 128,-1,28
 368 1069 368 1069 366 1126.5 c 128,-1,29
 364 1184 364 1184 364 1202 c 0,30,31
 364 1308 364 1308 388 1393 c 128,-1,32
 412 1478 412 1478 463.5 1539 c 128,-1,33
 515 1600 515 1600 596.5 1634.5 c 128,-1,34
 678 1669 678 1669 791 1669 c 0,35,36
 794 1669 794 1669 810 1668 c 128,-1,37
 826 1667 826 1667 843 1663.5 c 128,-1,38
 860 1660 860 1660 879.5 1651 c 128,-1,39
 899 1642 899 1642 871 1629 c 2,40,-1
 816 1611 l 1,41,42
 714 1570 714 1570 673 1487 c 128,-1,43
 632 1404 632 1404 627 1294 c 0,44,45
 625 1243 625 1243 626 1176.5 c 128,-1,46
 627 1110 627 1110 624 1038.5 c 128,-1,47
 621 967 621 967 612 894.5 c 128,-1,48
 603 822 603 822 581.5 759.5 c 128,-1,49
 560 697 560 697 522 648 c 128,-1,50
 484 599 484 599 424 576 c 0,51,52
 400 564 400 564 368 556.5 c 128,-1,53
 336 549 336 549 374 555 c 1,54,55
 336 561 336 561 368 553.5 c 128,-1,56
 400 546 400 546 424 535 c 0,57,58
 486 511 486 511 525 462 c 128,-1,59
 564 413 564 413 584.5 349.5 c 128,-1,60
 605 286 605 286 613 214.5 c 128,-1,61
 621 143 621 143 624 71.5 c 128,-1,62
 627 0 627 0 626 -66.5 c 128,-1,63
 625 -133 625 -133 627 -184 c 0,64,65
 632 -294 632 -294 673 -377 c 128,-1,66
 714 -460 714 -460 816 -501 c 1,67,-1
 871 -519 l 2,0,1
EndSplineSet
Validated: 37
EndChar

StartChar: bar
Encoding: 124 124 43
Width: 492
GlyphClass: 2
Flags: W
LayerCount: 2
Fore
SplineSet
182 -577 m 1,0,-1
 182 1425 l 1,1,-1
 337 1425 l 1,2,-1
 335 -577 l 1,3,-1
 182 -577 l 1,0,-1
EndSplineSet
Validated: 1
EndChar

StartChar: braceright
Encoding: 125 125 44
Width: 885
GlyphClass: 2
Flags: W
LayerCount: 2
Fore
SplineSet
182 -526 m 2,0,-1
 237 -507 l 1,1,2
 340 -466 340 -466 380.5 -383 c 128,-1,3
 421 -300 421 -300 425 -190 c 0,4,5
 427 -113 427 -113 426 -5.5 c 128,-1,6
 425 102 425 102 439.5 208.5 c 128,-1,7
 454 315 454 315 495 403.5 c 128,-1,8
 536 492 536 492 629 529 c 0,9,10
 653 539 653 539 685 547 c 128,-1,11
 717 555 717 555 678 549 c 1,12,13
 717 543 717 543 685 550.5 c 128,-1,14
 653 558 653 558 629 570 c 0,15,16
 568 593 568 593 529.5 642 c 128,-1,17
 491 691 491 691 470.5 753.5 c 128,-1,18
 450 816 450 816 440.5 888.5 c 128,-1,19
 431 961 431 961 428 1032.5 c 128,-1,20
 425 1104 425 1104 426 1170.5 c 128,-1,21
 427 1237 427 1237 425 1288 c 0,22,23
 421 1398 421 1398 380.5 1481 c 128,-1,24
 340 1564 340 1564 237 1605 c 1,25,-1
 182 1623 l 2,26,27
 148 1635 148 1635 170.5 1644.5 c 128,-1,28
 193 1654 193 1654 210 1657.5 c 128,-1,29
 227 1661 227 1661 243 1662 c 128,-1,30
 259 1663 259 1663 261 1663 c 0,31,32
 374 1663 374 1663 455.5 1628.5 c 128,-1,33
 537 1594 537 1594 589 1532.5 c 128,-1,34
 641 1471 641 1471 664.5 1386 c 128,-1,35
 688 1301 688 1301 688 1196 c 0,36,37
 688 1178 688 1178 686 1120.5 c 128,-1,38
 684 1063 684 1063 682 997.5 c 128,-1,39
 680 932 680 932 678 872.5 c 128,-1,40
 676 813 676 813 676 793 c 0,41,42
 669 751 669 751 689.5 710.5 c 128,-1,43
 710 670 710 670 740.5 637 c 128,-1,44
 771 604 771 604 806 583 c 128,-1,45
 841 562 841 562 893 548 c 1,46,47
 825 527 825 527 791 504 c 128,-1,48
 757 481 757 481 730 450 c 128,-1,49
 703 419 703 419 688.5 382 c 128,-1,50
 674 345 674 345 676 305 c 0,51,52
 676 283 676 283 678 224.5 c 128,-1,53
 680 166 680 166 682 100.5 c 128,-1,54
 684 35 684 35 686 -22.5 c 128,-1,55
 688 -80 688 -80 688 -98 c 0,56,57
 688 -204 688 -204 664.5 -289 c 128,-1,58
 641 -374 641 -374 589 -435 c 128,-1,59
 537 -496 537 -496 455.5 -530.5 c 128,-1,60
 374 -565 374 -565 261 -565 c 0,61,62
 259 -565 259 -565 243 -564 c 128,-1,63
 227 -563 227 -563 210 -559.5 c 128,-1,64
 193 -556 193 -556 170 -547.5 c 128,-1,65
 147 -539 147 -539 182 -526 c 2,0,-1
EndSplineSet
Validated: 37
EndChar

StartChar: asciitilde
Encoding: 126 126 45
Width: 928
GlyphClass: 2
Flags: W
LayerCount: 2
Fore
SplineSet
372 325 m 0,0,1
 396 325 396 325 414 317.5 c 128,-1,2
 432 310 432 310 450.5 303 c 128,-1,3
 469 296 469 296 486 289 c 128,-1,4
 503 282 503 282 524 282 c 0,5,6
 600 282 600 282 663.5 312.5 c 128,-1,7
 727 343 727 343 829 435 c 1,8,9
 792 339 792 339 759 298.5 c 128,-1,10
 726 258 726 258 682 228.5 c 128,-1,11
 638 199 638 199 587.5 181.5 c 128,-1,12
 537 164 537 164 483 164 c 0,13,14
 452 164 452 164 427.5 173 c 128,-1,15
 403 182 403 182 382 193.5 c 128,-1,16
 361 205 361 205 345 212 c 128,-1,17
 329 219 329 219 313 219 c 0,18,19
 292 219 292 219 278.5 212.5 c 128,-1,20
 265 206 265 206 253 195.5 c 128,-1,21
 241 185 241 185 230 171 c 128,-1,22
 219 157 219 157 164 102 c 1,23,24
 187 178 187 178 205 207.5 c 128,-1,25
 223 237 223 237 247 263 c 128,-1,26
 271 289 271 289 302.5 307 c 128,-1,27
 334 325 334 325 372 325 c 0,0,1
EndSplineSet
Validated: 1
EndChar

StartChar: Jallah
Encoding: 161 161 48
Width: 0
GlyphClass: 4
Flags: W
AnchorPoint: "Anchor-39" 0 81 mark 0
AnchorPoint: "Anchor-37" 0 81 mark 0
LayerCount: 2
Fore
SplineSet
68 377 m 0,0,1
 59 377 59 377 50.5 370 c 128,-1,2
 42 363 42 363 36 349.5 c 128,-1,3
 30 336 30 336 26 322.5 c 128,-1,4
 22 309 22 309 23 314 c 1,5,6
 28 313 28 313 65 329 c 128,-1,7
 102 345 102 345 116 363 c 1,8,9
 112 364 112 364 96.5 370.5 c 128,-1,10
 81 377 81 377 68 377 c 0,0,1
57 100 m 0,11,12
 57 111 57 111 66 125 c 128,-1,13
 75 139 75 139 87 153 c 128,-1,14
 99 167 99 167 113 178.5 c 128,-1,15
 127 190 127 190 142 190 c 2,16,-1
 155 190 l 1,17,18
 172 176 172 176 191 158 c 128,-1,19
 210 140 210 140 231 127 c 1,20,-1
 231 121 l 2,21,22
 231 113 231 113 220.5 99.5 c 128,-1,23
 210 86 210 86 198 72 c 128,-1,24
 186 58 186 58 173.5 46.5 c 128,-1,25
 161 35 161 35 155 31 c 2,26,-1
 150 25 l 1,27,28
 132 25 132 25 118 35 c 128,-1,29
 104 45 104 45 91.5 56 c 128,-1,30
 79 67 79 67 68 79.5 c 128,-1,31
 57 92 57 92 57 100 c 0,11,12
-111 143 m 0,32,33
 -111 182 -111 182 -116 218 c 128,-1,34
 -121 254 -121 254 -123 293 c 0,35,36
 -123 301 -123 301 -119 324 c 128,-1,37
 -115 347 -115 347 -108.5 371 c 128,-1,38
 -102 395 -102 395 -93 416.5 c 128,-1,39
 -84 438 -84 438 -50 438 c 1,40,41
 -50 418 -50 418 -50 399 c 0,42,43
 -50 384 -50 384 -45 366.5 c 128,-1,44
 -40 349 -40 349 -31.5 336 c 128,-1,45
 -23 323 -23 323 -24 323 c 128,-1,46
 -25 323 -25 323 -20.5 338.5 c 128,-1,47
 -16 354 -16 354 -3.5 380 c 128,-1,48
 9 406 9 406 30 432 c 128,-1,49
 51 458 51 458 86 461 c 0,50,51
 109 461 109 461 126.5 452.5 c 128,-1,52
 144 444 144 444 156 444 c 0,53,54
 159 444 159 444 165 450 c 128,-1,55
 171 456 171 456 187 456 c 0,56,57
 205 456 205 456 209.5 448.5 c 128,-1,58
 214 441 214 441 210 424 c 0,59,60
 185 370 185 370 160 323.5 c 128,-1,61
 135 277 135 277 106 243.5 c 128,-1,62
 77 210 77 210 39 193.5 c 128,-1,63
 1 177 1 177 -34 185 c 1,64,65
 -38 149 -38 149 -43 114 c 128,-1,66
 -48 79 -48 79 -60 33 c 0,67,68
 -64 21 -64 21 -71.5 5.5 c 128,-1,69
 -79 -10 -79 -10 -119 -17 c 1,70,71
 -119 33 -119 33 -115 69.5 c 128,-1,72
 -111 106 -111 106 -111 143 c 0,32,33
EndSplineSet
Validated: 37
EndChar

StartChar: uni0600
Encoding: 1536 1536 49
Width: 1134
GlyphClass: 2
Flags: W
LayerCount: 2
Fore
SplineSet
356 216 m 0,0,1
 412 295 412 295 484 355 c 128,-1,2
 556 415 556 415 639 440 c 0,3,4
 659 449 659 449 667.5 440.5 c 128,-1,5
 676 432 676 432 676 423 c 0,6,7
 676 416 676 416 673 408 c 128,-1,8
 670 400 670 400 667 396 c 0,9,10
 644 369 644 369 613 333.5 c 128,-1,11
 582 298 582 298 550.5 259.5 c 128,-1,12
 519 221 519 221 492 181.5 c 128,-1,13
 465 142 465 142 451 107 c 0,14,15
 433 63 433 63 444 24 c 128,-1,16
 455 -15 455 -15 485.5 -48.5 c 128,-1,17
 516 -82 516 -82 560.5 -109.5 c 128,-1,18
 605 -137 605 -137 654 -158 c 128,-1,19
 703 -179 703 -179 750 -192.5 c 128,-1,20
 797 -206 797 -206 832 -212 c 0,21,22
 854 -215 854 -215 858.5 -224 c 128,-1,23
 863 -233 863 -233 860.5 -241.5 c 128,-1,24
 858 -250 858 -250 854 -257.5 c 128,-1,25
 850 -265 850 -265 850 -272 c 1,26,27
 828 -298 828 -298 813 -310.5 c 128,-1,28
 798 -323 798 -323 784.5 -333 c 128,-1,29
 771 -343 771 -343 757 -354.5 c 128,-1,30
 743 -366 743 -366 726 -386 c 0,31,32
 723 -395 723 -395 715 -402.5 c 128,-1,33
 707 -410 707 -410 683 -410 c 0,34,35
 636 -403 636 -403 586 -387.5 c 128,-1,36
 536 -372 536 -372 485 -360 c 128,-1,37
 434 -348 434 -348 385 -344 c 128,-1,38
 336 -340 336 -340 290 -354 c 0,39,40
 141 -400 141 -400 6 -433 c 128,-1,41
 -129 -466 -129 -466 -255.5 -486 c 128,-1,42
 -382 -506 -382 -506 -504 -515.5 c 128,-1,43
 -626 -525 -626 -525 -750 -525 c 0,44,45
 -877 -525 -877 -525 -1005.5 -517 c 128,-1,46
 -1134 -509 -1134 -509 -1279 -495 c 0,47,48
 -1380 -486 -1380 -486 -1471.5 -476 c 128,-1,49
 -1563 -466 -1563 -466 -1652.5 -451 c 128,-1,50
 -1742 -436 -1742 -436 -1832.5 -412 c 128,-1,51
 -1923 -388 -1923 -388 -2022 -352 c 0,52,53
 -2091 -327 -2091 -327 -2128.5 -311 c 128,-1,54
 -2166 -295 -2166 -295 -2162 -280.5 c 128,-1,55
 -2158 -266 -2158 -266 -2114 -264.5 c 128,-1,56
 -2070 -263 -2070 -263 -1995 -264 c 0,57,58
 -1853 -267 -1853 -267 -1728.5 -269.5 c 128,-1,59
 -1604 -272 -1604 -272 -1492.5 -274.5 c 128,-1,60
 -1381 -277 -1381 -277 -1280 -278 c 128,-1,61
 -1179 -279 -1179 -279 -1084 -279 c 0,62,63
 -980 -279 -980 -279 -879 -277 c 128,-1,64
 -778 -275 -778 -275 -677 -269.5 c 128,-1,65
 -576 -264 -576 -264 -470 -256 c 128,-1,66
 -364 -248 -364 -248 -248 -235.5 c 128,-1,67
 -132 -223 -132 -223 -3 -206 c 128,-1,68
 126 -189 126 -189 261 -169 c 1,69,70
 259 -129 259 -129 263 -76.5 c 128,-1,71
 267 -24 267 -24 278.5 28 c 128,-1,72
 290 80 290 80 309 128 c 128,-1,73
 328 176 328 176 356 216 c 0,0,1
EndSplineSet
Validated: 33
EndChar

StartChar: uni0601
Encoding: 1537 1537 50
Width: 940
GlyphClass: 2
Flags: W
LayerCount: 2
Fore
SplineSet
-2671 -517 m 1,0,1
 -2656 -486 -2656 -486 -2670.5 -519.5 c 128,-1,2
 -2685 -553 -2685 -553 -2700 -590 c 128,-1,3
 -2715 -627 -2715 -627 -2728.5 -660 c 128,-1,4
 -2742 -693 -2742 -693 -2748 -705 c 0,5,6
 -2765 -749 -2765 -749 -2794.5 -792 c 128,-1,7
 -2824 -835 -2824 -835 -2864.5 -869 c 128,-1,8
 -2905 -903 -2905 -903 -2954 -923.5 c 128,-1,9
 -3003 -944 -3003 -944 -3058 -944 c 0,10,11
 -3116 -944 -3116 -944 -3166.5 -918 c 128,-1,12
 -3217 -892 -3217 -892 -3265 -876 c 0,13,14
 -3289 -867 -3289 -867 -3317 -871.5 c 128,-1,15
 -3345 -876 -3345 -876 -3374 -889.5 c 128,-1,16
 -3403 -903 -3403 -903 -3431 -921.5 c 128,-1,17
 -3459 -940 -3459 -940 -3478 -958 c 0,18,19
 -3524 -1005 -3524 -1005 -3560 -1044 c 128,-1,20
 -3596 -1083 -3596 -1083 -3674 -1161 c 1,21,22
 -3646 -1031 -3646 -1031 -3609 -937 c 128,-1,23
 -3572 -843 -3572 -843 -3513.5 -764 c 128,-1,24
 -3455 -685 -3455 -685 -3376 -629.5 c 128,-1,25
 -3297 -574 -3297 -574 -3196 -568 c 0,26,27
 -3166 -566 -3166 -566 -3137.5 -577 c 128,-1,28
 -3109 -588 -3109 -588 -3085 -601.5 c 128,-1,29
 -3061 -615 -3061 -615 -3040 -625 c 128,-1,30
 -3019 -635 -3019 -635 -3001 -635 c 0,31,32
 -2942 -635 -2942 -635 -2896 -610 c 128,-1,33
 -2850 -585 -2850 -585 -2811 -544.5 c 128,-1,34
 -2772 -504 -2772 -504 -2738.5 -455 c 128,-1,35
 -2705 -406 -2705 -406 -2675 -361 c 0,36,37
 -2652 -330 -2652 -330 -2616 -311 c 128,-1,38
 -2580 -292 -2580 -292 -2538 -298 c 1,39,40
 -2379 -344 -2379 -344 -2254.5 -374 c 128,-1,41
 -2130 -404 -2130 -404 -2019.5 -421.5 c 128,-1,42
 -1909 -439 -1909 -439 -1803.5 -444 c 128,-1,43
 -1698 -449 -1698 -449 -1577.5 -446 c 128,-1,44
 -1457 -443 -1457 -443 -1313.5 -430.5 c 128,-1,45
 -1170 -418 -1170 -418 -983 -400 c 0,46,47
 -886 -392 -886 -392 -773 -369.5 c 128,-1,48
 -660 -347 -660 -347 -544.5 -316.5 c 128,-1,49
 -429 -286 -429 -286 -318 -249.5 c 128,-1,50
 -207 -213 -207 -213 -112 -176 c 0,51,52
 122 -91 122 -91 304.5 45.5 c 128,-1,53
 487 182 487 182 649 371 c 0,54,55
 651 378 651 378 661.5 385.5 c 128,-1,56
 672 393 672 393 683.5 396.5 c 128,-1,57
 695 400 695 400 707 395.5 c 128,-1,58
 719 391 719 391 719 372 c 0,59,60
 719 343 719 343 698 305 c 128,-1,61
 677 267 677 267 667 246 c 0,62,63
 606 129 606 129 516.5 28 c 128,-1,64
 427 -73 427 -73 323.5 -159 c 128,-1,65
 220 -245 220 -245 105.5 -317.5 c 128,-1,66
 -9 -390 -9 -390 -122 -455 c 1,67,68
 -508 -622 -508 -622 -916.5 -701 c 128,-1,69
 -1325 -780 -1325 -780 -1741 -780 c 0,70,71
 -1883 -780 -1883 -780 -2018 -772 c 128,-1,72
 -2153 -764 -2153 -764 -2288 -748 c 0,73,74
 -2358 -739 -2358 -739 -2422.5 -724.5 c 128,-1,75
 -2487 -710 -2487 -710 -2540 -678.5 c 128,-1,76
 -2593 -647 -2593 -647 -2629 -597 c 128,-1,77
 -2665 -547 -2665 -547 -2671 -517 c 1,0,1
-3705 -221 m 1,78,79
 -3709 -219 -3709 -219 -3733 -204 c 128,-1,80
 -3757 -189 -3757 -189 -3777 -157 c 0,81,82
 -3802 -119 -3802 -119 -3777 -79 c 0,83,84
 -3771 -69 -3771 -69 -3756.5 -46.5 c 128,-1,85
 -3742 -24 -3742 -24 -3726 2 c 128,-1,86
 -3710 28 -3710 28 -3695.5 49.5 c 128,-1,87
 -3681 71 -3681 71 -3674 79 c 0,88,89
 -3653 109 -3653 109 -3616.5 139 c 128,-1,90
 -3580 169 -3580 169 -3536 169 c 0,91,92
 -3506 169 -3506 169 -3471.5 151.5 c 128,-1,93
 -3437 134 -3437 134 -3437 98 c 0,94,95
 -3437 71 -3437 71 -3462 54 c 128,-1,96
 -3487 37 -3487 37 -3513 37 c 0,97,98
 -3537 37 -3537 37 -3552 49 c 128,-1,99
 -3567 61 -3567 61 -3585 61 c 0,100,101
 -3605 61 -3605 61 -3625 50.5 c 128,-1,102
 -3645 40 -3645 40 -3648 13 c 0,103,104
 -3650 4 -3650 4 -3640 -8.5 c 128,-1,105
 -3630 -21 -3630 -21 -3613 -33.5 c 128,-1,106
 -3596 -46 -3596 -46 -3577 -53 c 128,-1,107
 -3558 -60 -3558 -60 -3546 -60 c 0,108,109
 -3503 -53 -3503 -53 -3465.5 -24.5 c 128,-1,110
 -3428 4 -3428 4 -3390 29 c 0,111,112
 -3264 109 -3264 109 -3355 -11 c 0,113,114
 -3390 -57 -3390 -57 -3431 -92 c 128,-1,115
 -3472 -127 -3472 -127 -3514 -159 c 128,-1,116
 -3556 -191 -3556 -191 -3597 -226 c 128,-1,117
 -3638 -261 -3638 -261 -3676 -309 c 0,118,119
 -3685 -318 -3685 -318 -3696.5 -336 c 128,-1,120
 -3708 -354 -3708 -354 -3724 -387 c 0,121,122
 -3729 -404 -3729 -404 -3750 -423 c 128,-1,123
 -3771 -442 -3771 -442 -3784 -411 c 1,124,125
 -3788 -356 -3788 -356 -3760 -305.5 c 128,-1,126
 -3732 -255 -3732 -255 -3705 -221 c 1,78,79
EndSplineSet
Validated: 37
EndChar

StartChar: uni0602
Encoding: 1538 1538 51
Width: 0
GlyphClass: 4
Flags: W
LayerCount: 2
Fore
SplineSet
-675 150 m 1,0,1
 -695 148 -695 148 -718.5 130.5 c 128,-1,2
 -742 113 -742 113 -756 100 c 1,3,4
 -754 95 -754 95 -741 85.5 c 128,-1,5
 -728 76 -728 76 -710.5 68 c 128,-1,6
 -693 60 -693 60 -677 55.5 c 128,-1,7
 -661 51 -661 51 -664 51 c 0,8,9
 -666 46 -666 46 -665 65 c 128,-1,10
 -664 84 -664 84 -666 105 c 128,-1,11
 -668 126 -668 126 -672 138 c 128,-1,12
 -676 150 -676 150 -675 150 c 1,0,1
-615 43 m 1,13,14
 -590 37 -590 37 -555 37 c 0,15,16
 -516 37 -516 37 -481 37 c 0,17,18
 -373 41 -373 41 -274.5 55 c 128,-1,19
 -176 69 -176 69 -79 91 c 0,20,21
 -23 106 -23 106 -34.5 88.5 c 128,-1,22
 -46 71 -46 71 -70 53 c 1,23,24
 -187 -3 -187 -3 -305 -30 c 128,-1,25
 -423 -57 -423 -57 -551 -61 c 0,26,27
 -573 -61 -573 -61 -619 -59 c 128,-1,28
 -665 -57 -665 -57 -711 -46.5 c 128,-1,29
 -757 -36 -757 -36 -795.5 -13 c 128,-1,30
 -834 10 -834 10 -836 51 c 0,31,32
 -834 80 -834 80 -814 118 c 128,-1,33
 -794 156 -794 156 -765.5 190.5 c 128,-1,34
 -737 225 -737 225 -704.5 250 c 128,-1,35
 -672 275 -672 275 -638 280 c 1,36,37
 -599 280 -599 280 -587 250 c 128,-1,38
 -575 220 -575 220 -575 197 c 0,39,40
 -575 153 -575 153 -588 114.5 c 128,-1,41
 -601 76 -601 76 -615 43 c 1,13,14
EndSplineSet
Validated: 5
EndChar

StartChar: uni0603
Encoding: 1539 1539 52
Width: 1213
GlyphClass: 2
Flags: W
LayerCount: 2
Fore
SplineSet
812 196 m 1,0,1
 803 196 803 196 838.5 200.5 c 128,-1,2
 874 205 874 205 913.5 217 c 128,-1,3
 953 229 953 229 988.5 250.5 c 128,-1,4
 1024 272 1024 272 1041 301 c 1,5,6
 1029 328 1029 328 993.5 335.5 c 128,-1,7
 958 343 958 343 935 328 c 0,8,9
 890 307 890 307 860.5 264 c 128,-1,10
 831 221 831 221 812 196 c 1,0,1
330 -10 m 0,11,12
 278 -10 278 -10 241.5 -9 c 128,-1,13
 205 -8 205 -8 152 0 c 0,14,15
 106 8 106 8 104.5 28 c 128,-1,16
 103 48 103 48 156 61 c 1,17,18
 257 78 257 78 352.5 98 c 128,-1,19
 448 118 448 118 547 166 c 0,20,21
 575 183 575 183 590.5 196.5 c 128,-1,22
 606 210 606 210 616.5 221 c 128,-1,23
 627 232 627 232 634.5 241 c 128,-1,24
 642 250 642 250 660 254 c 0,25,26
 677 254 677 254 687 244.5 c 128,-1,27
 697 235 697 235 706 226.5 c 128,-1,28
 715 218 715 218 728 210.5 c 128,-1,29
 741 203 741 203 755 203 c 1,30,31
 755 203 755 203 765 219 c 128,-1,32
 775 235 775 235 787.5 252.5 c 128,-1,33
 800 270 800 270 810 286 c 128,-1,34
 820 302 820 302 824 309 c 0,35,36
 836 328 836 328 854 349 c 128,-1,37
 872 370 872 370 893.5 389 c 128,-1,38
 915 408 915 408 941.5 422 c 128,-1,39
 968 436 968 436 998 436 c 0,40,41
 1049 436 1049 436 1075 405.5 c 128,-1,42
 1101 375 1101 375 1101 332 c 0,43,44
 1101 265 1101 265 1072.5 206.5 c 128,-1,45
 1044 148 1044 148 997.5 103.5 c 128,-1,46
 951 59 951 59 887 32.5 c 128,-1,47
 823 6 823 6 755 6 c 0,48,49
 669 8 669 8 635.5 45.5 c 128,-1,50
 602 83 602 83 599 111 c 1,51,52
 591 99 591 99 564.5 71.5 c 128,-1,53
 538 44 538 44 504.5 26.5 c 128,-1,54
 471 9 471 9 430.5 0.5 c 128,-1,55
 390 -8 390 -8 330 -10 c 0,11,12
EndSplineSet
Validated: 5
EndChar

StartChar: uni060C
Encoding: 1548 1548 53
Width: 514
GlyphClass: 2
Flags: W
LayerCount: 2
Fore
SplineSet
444 216 m 1,0,1
 446 100 446 100 400.5 38.5 c 128,-1,2
 355 -23 355 -23 293 -32.5 c 128,-1,3
 231 -42 231 -42 178 2 c 128,-1,4
 125 46 125 46 117 130 c 0,5,6
 109 201 109 201 135 288 c 128,-1,7
 161 375 161 375 212 467 c 1,8,9
 224 501 224 501 253 535 c 128,-1,10
 282 569 282 569 313 592 c 128,-1,11
 344 615 344 615 358.5 598 c 128,-1,12
 373 581 373 581 346 525 c 0,13,14
 334 501 334 501 309 455.5 c 128,-1,15
 284 410 284 410 266.5 358 c 128,-1,16
 249 306 249 306 249 256 c 0,17,18
 249 210 249 210 283 182 c 0,19,20
 287 179 287 179 290.5 182.5 c 128,-1,21
 294 186 294 186 305 217 c 0,22,23
 313 236 313 236 331 248 c 128,-1,24
 349 260 349 260 372 261 c 128,-1,25
 395 262 395 262 414.5 250 c 128,-1,26
 434 238 434 238 444 216 c 1,0,1
EndSplineSet
Validated: 33
EndChar

StartChar: uni060D
Encoding: 1549 1549 54
Width: 216
GlyphClass: 2
Flags: W
LayerCount: 2
Fore
SplineSet
397 1307 m 0,0,1
 397 1300 397 1300 392.5 1283 c 128,-1,2
 388 1266 388 1266 380.5 1246.5 c 128,-1,3
 373 1227 373 1227 363.5 1207.5 c 128,-1,4
 354 1188 354 1188 344 1178 c 0,5,6
 328 1155 328 1155 310 1158.5 c 128,-1,7
 292 1162 292 1162 279 1175 c 0,8,9
 270 1184 270 1184 260.5 1183 c 128,-1,10
 251 1182 251 1182 239.5 1175 c 128,-1,11
 228 1168 228 1168 215.5 1155 c 128,-1,12
 203 1142 203 1142 191 1130 c 0,13,14
 162 1101 162 1101 136.5 1062 c 128,-1,15
 111 1023 111 1023 83 987 c 0,16,17
 62 960 62 960 45 969 c 128,-1,18
 28 978 28 978 35 1000 c 0,19,20
 50 1062 50 1062 83.5 1120.5 c 128,-1,21
 117 1179 117 1179 155 1230 c 0,22,23
 171 1251 171 1251 190.5 1274 c 128,-1,24
 210 1297 210 1297 233.5 1315 c 128,-1,25
 257 1333 257 1333 286 1344 c 128,-1,26
 315 1355 315 1355 351 1353 c 1,27,28
 397 1343 397 1343 397 1307 c 0,0,1
EndSplineSet
Validated: 33
EndChar

StartChar: uni060E
Encoding: 1550 1550 55
Width: 938
GlyphClass: 2
Flags: W
LayerCount: 2
Fore
SplineSet
236 150 m 1,0,1
 215 148 215 148 192 130.5 c 128,-1,2
 169 113 169 113 155 100 c 1,3,4
 157 94 157 94 170 85 c 128,-1,5
 183 76 183 76 200 68 c 128,-1,6
 217 60 217 60 233.5 55.5 c 128,-1,7
 250 51 250 51 246 51 c 0,8,9
 244 46 244 46 245 65 c 128,-1,10
 246 84 246 84 244 105 c 128,-1,11
 242 126 242 126 238.5 138 c 128,-1,12
 235 150 235 150 236 150 c 1,0,1
296 43 m 1,13,14
 321 37 321 37 356 37 c 0,15,16
 395 37 395 37 429 37 c 0,17,18
 538 41 538 41 636.5 55 c 128,-1,19
 735 69 735 69 832 91 c 0,20,21
 888 107 888 107 876 89 c 128,-1,22
 864 71 864 71 841 54 c 1,23,24
 724 -3 724 -3 606 -30 c 128,-1,25
 488 -57 488 -57 360 -61 c 0,26,27
 337 -61 337 -61 291.5 -59 c 128,-1,28
 246 -57 246 -57 200 -46.5 c 128,-1,29
 154 -36 154 -36 115 -13 c 128,-1,30
 76 10 76 10 74 51 c 0,31,32
 76 80 76 80 96 118 c 128,-1,33
 116 156 116 156 145 190.5 c 128,-1,34
 174 225 174 225 206.5 250 c 128,-1,35
 239 275 239 275 273 280 c 1,36,37
 311 280 311 280 323.5 250 c 128,-1,38
 336 220 336 220 336 197 c 0,39,40
 336 153 336 153 322.5 114.5 c 128,-1,41
 309 76 309 76 296 43 c 1,13,14
EndSplineSet
Validated: 5
EndChar

StartChar: uni060F
Encoding: 1551 1551 56
Width: 1112
GlyphClass: 2
Flags: W
LayerCount: 2
Fore
SplineSet
887 356 m 0,1,2
 897 370 897 370 907 384 c 1,3,-1
 998 451 l 1,4,5
 985 402 985 402 979 387 c 0,6,7
 971 365 971 365 960 341 c 0,8,9
 946 309 946 309 927 277 c 0,10,11
 896 223 896 223 858.5 175.5 c 128,-1,12
 821 128 821 128 788 93 c 0,13,14
 729 34 729 34 655.5 -4.5 c 128,-1,15
 582 -43 582 -43 493 -43 c 0,16,17
 434 -43 434 -43 381 -21 c 0,18,19
 348 -8 348 -8 319 10 c 0,20,21
 308 18 308 18 295 27 c 2,22,-1
 294 28 l 2,23,24
 290 31 290 31 285 36 c 1,25,26
 285 36 285 36 302 27 c 1,27,28
 307 35 307 35 304 29 c 0,29,30
 296 15 296 15 285 -6 c 0,31,32
 267 -38 267 -38 248 -72 c 0,33,34
 238 -90 238 -90 229 -107 c 256,35,36
 220 -124 220 -124 213 -137 c 0,37,38
 196 -167 196 -167 188 -179 c 0,39,40
 184 -187 184 -187 176 -199 c 128,-1,41
 168 -211 168 -211 157 -223 c 128,-1,42
 146 -235 146 -235 132 -244.5 c 128,-1,43
 118 -254 118 -254 80 -254 c 1,44,45
 101 -204 101 -204 142 -125 c 0,46,47
 182 -47 182 -47 250 80 c 0,48,49
 251 83 251 83 251 83 c 1,50,-1
 251 78 l 1,51,52
 251 78 251 78 250 81 c 0,53,54
 242 94 242 94 235 108 c 1,55,-1
 235 109 l 1,56,57
 208 161 208 161 197 219 c 0,58,59
 191 255 191 255 191 291 c 0,60,61
 191 361 191 361 204 432 c 0,62,63
 215 486 215 486 233 541 c 0,64,65
 276 665 276 665 348 759 c 1,66,67
 334 770 334 770 304.5 797 c 128,-1,68
 275 824 275 824 275 858 c 0,69,70
 275 901 275 901 298 931.5 c 128,-1,71
 321 962 321 962 344 991 c 0,72,73
 358 1015 358 1015 375.5 1043 c 128,-1,74
 393 1071 393 1071 414.5 1096.5 c 128,-1,75
 436 1122 436 1122 464.5 1140.5 c 128,-1,76
 493 1159 493 1159 534 1159 c 0,77,78
 561 1159 561 1159 598 1141 c 128,-1,79
 635 1123 635 1123 635 1090 c 0,80,81
 635 1072 635 1072 623.5 1051 c 128,-1,82
 612 1030 612 1030 581 1030 c 0,83,84
 553 1030 553 1030 532.5 1043.5 c 128,-1,85
 512 1057 512 1057 495 1057 c 0,86,87
 478 1054 478 1054 451 1038 c 128,-1,88
 424 1022 424 1022 422 995 c 0,89,90
 422 978 422 978 434.5 964.5 c 128,-1,91
 447 951 447 951 464.5 942 c 128,-1,92
 482 933 482 933 502 928 c 128,-1,93
 522 923 522 923 538 923 c 0,94,95
 540 923 540 923 544.5 924.5 c 128,-1,96
 549 926 549 926 566.5 935 c 128,-1,97
 584 944 584 944 619 962.5 c 128,-1,98
 654 981 654 981 717 1016 c 1,99,100
 760 1032 760 1032 756 1012.5 c 128,-1,101
 752 993 752 993 745 980 c 0,102,103
 726 956 726 956 701 937 c 128,-1,104
 676 918 676 918 662 906 c 0,105,106
 599 863 599 863 534.5 816.5 c 128,-1,107
 470 770 470 770 416.5 715 c 128,-1,108
 363 660 363 660 329 594 c 0,109,110
 297 534 297 534 295 457 c 2,111,-1
 295 446 l 2,112,113
 295 394 295 394 309 338 c 0,114,115
 314 320 314 320 319 302 c 0,116,117
 330 275 330 275 345 254 c 1,118,-1
 346 253 l 2,119,120
 348 250 348 250 336 266 c 1,121,122
 326 246 326 246 327 248 c 2,123,-1
 328 249 l 1,124,125
 364 313 364 313 417 388 c 0,126,127
 472 466 472 466 537.5 532 c 128,-1,128
 603 598 603 598 679 644 c 128,-1,129
 755 690 755 690 839 690 c 0,130,131
 879 690 879 690 910 671.5 c 128,-1,132
 941 653 941 653 961.5 626 c 128,-1,133
 982 599 982 599 993 566 c 128,-1,134
 1004 533 1004 533 1004 502 c 0,135,136
 1001 460 1001 460 988 415 c 1,137,-1
 953 389 l 1,138,139
 906 389 906 389 906 382 c 1,140,141
 916 395 916 395 916 410 c 0,142,143
 912 438 912 438 899 457.5 c 128,-1,144
 886 477 886 477 868.5 488 c 128,-1,145
 851 499 851 499 828.5 503.5 c 128,-1,146
 806 508 806 508 784 508 c 0,147,148
 725 508 725 508 670 477 c 128,-1,149
 615 446 615 446 565.5 398.5 c 128,-1,150
 516 351 516 351 474 296 c 0,151,152
 446 259 446 259 424 226 c 0,153,154
 413 209 413 209 405 198 c 1,155,156
 405 199 405 199 405 198 c 1,157,158
 405 198 405 198 409 195 c 1,159,160
 408 195 408 195 409 194 c 2,161,-1
 412 192 l 2,162,163
 422 183 422 183 435 176 c 256,164,165
 448 169 448 169 463 165 c 0,166,167
 503 155 503 155 540 155 c 0,168,169
 645 157 645 157 731 217 c 0,170,171
 810 270 810 270 871 338 c 0,172,0
 880 347 880 347 887 356 c 0,1,2
EndSplineSet
Validated: 5
EndChar

StartChar: uni0610
Encoding: 1552 1552 57
Width: 0
GlyphClass: 4
Flags: W
AnchorPoint: "Anchor-39" -30 81 mark 0
AnchorPoint: "Anchor-37" -30 81 mark 0
LayerCount: 2
Fore
SplineSet
18 328 m 1,0,1
 18 328 18 328 46 335 c 128,-1,2
 74 342 74 342 99.5 354 c 128,-1,3
 125 366 125 366 141.5 380.5 c 128,-1,4
 158 395 158 395 160 407 c 1,5,6
 157 416 157 416 149.5 420 c 128,-1,7
 142 424 142 424 131.5 424.5 c 128,-1,8
 121 425 121 425 108 420.5 c 128,-1,9
 95 416 95 416 84 408 c 0,10,11
 62 390 62 390 43.5 363.5 c 128,-1,12
 25 337 25 337 18 328 c 1,0,1
-46 338 m 1,13,14
 -35 355 -35 355 -23.5 374 c 128,-1,15
 -12 393 -12 393 -0.5 408 c 128,-1,16
 11 423 11 423 23 437 c 128,-1,17
 35 451 35 451 52 468 c 0,18,19
 70 485 70 485 95.5 495.5 c 128,-1,20
 121 506 121 506 146 506 c 0,21,22
 164 506 164 506 178.5 498 c 128,-1,23
 193 490 193 490 201.5 479 c 128,-1,24
 210 468 210 468 214.5 455.5 c 128,-1,25
 219 443 219 443 219 430 c 0,26,27
 219 413 219 413 214.5 396.5 c 128,-1,28
 210 380 210 380 205 365 c 0,29,30
 190 321 190 321 159 287 c 128,-1,31
 128 253 128 253 88.5 232 c 128,-1,32
 49 211 49 211 5.5 204 c 128,-1,33
 -38 197 -38 197 -59 201 c 1,34,35
 -62 154 -62 154 -76.5 99 c 128,-1,36
 -91 44 -91 44 -112 -2 c 0,37,38
 -115 -14 -115 -14 -131 -14 c 0,39,40
 -149 -14 -149 -14 -149 0 c 0,41,42
 -149 23 -149 23 -147 44.5 c 128,-1,43
 -145 66 -145 66 -143 88 c 0,44,45
 -140 142 -140 142 -137.5 199.5 c 128,-1,46
 -135 257 -135 257 -143 317 c 1,47,48
 -139 337 -139 337 -133 355.5 c 128,-1,49
 -127 374 -127 374 -123 391 c 0,50,51
 -118 400 -118 400 -104 405 c 128,-1,52
 -90 410 -90 410 -83 390 c 0,53,54
 -79 368 -79 368 -67.5 353 c 128,-1,55
 -56 338 -56 338 -46 338 c 1,13,14
EndSplineSet
Validated: 33
EndChar

StartChar: uni0611
Encoding: 1553 1553 58
Width: 0
GlyphClass: 4
Flags: W
AnchorPoint: "Anchor-39" 0 81 mark 0
AnchorPoint: "Anchor-37" 0 81 mark 0
LayerCount: 2
Fore
SplineSet
224 326 m 0,0,1
 209 299 209 299 192.5 271.5 c 128,-1,2
 176 244 176 244 155.5 221.5 c 128,-1,3
 135 199 135 199 108 182 c 128,-1,4
 81 165 81 165 46 159 c 0,5,6
 28 156 28 156 7.5 156.5 c 128,-1,7
 -13 157 -13 157 -21 158 c 1,8,9
 -24 126 -24 126 -31.5 87.5 c 128,-1,10
 -39 49 -39 49 -55 10 c 0,11,12
 -67 -15 -67 -15 -91 -15 c 128,-1,13
 -115 -15 -115 -15 -102 17 c 1,14,15
 -94 50 -94 50 -92.5 83 c 128,-1,16
 -91 116 -91 116 -93.5 149.5 c 128,-1,17
 -96 183 -96 183 -99.5 217 c 128,-1,18
 -103 251 -103 251 -103 285 c 0,19,20
 -103 321 -103 321 -92.5 349.5 c 128,-1,21
 -82 378 -82 378 -70 410 c 0,22,23
 -54 450 -54 450 -37.5 435 c 128,-1,24
 -21 420 -21 420 -26 401 c 1,25,26
 -25 387 -25 387 -26.5 367.5 c 128,-1,27
 -28 348 -28 348 -26 331 c 256,28,29
 -24 314 -24 314 -20 306 c 128,-1,30
 -16 298 -16 298 -16 298 c 1,31,32
 -10 308 -10 308 -1.5 329 c 128,-1,33
 7 350 7 350 22 375 c 0,34,35
 41 409 41 409 66 434 c 128,-1,36
 91 459 91 459 132 459 c 0,37,38
 155 459 155 459 172.5 444.5 c 128,-1,39
 190 430 190 430 190 411 c 0,40,41
 190 396 190 396 177.5 388 c 128,-1,42
 165 380 165 380 147 380 c 0,43,44
 131 380 131 380 125 382.5 c 128,-1,45
 119 385 119 385 105 385 c 0,46,47
 101 385 101 385 94.5 380 c 128,-1,48
 88 375 88 375 80 365.5 c 128,-1,49
 72 356 72 356 66.5 345 c 128,-1,50
 61 334 61 334 60 326 c 0,51,52
 61 287 61 287 100 287 c 1,53,54
 121 292 121 292 144.5 310.5 c 128,-1,55
 168 329 168 329 183 346 c 0,56,57
 187 356 187 356 198.5 362 c 128,-1,58
 210 368 210 368 221.5 363 c 128,-1,59
 233 358 233 358 233 348.5 c 128,-1,60
 233 339 233 339 224 326 c 0,0,1
EndSplineSet
Validated: 33
EndChar

StartChar: uni0612
Encoding: 1554 1554 59
Width: 0
GlyphClass: 4
Flags: W
AnchorPoint: "Anchor-39" 0 61 mark 0
AnchorPoint: "Anchor-37" 0 61 mark 0
LayerCount: 2
Fore
SplineSet
112 148 m 0,0,1
 159 181 159 181 183.5 235 c 128,-1,2
 208 289 208 289 224 349 c 1,3,4
 232 360 232 360 247.5 364 c 128,-1,5
 263 368 263 368 268 344 c 1,6,7
 266 316 266 316 258.5 289.5 c 128,-1,8
 251 263 251 263 245 240 c 0,9,10
 228 195 228 195 219 163.5 c 128,-1,11
 210 132 210 132 195.5 111 c 128,-1,12
 181 90 181 90 153.5 75.5 c 128,-1,13
 126 61 126 61 82 52 c 0,14,15
 54 43 54 43 32 41 c 0,16,17
 -12 34 -12 34 -9.5 48.5 c 128,-1,18
 -7 63 -7 63 25 88 c 0,19,20
 50 107 50 107 76 124.5 c 128,-1,21
 102 142 102 142 112 148 c 0,0,1
14 296 m 1,22,23
 21 292 21 292 14 292.5 c 128,-1,24
 7 293 7 293 3 293 c 0,25,26
 -41 293 -41 293 -77 279 c 0,27,28
 -97 268 -97 268 -109 251 c 128,-1,29
 -121 234 -121 234 -134 212 c 0,30,31
 -142 199 -142 199 -168.5 185 c 128,-1,32
 -195 171 -195 171 -177 216 c 0,33,34
 -177 218 -177 218 -168 238.5 c 128,-1,35
 -159 259 -159 259 -152 269 c 0,36,37
 -129 306 -129 306 -106 327.5 c 128,-1,38
 -83 349 -83 349 -58 360 c 128,-1,39
 -33 371 -33 371 -4.5 375 c 128,-1,40
 24 379 24 379 61 379 c 0,41,42
 108 375 108 375 130 371 c 128,-1,43
 152 367 152 367 142 334 c 0,44,45
 138 323 138 323 125 307.5 c 128,-1,46
 112 292 112 292 101 281 c 0,47,48
 56 240 56 240 12.5 198 c 128,-1,49
 -31 156 -31 156 -61 102 c 0,50,51
 -69 93 -69 93 -80 64 c 128,-1,52
 -91 35 -91 35 -103 6 c 0,53,54
 -109 -9 -109 -9 -131 -16 c 128,-1,55
 -153 -23 -153 -23 -147 5 c 0,56,57
 -132 94 -132 94 -88.5 168.5 c 128,-1,58
 -45 243 -45 243 14 296 c 1,22,23
EndSplineSet
Validated: 5
EndChar

StartChar: uni0613
Encoding: 1555 1555 60
Width: 0
GlyphClass: 4
Flags: W
AnchorPoint: "Anchor-39" -51 81 mark 0
AnchorPoint: "Anchor-37" -51 81 mark 0
LayerCount: 2
Fore
SplineSet
52 430 m 0,0,1
 32 430 32 430 15.5 421.5 c 128,-1,2
 -1 413 -1 413 -17 398.5 c 128,-1,3
 -33 384 -33 384 -46.5 365 c 128,-1,4
 -60 346 -60 346 -61 344 c 0,5,6
 -62 344 -62 344 -33.5 349.5 c 128,-1,7
 -5 355 -5 355 21.5 367 c 128,-1,8
 48 379 48 379 65 392 c 128,-1,9
 82 405 82 405 84 416 c 0,10,11
 83 421 83 421 73.5 425.5 c 128,-1,12
 64 430 64 430 52 430 c 0,0,1
-219 327 m 1,13,14
 -215 345 -215 345 -209 363.5 c 128,-1,15
 -203 382 -203 382 -199 398 c 0,16,17
 -199 408 -199 408 -181.5 412 c 128,-1,18
 -164 416 -164 416 -158 398 c 0,19,20
 -154 375 -154 375 -143 360.5 c 128,-1,21
 -132 346 -132 346 -120 346 c 1,22,23
 -107 359 -107 359 -87.5 387.5 c 128,-1,24
 -68 416 -68 416 -45 443.5 c 128,-1,25
 -22 471 -22 471 5.5 492.5 c 128,-1,26
 33 514 33 514 70 514 c 256,27,28
 107 514 107 514 121.5 488 c 128,-1,29
 136 462 136 462 136 438 c 0,30,31
 136 421 136 421 131 405 c 128,-1,32
 126 389 126 389 120 373 c 0,33,34
 103 330 103 330 72.5 297 c 128,-1,35
 42 264 42 264 5.5 242 c 128,-1,36
 -31 220 -31 220 -72.5 212.5 c 128,-1,37
 -114 205 -114 205 -136 209 c 1,38,39
 -136 208 -136 208 -140 174 c 128,-1,40
 -144 140 -144 140 -146 130 c 0,41,42
 -150 117 -150 117 -159.5 84.5 c 128,-1,43
 -169 52 -169 52 -174 36 c 0,44,45
 -178 30 -178 30 -190 4 c 1,46,47
 -225 -31 -225 -31 -225 8 c 0,48,49
 -225 31 -225 31 -223 52.5 c 128,-1,50
 -221 74 -221 74 -219 96 c 2,51,-1
 -219 327 l 1,13,14
-158 625 m 0,52,53
 -158 633 -158 633 -149 647 c 128,-1,54
 -140 661 -140 661 -129.5 675 c 128,-1,55
 -119 689 -119 689 -105 703 c 128,-1,56
 -91 717 -91 717 -79 717 c 2,57,-1
 -77 717 l 2,58,59
 -69 717 -69 717 -60 710.5 c 128,-1,60
 -51 704 -51 704 -49 702 c 0,61,62
 -37 692 -37 692 10 654 c 1,63,-1
 10 633 l 1,64,-1
 -58 549 l 1,65,66
 -78 549 -78 549 -102.5 568.5 c 128,-1,67
 -127 588 -127 588 -140 598 c 0,68,69
 -148 606 -148 606 -153 609 c 128,-1,70
 -158 612 -158 612 -158 625 c 0,52,53
-27 160 m 0,71,72
 -19 167 -19 167 0 179 c 128,-1,73
 19 191 19 191 40.5 204.5 c 128,-1,74
 62 218 62 218 81 230 c 128,-1,75
 100 242 100 242 106 248 c 0,76,77
 158 281 158 281 180.5 335 c 128,-1,78
 203 389 203 389 219 448 c 1,79,80
 227 461 227 461 245 464.5 c 128,-1,81
 263 468 263 468 263 444 c 0,82,83
 261 417 261 417 255 390.5 c 128,-1,84
 249 364 249 364 241 340 c 0,85,86
 227 295 227 295 215 265 c 128,-1,87
 203 235 203 235 187.5 214 c 128,-1,88
 172 193 172 193 146 179 c 128,-1,89
 120 165 120 165 79 153 c 0,90,91
 63 149 63 149 41 142 c 128,-1,92
 19 135 19 135 0 133 c 0,93,94
 -80 119 -80 119 -27 160 c 0,71,72
EndSplineSet
Validated: 5
EndChar

StartChar: uni0614
Encoding: 1556 1556 61
Width: 0
GlyphClass: 4
Flags: W
AnchorPoint: "Anchor-39" 0 0 mark 0
AnchorPoint: "Anchor-37" 0 0 mark 0
LayerCount: 2
Fore
SplineSet
-37 22 m 0,0,1
 -20 31 -20 31 2 43.5 c 128,-1,2
 24 56 24 56 40 68 c 0,3,4
 70 92 70 92 102 122.5 c 128,-1,5
 134 153 134 153 184 151 c 1,6,7
 213 154 213 154 223.5 143.5 c 128,-1,8
 234 133 234 133 240 132 c 0,9,10
 246 133 246 133 254 150.5 c 128,-1,11
 262 168 262 168 275 181 c 0,12,13
 282 188 282 188 292 188 c 0,14,15
 312 188 312 188 312 167 c 1,16,17
 307 145 307 145 296.5 123 c 128,-1,18
 286 101 286 101 272.5 84 c 128,-1,19
 259 67 259 67 242.5 53.5 c 128,-1,20
 226 40 226 40 209 43 c 0,21,22
 197 43 197 43 191.5 46 c 128,-1,23
 186 49 186 49 182.5 50 c 128,-1,24
 179 51 179 51 173 52 c 128,-1,25
 167 53 167 53 152 53 c 0,26,27
 128 50 128 50 107.5 38 c 128,-1,28
 87 26 87 26 64 10 c 0,29,30
 5 -39 5 -39 -66 -58.5 c 128,-1,31
 -137 -78 -137 -78 -225 -84 c 0,32,33
 -264 -84 -264 -84 -305 -81 c 128,-1,34
 -346 -78 -346 -78 -382 -66 c 0,35,36
 -410 -60 -410 -60 -408 -44.5 c 128,-1,37
 -406 -29 -406 -29 -380 -29 c 0,38,39
 -295 -21 -295 -21 -205 -14.5 c 128,-1,40
 -115 -8 -115 -8 -37 22 c 0,0,1
EndSplineSet
Validated: 33
EndChar

StartChar: uni0615
Encoding: 1557 1557 62
Width: 0
GlyphClass: 4
Flags: W
LayerCount: 2
Fore
SplineSet
95 70 m 0,0,1
 57 67 57 67 39 49.5 c 128,-1,2
 21 32 21 32 3 6.5 c 128,-1,3
 -15 -19 -15 -19 -27 -52 c 128,-1,4
 -39 -85 -39 -85 -41 -100 c 0,5,6
 -44 -101 -44 -101 -10 -81 c 128,-1,7
 24 -61 24 -61 55 -40 c 128,-1,8
 86 -19 86 -19 104.5 2 c 128,-1,9
 123 23 123 23 128 43 c 1,10,11
 123 64 123 64 115.5 67 c 128,-1,12
 108 70 108 70 95 70 c 0,0,1
-75 41 m 0,13,14
 -75 53 -75 53 -74 84 c 128,-1,15
 -73 115 -73 115 -69 145.5 c 128,-1,16
 -65 176 -65 176 -64 203.5 c 128,-1,17
 -63 231 -63 231 -63 247 c 1,18,19
 -43 289 -43 289 -25.5 334 c 128,-1,20
 -8 379 -8 379 6 405 c 1,21,22
 16 444 16 444 49 444 c 1,23,24
 49 360 49 360 48 318 c 128,-1,25
 47 276 47 276 46 243.5 c 128,-1,26
 45 211 45 211 44 187.5 c 128,-1,27
 43 164 43 164 43 168 c 1,28,29
 35 157 35 157 56.5 167.5 c 128,-1,30
 78 178 78 178 123 182 c 1,31,32
 171 175 171 175 193 144 c 128,-1,33
 215 113 215 113 213 91 c 1,34,35
 197 39 197 39 175 -1 c 0,36,37
 159 -28 159 -28 140.5 -62 c 128,-1,38
 122 -96 122 -96 94 -124 c 128,-1,39
 66 -152 66 -152 44 -175 c 128,-1,40
 22 -198 22 -198 0 -205 c 0,41,42
 -9 -205 -9 -205 -33.5 -211 c 128,-1,43
 -58 -217 -58 -217 -97 -224 c 128,-1,44
 -136 -231 -136 -231 -162.5 -237 c 128,-1,45
 -189 -243 -189 -243 -196 -243 c 0,46,47
 -229 -251 -229 -251 -254 -242 c 128,-1,48
 -279 -233 -279 -233 -237 -209 c 0,49,50
 -196 -187 -196 -187 -171.5 -171 c 128,-1,51
 -147 -155 -147 -155 -122 -134 c 1,52,53
 -103 -98 -103 -98 -89 -46.5 c 128,-1,54
 -75 5 -75 5 -75 41 c 0,13,14
EndSplineSet
Validated: 5
EndChar

StartChar: uni061B
Encoding: 1563 1563 63
Width: 586
GlyphClass: 2
Flags: W
LayerCount: 2
Fore
SplineSet
464 339 m 1,0,1
 466 223 466 223 420.5 161.5 c 128,-1,2
 375 100 375 100 313.5 90.5 c 128,-1,3
 252 81 252 81 198.5 125 c 128,-1,4
 145 169 145 169 137 253 c 0,5,6
 129 325 129 325 158 408 c 128,-1,7
 187 491 187 491 232 591 c 0,8,9
 247 622 247 622 275.5 657 c 128,-1,10
 304 692 304 692 335 714 c 128,-1,11
 366 736 366 736 379.5 719.5 c 128,-1,12
 393 703 393 703 367 648 c 0,13,14
 357 628 357 628 340.5 597 c 128,-1,15
 324 566 324 566 308 531 c 128,-1,16
 292 496 292 496 281 456.5 c 128,-1,17
 270 417 270 417 270 379 c 0,18,19
 270 333 270 333 303 305 c 0,20,21
 307 302 307 302 310.5 305.5 c 128,-1,22
 314 309 314 309 326 340 c 0,23,24
 334 359 334 359 351.5 371 c 128,-1,25
 369 383 369 383 392 384 c 128,-1,26
 415 385 415 385 434.5 373 c 128,-1,27
 454 361 454 361 464 339 c 1,0,1
155 -295 m 0,28,29
 151 -287 151 -287 167 -259.5 c 128,-1,30
 183 -232 183 -232 205 -202 c 128,-1,31
 227 -172 227 -172 250 -145.5 c 128,-1,32
 273 -119 273 -119 289 -119 c 0,33,34
 300 -119 300 -119 328.5 -138 c 128,-1,35
 357 -157 357 -157 388 -178.5 c 128,-1,36
 419 -200 419 -200 445.5 -221.5 c 128,-1,37
 472 -243 472 -243 472 -252 c 0,38,39
 472 -263 472 -263 456.5 -291 c 128,-1,40
 441 -319 441 -319 420 -347.5 c 128,-1,41
 399 -376 399 -376 375.5 -400.5 c 128,-1,42
 352 -425 352 -425 328 -429 c 1,43,44
 281 -396 281 -396 236 -365 c 128,-1,45
 191 -334 191 -334 155 -295 c 0,28,29
EndSplineSet
Validated: 33
EndChar

StartChar: uni061F
Encoding: 1567 1567 64
Width: 870
GlyphClass: 2
Flags: W
LayerCount: 2
Fore
SplineSet
477 25 m 0,0,1
 481 81 481 81 465.5 135 c 128,-1,2
 450 189 450 189 411 228 c 0,3,4
 363 277 363 277 317 317 c 128,-1,5
 271 357 271 357 231 402 c 128,-1,6
 191 447 191 447 167 502.5 c 128,-1,7
 143 558 143 558 143 635 c 0,8,9
 143 701 143 701 165 762.5 c 128,-1,10
 187 824 187 824 228.5 872 c 128,-1,11
 270 920 270 920 329.5 949.5 c 128,-1,12
 389 979 389 979 461 979 c 0,13,14
 510 979 510 979 562.5 963.5 c 128,-1,15
 615 948 615 948 658.5 918 c 128,-1,16
 702 888 702 888 729.5 844.5 c 128,-1,17
 757 801 757 801 757 745 c 0,18,19
 757 688 757 688 717 637 c 128,-1,20
 677 586 677 586 607 586 c 0,21,22
 549 586 549 586 512 621 c 128,-1,23
 475 656 475 656 475 709 c 0,24,25
 475 767 475 767 516 804 c 128,-1,26
 557 841 557 841 617 841 c 0,27,28
 628 841 628 841 640 839.5 c 128,-1,29
 652 838 652 838 669 828 c 1,30,31
 643 880 643 880 643 823 c 1,32,33
 643 826 643 826 644 825 c 1,34,35
 623 841 623 841 600 854 c 128,-1,36
 577 867 577 867 554 867 c 0,37,38
 508 867 508 867 466.5 848 c 128,-1,39
 425 829 425 829 395 796.5 c 128,-1,40
 365 764 365 764 347 720.5 c 128,-1,41
 329 677 329 677 331 629 c 0,42,43
 333 583 333 583 352 544 c 128,-1,44
 371 505 371 505 398 468.5 c 128,-1,45
 425 432 425 432 454.5 398 c 128,-1,46
 484 364 484 364 504 329 c 0,47,48
 534 283 534 283 546 233 c 128,-1,49
 558 183 558 183 558 129 c 0,50,51
 558 83 558 83 546.5 31 c 128,-1,52
 535 -21 535 -21 475 -85 c 1,53,54
 475 -33 475 -33 476 -14.5 c 128,-1,55
 477 4 477 4 477 25 c 0,0,1
362 -195 m 0,56,57
 362 -153 362 -153 396 -122.5 c 128,-1,58
 430 -92 430 -92 474 -92 c 0,59,60
 528 -92 528 -92 562.5 -124.5 c 128,-1,61
 597 -157 597 -157 597 -207 c 0,62,63
 597 -244 597 -244 566 -279.5 c 128,-1,64
 535 -315 535 -315 488 -315 c 0,65,66
 433 -315 433 -315 397.5 -280 c 128,-1,67
 362 -245 362 -245 362 -195 c 0,56,57
EndSplineSet
Validated: 37
EndChar

StartChar: uni0621
Encoding: 1569 1569 65
Width: 985
GlyphClass: 2
Flags: W
AnchorPoint: "Anchor-38" 491 -133 basechar 0
AnchorPoint: "Anchor-37" 450 1105 basechar 0
LayerCount: 2
Fore
SplineSet
274 169 m 1,0,1
 265 174 265 174 226 196.5 c 128,-1,2
 187 219 187 219 160 267 c 0,3,4
 123 328 123 328 160 388 c 0,5,6
 170 404 170 404 190.5 439 c 128,-1,7
 211 474 211 474 238.5 516.5 c 128,-1,8
 266 559 266 559 288.5 592 c 128,-1,9
 311 625 311 625 321 639 c 0,10,11
 353 683 353 683 407.5 730.5 c 128,-1,12
 462 778 462 778 532 778 c 0,13,14
 576 778 576 778 626 749.5 c 128,-1,15
 676 721 676 721 676 670 c 0,16,17
 676 631 676 631 641 605.5 c 128,-1,18
 606 580 606 580 567 580 c 0,19,20
 536 580 536 580 511.5 598.5 c 128,-1,21
 487 617 487 617 452 617 c 0,22,23
 418 617 418 617 385 599 c 128,-1,24
 352 581 352 581 346 536 c 0,25,26
 342 520 342 520 359 498 c 128,-1,27
 376 476 376 476 402 456 c 128,-1,28
 428 436 428 436 460 426 c 128,-1,29
 492 416 492 416 518 416 c 1,30,31
 588 427 588 427 649 472 c 128,-1,32
 710 517 710 517 768 560 c 1,33,34
 928 658 928 658 805 498 c 0,35,36
 754 427 754 427 689.5 372.5 c 128,-1,37
 625 318 625 318 560.5 267.5 c 128,-1,38
 496 217 496 217 429 161.5 c 128,-1,39
 362 106 362 106 303 31 c 0,40,41
 291 14 291 14 270 -13 c 128,-1,42
 249 -40 249 -40 228 -94 c 0,43,44
 218 -123 218 -123 191.5 -147 c 128,-1,45
 165 -171 165 -171 146 -135 c 1,46,47
 138 -46 138 -46 183.5 31 c 128,-1,48
 229 108 229 108 274 169 c 1,0,1
EndSplineSet
Validated: 33
EndChar

StartChar: uni0622
Encoding: 1570 1570 66
Width: 420
GlyphClass: 2
Flags: W
AnchorPoint: "Anchor-38" 286 -81 basechar 0
AnchorPoint: "Anchor-37" 409 2478 basechar 0
LayerCount: 2
Fore
SplineSet
154 408 m 0,0,1
 154 588 154 588 145.5 766 c 128,-1,2
 137 944 137 944 137 1124 c 0,3,4
 137 1184 137 1184 136 1255 c 128,-1,5
 135 1326 135 1326 154 1386 c 2,6,-1
 251 1702 l 1,7,8
 278 1676 278 1676 281 1632.5 c 128,-1,9
 284 1589 284 1589 286 1523.5 c 128,-1,10
 288 1458 288 1458 290 1376 c 128,-1,11
 292 1294 292 1294 293 1210 c 128,-1,12
 294 1126 294 1126 296 1048.5 c 128,-1,13
 298 971 298 971 300 913 c 2,14,-1
 300 731 l 2,15,16
 300 598 300 598 287 469.5 c 128,-1,17
 274 341 274 341 225 209 c 0,18,19
 217 191 217 191 203 159 c 128,-1,20
 189 127 189 127 147 88 c 1,21,22
 147 190 147 190 150.5 263 c 128,-1,23
 154 336 154 336 154 408 c 0,0,1
174 2160 m 0,24,25
 209 2160 209 2160 236.5 2148 c 128,-1,26
 264 2136 264 2136 290 2123 c 0,27,28
 361 2095 361 2095 437.5 2103.5 c 128,-1,29
 514 2112 514 2112 584 2148 c 128,-1,30
 654 2184 654 2184 711 2240 c 128,-1,31
 768 2296 768 2296 803 2363 c 1,32,33
 839 2399 839 2399 846 2359 c 1,34,35
 846 2315 846 2315 832 2273.5 c 128,-1,36
 818 2232 818 2232 798 2191 c 0,37,38
 763 2114 763 2114 711.5 2040.5 c 128,-1,39
 660 1967 660 1967 594 1908.5 c 128,-1,40
 528 1850 528 1850 447 1814 c 128,-1,41
 366 1778 366 1778 272 1778 c 0,42,43
 205 1778 205 1778 150 1803.5 c 128,-1,44
 95 1829 95 1829 43 1859 c 1,45,46
 14 1869 14 1869 -14 1855.5 c 128,-1,47
 -42 1842 -42 1842 -68 1816 c 128,-1,48
 -94 1790 -94 1790 -116 1757 c 128,-1,49
 -138 1724 -138 1724 -154 1703 c 0,50,51
 -166 1681 -166 1681 -202 1681 c 1,52,53
 -202 1750 -202 1750 -168.5 1830 c 128,-1,54
 -135 1910 -135 1910 -82.5 1982.5 c 128,-1,55
 -30 2055 -30 2055 38 2107.5 c 128,-1,56
 106 2160 106 2160 174 2160 c 0,24,25
EndSplineSet
Validated: 33
Substitution2: "Single Substitution lookup 210 subtable" glyph931
MultipleSubs2: "'fina' Terminal Forms in Arabic lookup 1 subtable" glyph984
EndChar

StartChar: uni0623
Encoding: 1571 1571 67
Width: 420
GlyphClass: 2
Flags: W
LayerCount: 2
Fore
SplineSet
155 408 m 0,0,1
 155 588 155 588 146.5 766 c 128,-1,2
 138 944 138 944 138 1124 c 0,3,4
 138 1184 138 1184 137 1255 c 128,-1,5
 136 1326 136 1326 155 1386 c 2,6,-1
 252 1702 l 1,7,8
 278 1676 278 1676 281.5 1632.5 c 128,-1,9
 285 1589 285 1589 287 1523.5 c 128,-1,10
 289 1458 289 1458 291 1376 c 128,-1,11
 293 1294 293 1294 294 1210 c 128,-1,12
 295 1126 295 1126 297 1048.5 c 128,-1,13
 299 971 299 971 301 913 c 2,14,-1
 301 731 l 2,15,16
 301 598 301 598 288 469.5 c 128,-1,17
 275 341 275 341 225 209 c 0,18,19
 217 191 217 191 203 159 c 128,-1,20
 189 127 189 127 148 88 c 1,21,22
 148 190 148 190 151.5 263 c 128,-1,23
 155 336 155 336 155 408 c 0,0,1
138 1943 m 0,24,25
 165 1943 165 1943 182 1973 c 128,-1,26
 199 2003 199 2003 220 2045.5 c 128,-1,27
 241 2088 241 2088 272 2126 c 128,-1,28
 303 2164 303 2164 371 2164 c 0,29,30
 382 2164 382 2164 400 2159 c 128,-1,31
 418 2154 418 2154 439 2138 c 1,32,33
 424 2103 424 2103 408 2068.5 c 128,-1,34
 392 2034 392 2034 370 2001 c 1,35,36
 345 2001 345 2001 322.5 1996 c 128,-1,37
 300 1991 300 1991 278 1976 c 1,38,39
 262 1960 262 1960 248 1932.5 c 128,-1,40
 234 1905 234 1905 214.5 1879 c 128,-1,41
 195 1853 195 1853 166.5 1832.5 c 128,-1,42
 138 1812 138 1812 95 1812 c 0,43,44
 63 1812 63 1812 42.5 1828.5 c 128,-1,45
 22 1845 22 1845 5 1861 c 1,46,47
 12 1890 12 1890 21.5 1915.5 c 128,-1,48
 31 1941 31 1941 51 1989 c 1,49,50
 82 1964 82 1964 101 1953.5 c 128,-1,51
 120 1943 120 1943 138 1943 c 0,24,25
EndSplineSet
Validated: 33
MultipleSubs2: "'fina' Terminal Forms in Arabic lookup 1 subtable" glyph988
EndChar

StartChar: uni0624
Encoding: 1572 1572 68
Width: 610
GlyphClass: 2
Flags: W
AnchorPoint: "Anchor-38" 225 -235 basechar 0
AnchorPoint: "Anchor-37" 235 1914 basechar 0
LayerCount: 2
Fore
SplineSet
323 13 m 0,0,1
 311 -14 311 -14 287 -19 c 0,2,3
 201 -46 201 -46 115 -71.5 c 128,-1,4
 29 -97 29 -97 -63 -127 c 1,5,6
 -93 -127 -93 -127 -95.5 -117.5 c 128,-1,7
 -98 -108 -98 -108 -90.5 -98.5 c 128,-1,8
 -83 -89 -83 -89 -73 -81 c 128,-1,9
 -63 -73 -63 -73 -56 -69 c 0,10,11
 -9 -32 -9 -32 45 6 c 128,-1,12
 99 44 99 44 154.5 84 c 128,-1,13
 210 124 210 124 263.5 166.5 c 128,-1,14
 317 209 317 209 362 254 c 1,15,16
 376 280 376 280 363.5 293 c 128,-1,17
 351 306 351 306 335 308 c 1,18,19
 318 301 318 301 298 292 c 128,-1,20
 278 283 278 283 249 283 c 0,21,22
 215 283 215 283 180.5 297.5 c 128,-1,23
 146 312 146 312 122 335 c 128,-1,24
 98 358 98 358 83.5 388.5 c 128,-1,25
 69 419 69 419 69 451 c 0,26,27
 69 467 69 467 69 475 c 0,28,29
 69 484 69 484 73 500 c 0,30,31
 95 565 95 565 118.5 627.5 c 128,-1,32
 142 690 142 690 165 756 c 0,33,34
 176 786 176 786 207 810.5 c 128,-1,35
 238 835 238 835 278 835 c 0,36,37
 341 835 341 835 381.5 791 c 128,-1,38
 422 747 422 747 447 688 c 128,-1,39
 472 629 472 629 483 565.5 c 128,-1,40
 494 502 494 502 494 461 c 0,41,42
 494 428 494 428 490.5 396 c 128,-1,43
 487 364 487 364 476 332 c 0,44,45
 460 285 460 285 443.5 247 c 128,-1,46
 427 209 427 209 408.5 171.5 c 128,-1,47
 390 134 390 134 368.5 96 c 128,-1,48
 347 58 347 58 323 13 c 0,0,1
173 1258 m 0,49,50
 199 1258 199 1258 216.5 1288 c 128,-1,51
 234 1318 234 1318 255 1360.5 c 128,-1,52
 276 1403 276 1403 307 1441 c 128,-1,53
 338 1479 338 1479 406 1479 c 0,54,55
 417 1479 417 1479 435 1474 c 128,-1,56
 453 1469 453 1469 474 1453 c 1,57,58
 459 1418 459 1418 443 1383.5 c 128,-1,59
 427 1349 427 1349 405 1316 c 1,60,61
 380 1316 380 1316 357 1311 c 128,-1,62
 334 1306 334 1306 313 1291 c 0,63,64
 297 1275 297 1275 282.5 1247.5 c 128,-1,65
 268 1220 268 1220 249 1194 c 128,-1,66
 230 1168 230 1168 201.5 1147.5 c 128,-1,67
 173 1127 173 1127 130 1127 c 0,68,69
 98 1127 98 1127 77.5 1143.5 c 128,-1,70
 57 1160 57 1160 40 1176 c 1,71,72
 47 1205 47 1205 56.5 1230.5 c 128,-1,73
 66 1256 66 1256 86 1304 c 1,74,75
 117 1279 117 1279 136 1268.5 c 128,-1,76
 155 1258 155 1258 173 1258 c 0,49,50
EndSplineSet
Validated: 1
MultipleSubs2: "'fina' Terminal Forms in Arabic lookup 1 subtable" glyph926
EndChar

StartChar: uni0626
Encoding: 1574 1574 69
Width: 1743
GlyphClass: 2
Flags: W
LayerCount: 2
Fore
SplineSet
1347 318 m 128,-1,1
 1379 350 1379 350 1429 350 c 256,2,3
 1479 350 1479 350 1511 318 c 128,-1,4
 1543 286 1543 286 1543 241 c 256,5,6
 1543 196 1543 196 1511 164 c 128,-1,7
 1479 132 1479 132 1429 132 c 256,8,9
 1379 132 1379 132 1347 164 c 128,-1,10
 1315 196 1315 196 1315 241 c 256,11,0
 1315 286 1315 286 1347 318 c 128,-1,1
1099 420 m 128,-1,13
 1131 452 1131 452 1181 452 c 256,14,15
 1231 452 1231 452 1263 420 c 128,-1,16
 1295 388 1295 388 1295 343 c 256,17,18
 1295 298 1295 298 1263 266 c 128,-1,19
 1231 234 1231 234 1181 234 c 256,20,21
 1131 234 1131 234 1099 266 c 128,-1,22
 1067 298 1067 298 1067 343 c 256,23,12
 1067 388 1067 388 1099 420 c 128,-1,13
1183 -148 m 128,-1,25
 1215 -116 1215 -116 1265 -116 c 256,26,27
 1315 -116 1315 -116 1347 -148 c 128,-1,28
 1379 -180 1379 -180 1379 -225 c 256,29,30
 1379 -270 1379 -270 1347 -302 c 128,-1,31
 1315 -334 1315 -334 1265 -334 c 256,32,33
 1215 -334 1215 -334 1183 -302 c 128,-1,34
 1151 -270 1151 -270 1151 -225 c 256,35,24
 1151 -180 1151 -180 1183 -148 c 128,-1,25
1325 65 m 128,-1,37
 1357 97 1357 97 1407 97 c 256,38,39
 1457 97 1457 97 1489 65 c 128,-1,40
 1521 33 1521 33 1521 -12 c 256,41,42
 1521 -57 1521 -57 1489 -89 c 128,-1,43
 1457 -121 1457 -121 1407 -121 c 256,44,45
 1357 -121 1357 -121 1325 -89 c 128,-1,46
 1293 -57 1293 -57 1293 -12 c 256,47,36
 1293 33 1293 33 1325 65 c 128,-1,37
1038 657 m 128,-1,49
 1070 689 1070 689 1120 689 c 256,50,51
 1170 689 1170 689 1202 657 c 128,-1,52
 1234 625 1234 625 1234 580 c 256,53,54
 1234 535 1234 535 1202 503 c 128,-1,55
 1170 471 1170 471 1120 471 c 256,56,57
 1070 471 1070 471 1038 503 c 128,-1,58
 1006 535 1006 535 1006 580 c 256,59,48
 1006 625 1006 625 1038 657 c 128,-1,49
1016 -311 m 128,-1,61
 1048 -279 1048 -279 1098 -279 c 256,62,63
 1148 -279 1148 -279 1180 -311 c 128,-1,64
 1212 -343 1212 -343 1212 -388 c 256,65,66
 1212 -433 1212 -433 1180 -465 c 128,-1,67
 1148 -497 1148 -497 1098 -497 c 256,68,69
 1048 -497 1048 -497 1016 -465 c 128,-1,70
 984 -433 984 -433 984 -388 c 256,71,60
 984 -343 984 -343 1016 -311 c 128,-1,61
799 -433 m 128,-1,73
 831 -401 831 -401 881 -401 c 256,74,75
 931 -401 931 -401 963 -433 c 128,-1,76
 995 -465 995 -465 995 -510 c 256,77,78
 995 -555 995 -555 963 -587 c 128,-1,79
 931 -619 931 -619 881 -619 c 256,80,81
 831 -619 831 -619 799 -587 c 128,-1,82
 767 -555 767 -555 767 -510 c 256,83,72
 767 -465 767 -465 799 -433 c 128,-1,73
557 -422 m 128,-1,85
 589 -390 589 -390 639 -390 c 256,86,87
 689 -390 689 -390 721 -422 c 128,-1,88
 753 -454 753 -454 753 -499 c 256,89,90
 753 -544 753 -544 721 -576 c 128,-1,91
 689 -608 689 -608 639 -608 c 256,92,93
 589 -608 589 -608 557 -576 c 128,-1,94
 525 -544 525 -544 525 -499 c 256,95,84
 525 -454 525 -454 557 -422 c 128,-1,85
352 -291 m 128,-1,97
 384 -259 384 -259 434 -259 c 256,98,99
 484 -259 484 -259 516 -291 c 128,-1,100
 548 -323 548 -323 548 -368 c 256,101,102
 548 -413 548 -413 516 -445 c 128,-1,103
 484 -477 484 -477 434 -477 c 256,104,105
 384 -477 384 -477 352 -445 c 128,-1,106
 320 -413 320 -413 320 -368 c 256,107,96
 320 -323 320 -323 352 -291 c 128,-1,97
220 -64 m 128,-1,109
 252 -32 252 -32 302 -32 c 256,110,111
 352 -32 352 -32 384 -64 c 128,-1,112
 416 -96 416 -96 416 -141 c 256,113,114
 416 -186 416 -186 384 -218 c 128,-1,115
 352 -250 352 -250 302 -250 c 256,116,117
 252 -250 252 -250 220 -218 c 128,-1,118
 188 -186 188 -186 188 -141 c 256,119,108
 188 -96 188 -96 220 -64 c 128,-1,109
177 198 m 128,-1,121
 209 230 209 230 259 230 c 256,122,123
 309 230 309 230 341 198 c 128,-1,124
 373 166 373 166 373 121 c 256,125,126
 373 76 373 76 341 44 c 128,-1,127
 309 12 309 12 259 12 c 256,128,129
 209 12 209 12 177 44 c 128,-1,130
 145 76 145 76 145 121 c 256,131,120
 145 166 145 166 177 198 c 128,-1,121
218 460 m 128,-1,133
 250 492 250 492 300 492 c 256,134,135
 350 492 350 492 382 460 c 128,-1,136
 414 428 414 428 414 383 c 256,137,138
 414 338 414 338 382 306 c 128,-1,139
 350 274 350 274 300 274 c 256,140,141
 250 274 250 274 218 306 c 128,-1,142
 186 338 186 338 186 383 c 256,143,132
 186 428 186 428 218 460 c 128,-1,133
1103 893 m 128,-1,145
 1135 925 1135 925 1185 925 c 256,146,147
 1235 925 1235 925 1267 893 c 128,-1,148
 1299 861 1299 861 1299 816 c 256,149,150
 1299 771 1299 771 1267 739 c 128,-1,151
 1235 707 1235 707 1185 707 c 256,152,153
 1135 707 1135 707 1103 739 c 128,-1,154
 1071 771 1071 771 1071 816 c 256,155,144
 1071 861 1071 861 1103 893 c 128,-1,145
1237 1093 m 128,-1,157
 1269 1125 1269 1125 1319 1125 c 256,158,159
 1369 1125 1369 1125 1401 1093 c 128,-1,160
 1433 1061 1433 1061 1433 1016 c 256,161,162
 1433 971 1433 971 1401 939 c 128,-1,163
 1369 907 1369 907 1319 907 c 256,164,165
 1269 907 1269 907 1237 939 c 128,-1,166
 1205 971 1205 971 1205 1016 c 256,167,156
 1205 1061 1205 1061 1237 1093 c 128,-1,157
1432 1232 m 128,-1,169
 1464 1264 1464 1264 1514 1264 c 256,170,171
 1564 1264 1564 1264 1596 1232 c 128,-1,172
 1628 1200 1628 1200 1628 1155 c 256,173,174
 1628 1110 1628 1110 1596 1078 c 128,-1,175
 1564 1046 1564 1046 1514 1046 c 256,176,177
 1464 1046 1464 1046 1432 1078 c 128,-1,178
 1400 1110 1400 1110 1400 1155 c 256,179,168
 1400 1200 1400 1200 1432 1232 c 128,-1,169
305 685 m 128,-1,181
 337 717 337 717 387 717 c 256,182,183
 437 717 437 717 469 685 c 128,-1,184
 501 653 501 653 501 608 c 256,185,186
 501 563 501 563 469 531 c 128,-1,187
 437 499 437 499 387 499 c 256,188,189
 337 499 337 499 305 531 c 128,-1,190
 273 563 273 563 273 608 c 256,191,180
 273 653 273 653 305 685 c 128,-1,181
680 1251 m 0,192,193
 707 1251 707 1251 724.5 1281 c 128,-1,194
 742 1311 742 1311 762.5 1353.5 c 128,-1,195
 783 1396 783 1396 814 1434 c 128,-1,196
 845 1472 845 1472 913 1472 c 0,197,198
 925 1472 925 1472 942.5 1467 c 128,-1,199
 960 1462 960 1462 981 1446 c 1,200,201
 966 1411 966 1411 950 1376.5 c 128,-1,202
 934 1342 934 1342 913 1309 c 1,203,204
 887 1309 887 1309 864.5 1304 c 128,-1,205
 842 1299 842 1299 821 1284 c 0,206,207
 805 1268 805 1268 790.5 1240.5 c 128,-1,208
 776 1213 776 1213 756.5 1187 c 128,-1,209
 737 1161 737 1161 708.5 1140.5 c 128,-1,210
 680 1120 680 1120 637 1120 c 0,211,212
 605 1120 605 1120 584.5 1136.5 c 128,-1,213
 564 1153 564 1153 547 1169 c 1,214,215
 554 1198 554 1198 563.5 1223.5 c 128,-1,216
 573 1249 573 1249 593 1297 c 1,217,218
 624 1272 624 1272 643 1261.5 c 128,-1,219
 662 1251 662 1251 680 1251 c 0,192,193
EndSplineSet
Validated: 1
MultipleSubs2: "'medi' Medial Forms in Arabic lookup 3 subtable" glyph465 glyph847
MultipleSubs2: "'init' Initial Forms in Arabic lookup 2 subtable" glyph109 glyph847
MultipleSubs2: "'fina' Terminal Forms in Arabic lookup 1 subtable" glyph465 glyph847 uni25CC
MultipleSubs2: "'isol' Isolated Forms in Arabic lookup 0 subtable" glyph109 glyph847 uni25CC
EndChar

StartChar: uni0627
Encoding: 1575 1575 70
Width: 420
GlyphClass: 2
Flags: W
AnchorPoint: "Anchor-38" 163 -30 basechar 0
AnchorPoint: "Anchor-37" 266 1966 basechar 0
LayerCount: 2
Fore
SplineSet
154 408 m 0,0,1
 154 588 154 588 145.5 766 c 128,-1,2
 137 944 137 944 137 1124 c 0,3,4
 137 1184 137 1184 136 1255 c 128,-1,5
 135 1326 135 1326 154 1386 c 2,6,-1
 252 1702 l 1,7,8
 278 1676 278 1676 281 1632.5 c 128,-1,9
 284 1589 284 1589 286 1523.5 c 128,-1,10
 288 1458 288 1458 290 1376 c 128,-1,11
 292 1294 292 1294 293 1210 c 128,-1,12
 294 1126 294 1126 296 1048.5 c 128,-1,13
 298 971 298 971 300 913 c 2,14,-1
 300 731 l 2,15,16
 300 598 300 598 287 469.5 c 128,-1,17
 274 341 274 341 225 209 c 0,18,19
 217 191 217 191 203 159 c 128,-1,20
 189 127 189 127 147 88 c 1,21,22
 147 190 147 190 150.5 263 c 128,-1,23
 154 336 154 336 154 408 c 0,0,1
EndSplineSet
Validated: 33
MultipleSubs2: "'fina' Terminal Forms in Arabic lookup 1 subtable" glyph47
EndChar

StartChar: uni0628
Encoding: 1576 1576 71
Width: 2306
GlyphClass: 2
Flags: W
AnchorPoint: "Anchor-38" 1116 -860 basechar 0
AnchorPoint: "Anchor-37" 1075 962 basechar 0
LayerCount: 2
Fore
SplineSet
1549 698 m 2,0,-1
 1600 698 l 2,1,2
 2211 698 2211 698 2211 583 c 0,3,4
 2211 376 2211 376 1020 235 c 1,5,-1
 668 220 l 1,6,-1
 409 220 l 2,7,8
 398 220 398 220 398 209 c 1,9,10
 460 127 460 127 1108 127 c 2,11,-1
 1121 127 l 1,12,13
 2078 160 2078 160 2078 250 c 1,14,15
 2168 295 2168 295 2168 322 c 1,16,-1
 2201 322 l 1,17,-1
 2214 315 l 1,18,-1
 2243 315 l 1,19,20
 2137 119 2137 119 1878 33 c 1,21,22
 1382 -73 1382 -73 914 -73 c 0,23,24
 277 -73 277 -73 277 87 c 2,25,-1
 277 132 l 1,26,-1
 290 222 l 1,27,-1
 -176 274 l 1,28,-1
 -176 294 l 1,29,-1
 -140 315 l 1,30,-1
 -83 315 l 1,31,-1
 298 300 l 1,32,33
 493 542 493 542 806 615 c 1,34,35
 1184 698 1184 698 1549 698 c 2,0,-1
498 387 m 1,36,-1
 498 369 l 2,37,38
 498 311 498 311 665 311 c 0,39,40
 1229 311 1229 311 1915 460 c 1,41,-1
 1996 501 l 1,42,-1
 1996 519 l 2,43,44
 1996 549 1996 549 1714 562 c 1,45,-1
 1547 562 l 1,46,47
 655 507 655 507 533 407 c 1,48,-1
 498 387 l 1,36,-1
1391 -423 m 2,49,50
 1402 -434 1402 -434 1404 -439.5 c 128,-1,51
 1406 -445 1406 -445 1394 -456 c 0,52,53
 1350 -503 1350 -503 1307 -550 c 128,-1,54
 1264 -597 1264 -597 1218 -644 c 0,55,56
 1207 -656 1207 -656 1198 -660.5 c 128,-1,57
 1189 -665 1189 -665 1169 -647 c 2,58,-1
 1017 -495 l 2,59,60
 1002 -480 1002 -480 1002 -471 c 0,61,62
 1002 -464 1002 -464 1016 -452 c 0,63,64
 1060 -403 1060 -403 1102 -357 c 128,-1,65
 1144 -311 1144 -311 1187 -264 c 0,66,67
 1197 -250 1197 -250 1208 -250 c 0,68,69
 1218 -250 1218 -250 1227 -259 c 2,70,-1
 1391 -423 l 2,49,50
EndSplineSet
Validated: 1
MultipleSubs2: "'medi' Medial Forms in Arabic lookup 3 subtable" glyph465 glyph839
MultipleSubs2: "'init' Initial Forms in Arabic lookup 2 subtable" glyph109 glyph839
MultipleSubs2: "'fina' Terminal Forms in Arabic lookup 1 subtable" glyph53
EndChar

StartChar: uni062A
Encoding: 1578 1578 72
Width: 2306
GlyphClass: 2
Flags: W
AnchorPoint: "Anchor-38" 1228 -337 basechar 0
AnchorPoint: "Anchor-37" 1085 1187 basechar 0
LayerCount: 2
Fore
SplineSet
1535 698 m 2,0,-1
 1588 698 l 2,1,2
 2211 698 2211 698 2211 583 c 0,3,4
 2211 376 2211 376 995 235 c 1,5,-1
 637 220 l 1,6,-1
 373 220 l 2,7,8
 361 220 361 220 361 209 c 1,9,10
 424 127 424 127 1086 127 c 2,11,-1
 1099 127 l 1,12,13
 2075 160 2075 160 2075 250 c 1,14,15
 2167 295 2167 295 2167 322 c 1,16,-1
 2201 322 l 1,17,-1
 2213 315 l 1,18,-1
 2243 315 l 1,19,20
 2135 119 2135 119 1871 33 c 1,21,22
 1365 -73 1365 -73 888 -73 c 0,23,24
 238 -73 238 -73 238 87 c 2,25,-1
 238 132 l 1,26,-1
 251 222 l 1,27,-1
 -224 274 l 1,28,-1
 -224 294 l 1,29,-1
 -188 315 l 1,30,-1
 -129 315 l 1,31,-1
 259 300 l 1,32,33
 458 542 458 542 778 615 c 0,34,35
 1163 698 1163 698 1535 698 c 2,0,-1
463 387 m 1,36,-1
 463 369 l 2,37,38
 463 311 463 311 634 311 c 0,39,40
 1209 311 1209 311 1909 460 c 1,41,-1
 1992 501 l 1,42,-1
 1992 519 l 2,43,44
 1992 549 1992 549 1704 562 c 1,45,-1
 1533 562 l 1,46,47
 624 507 624 507 498 407 c 1,48,-1
 463 387 l 1,36,-1
918 1146 m 128,-1,50
 967 1193 967 1193 1010 1226 c 1,51,52
 1037 1241 1037 1241 1054 1222 c 0,53,54
 1099 1175 1099 1175 1142 1131 c 128,-1,55
 1185 1087 1185 1087 1216 1054 c 1,56,57
 1232 1068 1232 1068 1279 1111.5 c 128,-1,58
 1326 1155 1326 1155 1364 1194 c 0,59,60
 1380 1210 1380 1210 1390.5 1206.5 c 128,-1,61
 1401 1203 1401 1203 1414 1190 c 0,62,63
 1457 1142 1457 1142 1501 1095 c 128,-1,64
 1545 1048 1545 1048 1589 1001 c 0,65,66
 1608 985 1608 985 1586 972 c 1,67,68
 1546 932 1546 932 1509.5 894 c 128,-1,69
 1473 856 1473 856 1432 815 c 0,70,71
 1410 794 1410 794 1401 798.5 c 128,-1,72
 1392 803 1392 803 1381 815 c 0,73,74
 1338 860 1338 860 1295 903 c 128,-1,75
 1252 946 1252 946 1219 980 c 1,76,77
 1142 924 1142 924 1080 832 c 0,78,79
 1074 825 1074 825 1074 822 c 0,80,81
 1074 787 1074 787 1039 823 c 0,82,83
 986 874 986 874 936 926.5 c 128,-1,84
 886 979 886 979 835 1030 c 0,85,86
 828 1040 828 1040 826 1046.5 c 128,-1,87
 824 1053 824 1053 835 1065 c 0,88,49
 869 1099 869 1099 918 1146 c 128,-1,50
EndSplineSet
Validated: 1
MultipleSubs2: "'medi' Medial Forms in Arabic lookup 3 subtable" glyph465 glyph837
MultipleSubs2: "'init' Initial Forms in Arabic lookup 2 subtable" glyph109 glyph837
MultipleSubs2: "'fina' Terminal Forms in Arabic lookup 1 subtable" glyph55
EndChar

StartChar: uni062B
Encoding: 1579 1579 73
Width: 2306
GlyphClass: 2
Flags: W
AnchorPoint: "Anchor-38" 1228 -337 basechar 0
AnchorPoint: "Anchor-37" 1187 1597 basechar 0
LayerCount: 2
Fore
SplineSet
1526 698 m 2,0,-1
 1579 698 l 2,1,2
 2210 698 2210 698 2210 583 c 0,3,4
 2210 376 2210 376 979 235 c 1,5,-1
 616 220 l 1,6,-1
 349 220 l 2,7,8
 336 220 336 220 336 209 c 1,9,10
 400 127 400 127 1071 127 c 2,11,-1
 1085 127 l 1,12,13
 2073 161 2073 161 2073 250 c 1,14,15
 2167 295 2167 295 2167 322 c 1,16,-1
 2200 322 l 1,17,-1
 2213 315 l 1,18,-1
 2243 315 l 1,19,20
 2134 119 2134 119 1866 33 c 1,21,22
 1354 -73 1354 -73 870 -73 c 0,23,24
 212 -73 212 -73 212 87 c 2,25,-1
 212 132 l 1,26,-1
 225 222 l 1,27,-1
 -256 274 l 1,28,-1
 -256 294 l 1,29,-1
 -219 315 l 1,30,-1
 -160 315 l 1,31,-1
 233 300 l 1,32,33
 435 542 435 542 759 615 c 0,34,35
 1149 698 1149 698 1526 698 c 2,0,-1
440 387 m 1,36,-1
 440 369 l 2,37,38
 440 311 440 311 613 311 c 0,39,40
 1196 311 1196 311 1905 460 c 1,41,-1
 1989 501 l 1,42,-1
 1989 519 l 2,43,44
 1989 549 1989 549 1697 562 c 1,45,-1
 1524 562 l 1,46,47
 602 507 602 507 475 407 c 1,48,-1
 440 387 l 1,36,-1
939 1128 m 128,-1,50
 988 1175 988 1175 1031 1208 c 1,51,52
 1058 1223 1058 1223 1075 1204 c 0,53,54
 1120 1157 1120 1157 1163 1113 c 128,-1,55
 1206 1069 1206 1069 1237 1036 c 1,56,57
 1253 1050 1253 1050 1300 1093.5 c 128,-1,58
 1347 1137 1347 1137 1385 1176 c 0,59,60
 1401 1192 1401 1192 1411.5 1188.5 c 128,-1,61
 1422 1185 1422 1185 1435 1172 c 0,62,63
 1478 1124 1478 1124 1522 1077 c 128,-1,64
 1566 1030 1566 1030 1610 983 c 0,65,66
 1629 967 1629 967 1607 954 c 1,67,68
 1567 914 1567 914 1530.5 876 c 128,-1,69
 1494 838 1494 838 1453 797 c 0,70,71
 1431 776 1431 776 1422 780.5 c 128,-1,72
 1413 785 1413 785 1402 797 c 0,73,74
 1359 842 1359 842 1316 885 c 128,-1,75
 1273 928 1273 928 1240 962 c 1,76,77
 1163 906 1163 906 1101 814 c 0,78,79
 1095 807 1095 807 1095 804 c 0,80,81
 1095 769 1095 769 1060 805 c 0,82,83
 1007 856 1007 856 957 908.5 c 128,-1,84
 907 961 907 961 856 1012 c 0,85,86
 849 1022 849 1022 847 1028.5 c 128,-1,87
 845 1035 845 1035 856 1047 c 0,88,49
 890 1081 890 1081 939 1128 c 128,-1,50
1257 1110 m 2,89,90
 1248 1101 1248 1101 1238 1101 c 0,91,92
 1227 1101 1227 1101 1217 1115 c 0,93,94
 1174 1162 1174 1162 1132 1208 c 128,-1,95
 1090 1254 1090 1254 1046 1303 c 0,96,97
 1032 1315 1032 1315 1032 1322 c 0,98,99
 1032 1331 1032 1331 1047 1346 c 2,100,-1
 1199 1498 l 2,101,102
 1219 1516 1219 1516 1228 1511.5 c 128,-1,103
 1237 1507 1237 1507 1248 1495 c 0,104,105
 1294 1448 1294 1448 1337 1401 c 128,-1,106
 1380 1354 1380 1354 1424 1307 c 0,107,108
 1436 1296 1436 1296 1434 1290.5 c 128,-1,109
 1432 1285 1432 1285 1421 1274 c 2,110,-1
 1257 1110 l 2,89,90
EndSplineSet
Validated: 1
MultipleSubs2: "'medi' Medial Forms in Arabic lookup 3 subtable" glyph465 glyph838
MultipleSubs2: "'init' Initial Forms in Arabic lookup 2 subtable" glyph109 glyph838
MultipleSubs2: "'fina' Terminal Forms in Arabic lookup 1 subtable" glyph57
EndChar

StartChar: uni062C
Encoding: 1580 1580 74
Width: 1587
GlyphClass: 2
Flags: W
AnchorPoint: "Anchor-38" 921 -747 basechar 0
AnchorPoint: "Anchor-37" 563 1484 basechar 0
LayerCount: 2
Fore
SplineSet
954 1138 m 1,0,-1
 1080 1100 l 1,1,-1
 1080 1037 l 1,2,3
 1068 958 1068 958 648 523 c 1,4,5
 524 297 524 297 524 153 c 2,6,-1
 524 16 l 1,7,-1
 526 16 l 1,8,9
 1050 466 1050 466 1347 526 c 1,10,11
 1518 526 1518 526 1545 267 c 1,12,-1
 1545 63 l 2,13,14
 1545 -373 1545 -373 1014 -615 c 1,15,-1
 817 -650 l 1,16,17
 510 -650 510 -650 393 -336 c 1,18,-1
 365 -243 l 1,19,20
 -20 -559 -20 -559 -57 -559 c 2,21,-1
 -128 -559 l 1,22,23
 107 -407 107 -407 359 -138 c 1,24,-1
 359 -119 l 2,25,26
 359 371 359 371 880 949 c 1,27,-1
 880 955 l 1,28,-1
 876 959 l 1,29,-1
 703 959 l 2,30,31
 536 959 536 959 431 813 c 1,32,-1
 392 854 l 1,33,34
 490 1127 490 1127 792 1127 c 1,35,-1
 954 1138 l 1,0,-1
548 -85 m 1,36,37
 588 -324 588 -324 895 -324 c 0,38,39
 1294 -324 1294 -324 1458 87 c 1,40,-1
 1469 142 l 1,41,-1
 1469 210 l 2,42,43
 1469 327 1469 327 1312 347 c 1,44,-1
 1190 347 l 2,45,46
 996 347 996 347 548 -54 c 1,47,-1
 548 -85 l 1,36,37
1238 11 m 2,48,49
 1249 0 1249 0 1251.5 -5.5 c 128,-1,50
 1254 -11 1254 -11 1242 -22 c 0,51,52
 1197 -69 1197 -69 1154 -116 c 128,-1,53
 1111 -163 1111 -163 1066 -210 c 0,54,55
 1054 -222 1054 -222 1045.5 -226.5 c 128,-1,56
 1037 -231 1037 -231 1016 -213 c 2,57,-1
 865 -61 l 2,58,59
 850 -46 850 -46 850 -37 c 0,60,61
 850 -30 850 -30 863 -18 c 0,62,63
 907 31 907 31 949.5 77 c 128,-1,64
 992 123 992 123 1034 170 c 0,65,66
 1045 184 1045 184 1056 184 c 0,67,68
 1065 184 1065 184 1074 175 c 2,69,-1
 1238 11 l 2,48,49
EndSplineSet
Validated: 1
MultipleSubs2: "'medi' Medial Forms in Arabic lookup 3 subtable" glyph491 glyph839
MultipleSubs2: "'init' Initial Forms in Arabic lookup 2 subtable" glyph135 glyph839
MultipleSubs2: "'fina' Terminal Forms in Arabic lookup 1 subtable" glyph58
EndChar

StartChar: uni062D
Encoding: 1581 1581 75
Width: 1587
GlyphClass: 2
Flags: W
AnchorPoint: "Anchor-38" 921 -747 basechar 0
AnchorPoint: "Anchor-37" 563 1484 basechar 0
LayerCount: 2
Fore
SplineSet
604 523 m 1,1,2
 475 296 475 296 475 153 c 2,3,-1
 475 16 l 1,4,-1
 478 16 l 1,5,6
 1029 466 1029 466 1339 526 c 1,7,8
 1518 526 1518 526 1546 267 c 1,9,-1
 1546 63 l 2,10,11
 1546 -373 1546 -373 990 -615 c 1,12,-1
 783 -650 l 1,13,14
 461 -650 461 -650 338 -336 c 1,15,-1
 309 -243 l 1,16,17
 -96 -559 -96 -559 -135 -559 c 2,18,-1
 -208 -559 l 1,19,20
 40 -407 40 -407 303 -138 c 1,21,-1
 303 -119 l 2,22,23
 303 372 303 372 850 950 c 1,24,-1
 850 969 l 1,25,-1
 1014 960 l 1,26,0
 902 816 902 816 604 523 c 1,1,2
846 959 m 1,27,-1
 663 959 l 2,28,29
 488 959 488 959 379 814 c 1,30,-1
 337 854 l 1,31,32
 440 1127 440 1127 757 1127 c 1,33,-1
 927 1138 l 1,34,-1
 1058 1100 l 1,35,-1
 1058 1037 l 1,36,37
 1054 1009 1054 1009 999 941 c 1,38,-1
 857 948 l 1,39,-1
 846 959 l 1,27,-1
500 -85 m 1,40,41
 542 -324 542 -324 865 -324 c 0,42,43
 1285 -324 1285 -324 1456 87 c 1,44,-1
 1468 143 l 1,45,-1
 1468 210 l 2,46,47
 1468 327 1468 327 1304 347 c 1,48,-1
 1174 347 l 2,49,50
 970 347 970 347 500 -54 c 1,51,-1
 500 -85 l 1,40,41
EndSplineSet
Validated: 5
MultipleSubs2: "'medi' Medial Forms in Arabic lookup 3 subtable" glyph491
MultipleSubs2: "'init' Initial Forms in Arabic lookup 2 subtable" glyph135
MultipleSubs2: "'fina' Terminal Forms in Arabic lookup 1 subtable" glyph60
EndChar

StartChar: uni062E
Encoding: 1582 1582 76
Width: 1587
GlyphClass: 2
Flags: W
AnchorPoint: "Anchor-38" 921 -747 basechar 0
AnchorPoint: "Anchor-37" 563 1894 basechar 0
LayerCount: 2
Fore
SplineSet
916 1138 m 1,0,-1
 1049 1101 l 1,1,-1
 1049 1037 l 1,2,3
 1037 958 1037 958 588 523 c 1,4,5
 455 296 455 296 455 153 c 2,6,-1
 455 16 l 1,7,-1
 459 16 l 1,8,9
 1020 466 1020 466 1336 526 c 1,10,11
 1518 526 1518 526 1546 267 c 1,12,-1
 1546 63 l 2,13,14
 1546 -373 1546 -373 980 -615 c 1,15,-1
 769 -650 l 1,16,17
 442 -650 442 -650 317 -336 c 1,18,-1
 287 -242 l 1,19,20
 -126 -559 -126 -559 -166 -559 c 2,21,-1
 -240 -559 l 1,22,23
 12 -407 12 -407 280 -138 c 1,24,-1
 280 -119 l 2,25,26
 280 372 280 372 837 950 c 1,27,-1
 837 955 l 1,28,-1
 833 959 l 1,29,-1
 647 959 l 2,30,31
 468 959 468 959 357 814 c 1,32,-1
 315 854 l 1,33,34
 420 1127 420 1127 743 1127 c 1,35,-1
 916 1138 l 1,0,-1
480 -85 m 1,36,37
 524 -324 524 -324 852 -324 c 0,38,39
 1281 -324 1281 -324 1456 87 c 1,40,-1
 1467 143 l 1,41,-1
 1467 210 l 2,42,43
 1467 327 1467 327 1299 347 c 1,44,-1
 1168 347 l 2,45,46
 960 347 960 347 480 -54 c 1,47,-1
 480 -85 l 1,36,37
777 1451 m 2,48,49
 788 1440 788 1440 790.5 1434.5 c 128,-1,50
 793 1429 793 1429 781 1418 c 0,51,52
 736 1371 736 1371 693 1324 c 128,-1,53
 650 1277 650 1277 605 1230 c 0,54,55
 593 1218 593 1218 584 1213.5 c 128,-1,56
 575 1209 575 1209 555 1227 c 2,57,-1
 404 1379 l 2,58,59
 388 1394 388 1394 388 1403 c 0,60,61
 388 1410 388 1410 402 1422 c 0,62,63
 446 1471 446 1471 488.5 1517 c 128,-1,64
 531 1563 531 1563 573 1610 c 0,65,66
 583 1624 583 1624 594 1624 c 0,67,68
 604 1624 604 1624 613 1615 c 2,69,-1
 777 1451 l 2,48,49
EndSplineSet
Validated: 1
MultipleSubs2: "'medi' Medial Forms in Arabic lookup 3 subtable" glyph491 glyph836
MultipleSubs2: "'init' Initial Forms in Arabic lookup 2 subtable" glyph135 glyph836
MultipleSubs2: "'fina' Terminal Forms in Arabic lookup 1 subtable" glyph61
EndChar

StartChar: uni062F
Encoding: 1583 1583 77
Width: 672
GlyphClass: 2
Flags: W
AnchorPoint: "Anchor-38" 204 -184 basechar 0
AnchorPoint: "Anchor-37" 317 1198 basechar 0
LayerCount: 2
Fore
SplineSet
387 247 m 1,0,1
 393 308 393 308 375 359.5 c 128,-1,2
 357 411 357 411 323.5 450.5 c 128,-1,3
 290 490 290 490 242 519.5 c 128,-1,4
 194 549 194 549 138 574 c 0,5,6
 127 579 127 579 127 588 c 0,7,8
 127 592 127 592 127 597 c 0,9,10
 129 604 129 604 136.5 619 c 128,-1,11
 144 634 144 634 151.5 650 c 128,-1,12
 159 666 159 666 164.5 680 c 128,-1,13
 170 694 170 694 172 700 c 0,14,15
 175 704 175 704 178.5 714.5 c 128,-1,16
 182 725 182 725 186 739.5 c 128,-1,17
 190 754 190 754 195.5 770 c 128,-1,18
 201 786 201 786 206 800.5 c 128,-1,19
 211 815 211 815 214 825.5 c 128,-1,20
 217 836 217 836 219 840 c 0,21,22
 221 848 221 848 225.5 860 c 128,-1,23
 230 872 230 872 257 872 c 1,24,25
 302 863 302 863 342.5 845 c 128,-1,26
 383 827 383 827 418 800.5 c 128,-1,27
 453 774 453 774 481.5 740 c 128,-1,28
 510 706 510 706 530 667.5 c 128,-1,29
 550 629 550 629 561.5 586.5 c 128,-1,30
 573 544 573 544 573 498 c 0,31,32
 571 452 571 452 559.5 409.5 c 128,-1,33
 548 367 548 367 530 324.5 c 128,-1,34
 512 282 512 282 488.5 242 c 128,-1,35
 465 202 465 202 442 162 c 0,36,37
 440 160 440 160 431 145.5 c 128,-1,38
 422 131 422 131 406.5 109.5 c 128,-1,39
 391 88 391 88 373 63.5 c 128,-1,40
 355 39 355 39 333 8 c 1,41,42
 311 3 311 3 282 -5 c 128,-1,43
 253 -13 253 -13 219.5 -22.5 c 128,-1,44
 186 -32 186 -32 150 -41 c 128,-1,45
 114 -50 114 -50 82.5 -59 c 128,-1,46
 51 -68 51 -68 28 -73.5 c 128,-1,47
 5 -79 5 -79 -6 -82 c 0,48,49
 -8 -82 -8 -82 -19 -84 c 128,-1,50
 -30 -86 -30 -86 -40 -86 c 0,51,52
 -60 -86 -60 -86 -65 -75.5 c 128,-1,53
 -70 -65 -70 -65 -47 -51 c 1,54,55
 -35 -39 -35 -39 -7 -20 c 128,-1,56
 21 -1 21 -1 59 23.5 c 128,-1,57
 97 48 97 48 141 76.5 c 128,-1,58
 185 105 185 105 230 135 c 128,-1,59
 275 165 275 165 316.5 194.5 c 128,-1,60
 358 224 358 224 387 247 c 1,0,1
EndSplineSet
Validated: 33
MultipleSubs2: "'fina' Terminal Forms in Arabic lookup 1 subtable" glyph62
EndChar

StartChar: uni0630
Encoding: 1584 1584 78
Width: 672
GlyphClass: 2
Flags: W
AnchorPoint: "Anchor-38" 184 -184 basechar 0
AnchorPoint: "Anchor-37" 358 1751 basechar 0
LayerCount: 2
Fore
SplineSet
581 1385 m 0,0,1
 592 1374 592 1374 594 1369.5 c 128,-1,2
 596 1365 596 1365 585 1351 c 0,3,4
 542 1304 542 1304 498 1256.5 c 128,-1,5
 454 1209 454 1209 411 1162 c 0,6,7
 399 1150 399 1150 390 1145.5 c 128,-1,8
 381 1141 381 1141 361 1159 c 0,9,10
 320 1199 320 1199 282.5 1238 c 128,-1,11
 245 1277 245 1277 206 1315 c 0,12,13
 192 1328 192 1328 192 1335 c 0,14,15
 192 1344 192 1344 205 1357 c 0,16,17
 248 1404 248 1404 292 1451 c 128,-1,18
 336 1498 336 1498 379 1544 c 1,19,20
 396 1573 396 1573 419 1545 c 0,21,22
 459 1504 459 1504 500 1464 c 128,-1,23
 541 1424 541 1424 581 1385 c 0,0,1
387 247 m 1,24,25
 393 308 393 308 375 359.5 c 128,-1,26
 357 411 357 411 323.5 450.5 c 128,-1,27
 290 490 290 490 242 519.5 c 128,-1,28
 194 549 194 549 138 574 c 0,29,30
 127 579 127 579 127 588 c 0,31,32
 127 592 127 592 127 597 c 0,33,34
 129 604 129 604 136.5 619 c 128,-1,35
 144 634 144 634 151.5 650 c 128,-1,36
 159 666 159 666 164.5 680 c 128,-1,37
 170 694 170 694 172 700 c 0,38,39
 175 704 175 704 178.5 714.5 c 128,-1,40
 182 725 182 725 186 739.5 c 128,-1,41
 190 754 190 754 195.5 770 c 128,-1,42
 201 786 201 786 206 800.5 c 128,-1,43
 211 815 211 815 214 825.5 c 128,-1,44
 217 836 217 836 219 840 c 0,45,46
 221 848 221 848 225.5 860 c 128,-1,47
 230 872 230 872 257 872 c 1,48,49
 302 863 302 863 342.5 845 c 128,-1,50
 383 827 383 827 418 800.5 c 128,-1,51
 453 774 453 774 481.5 740 c 128,-1,52
 510 706 510 706 530 667.5 c 128,-1,53
 550 629 550 629 561.5 586.5 c 128,-1,54
 573 544 573 544 573 498 c 0,55,56
 571 452 571 452 559.5 409.5 c 128,-1,57
 548 367 548 367 530 324.5 c 128,-1,58
 512 282 512 282 488.5 242 c 128,-1,59
 465 202 465 202 442 162 c 0,60,61
 440 160 440 160 431 145.5 c 128,-1,62
 422 131 422 131 406.5 109.5 c 128,-1,63
 391 88 391 88 373 63.5 c 128,-1,64
 355 39 355 39 333 8 c 1,65,66
 311 3 311 3 282 -5 c 128,-1,67
 253 -13 253 -13 219.5 -22.5 c 128,-1,68
 186 -32 186 -32 150 -41 c 128,-1,69
 114 -50 114 -50 82.5 -59 c 128,-1,70
 51 -68 51 -68 28 -73.5 c 128,-1,71
 5 -79 5 -79 -6 -82 c 0,72,73
 -8 -82 -8 -82 -19 -84 c 128,-1,74
 -30 -86 -30 -86 -40 -86 c 0,75,76
 -60 -86 -60 -86 -65 -75.5 c 128,-1,77
 -70 -65 -70 -65 -47 -51 c 1,78,79
 -35 -39 -35 -39 -7 -20 c 128,-1,80
 21 -1 21 -1 59 23.5 c 128,-1,81
 97 48 97 48 141 76.5 c 128,-1,82
 185 105 185 105 230 135 c 128,-1,83
 275 165 275 165 316.5 194.5 c 128,-1,84
 358 224 358 224 387 247 c 1,24,25
EndSplineSet
Validated: 33
MultipleSubs2: "'fina' Terminal Forms in Arabic lookup 1 subtable" glyph64
EndChar

StartChar: uni0631
Encoding: 1585 1585 79
Width: 575
GlyphClass: 2
Flags: W
AnchorPoint: "Anchor-38" 143 -184 basechar 0
AnchorPoint: "Anchor-37" 399 1075 basechar 0
LayerCount: 2
Fore
SplineSet
437 711 m 1,0,1
 455 752 455 752 477.5 743.5 c 128,-1,2
 500 735 500 735 500 707 c 0,3,4
 498 635 498 635 489.5 568 c 128,-1,5
 481 501 481 501 469 435 c 0,6,7
 451 335 451 335 421 229 c 128,-1,8
 391 123 391 123 339 28 c 0,9,10
 326 0 326 0 291 -14.5 c 128,-1,11
 256 -29 256 -29 234 -38 c 0,12,13
 202 -48 202 -48 156 -62.5 c 128,-1,14
 110 -77 110 -77 67 -91 c 128,-1,15
 24 -105 24 -105 -10.5 -115 c 128,-1,16
 -45 -125 -45 -125 -46 -125 c 0,17,18
 -102 -145 -102 -145 -73 -99 c 1,19,20
 2 -37 2 -37 74.5 26 c 128,-1,21
 147 89 147 89 209 159 c 128,-1,22
 271 229 271 229 319.5 309 c 128,-1,23
 368 389 368 389 392 484 c 0,24,25
 404 540 404 540 413.5 597 c 128,-1,26
 423 654 423 654 437 711 c 1,0,1
EndSplineSet
Validated: 1
MultipleSubs2: "'fina' Terminal Forms in Arabic lookup 1 subtable" uni0631.1
EndChar

StartChar: uni0632
Encoding: 1586 1586 80
Width: 575
GlyphClass: 2
Flags: W
AnchorPoint: "Anchor-38" 143 -204 basechar 0
AnchorPoint: "Anchor-37" 419 1761 basechar 0
LayerCount: 2
Fore
SplineSet
645 1279 m 0,0,1
 656 1268 656 1268 658 1263.5 c 128,-1,2
 660 1259 660 1259 649 1245 c 0,3,4
 606 1197 606 1197 562 1150 c 128,-1,5
 518 1103 518 1103 475 1056 c 0,6,7
 463 1044 463 1044 453.5 1039.5 c 128,-1,8
 444 1035 444 1035 426 1054 c 0,9,10
 385 1093 385 1093 347 1132 c 128,-1,11
 309 1171 309 1171 270 1209 c 0,12,13
 257 1223 257 1223 257 1229 c 0,14,15
 257 1238 257 1238 270 1250 c 0,16,17
 312 1297 312 1297 356 1344 c 128,-1,18
 400 1391 400 1391 443 1438 c 0,19,20
 460 1462 460 1462 481 1441 c 0,21,22
 523 1398 523 1398 564 1358 c 128,-1,23
 605 1318 605 1318 645 1279 c 0,0,1
437 711 m 1,24,25
 455 752 455 752 477.5 743.5 c 128,-1,26
 500 735 500 735 500 707 c 0,27,28
 498 635 498 635 489.5 568 c 128,-1,29
 481 501 481 501 469 435 c 0,30,31
 451 335 451 335 421 229 c 128,-1,32
 391 123 391 123 339 28 c 0,33,34
 326 0 326 0 291 -14.5 c 128,-1,35
 256 -29 256 -29 234 -38 c 0,36,37
 202 -48 202 -48 156 -62.5 c 128,-1,38
 110 -77 110 -77 67 -91 c 128,-1,39
 24 -105 24 -105 -10.5 -115 c 128,-1,40
 -45 -125 -45 -125 -46 -125 c 0,41,42
 -102 -145 -102 -145 -73 -99 c 1,43,44
 2 -37 2 -37 74.5 26 c 128,-1,45
 147 89 147 89 209 159 c 128,-1,46
 271 229 271 229 319.5 309 c 128,-1,47
 368 389 368 389 392 484 c 0,48,49
 404 540 404 540 413.5 597 c 128,-1,50
 423 654 423 654 437 711 c 1,24,25
EndSplineSet
Validated: 1
MultipleSubs2: "'fina' Terminal Forms in Arabic lookup 1 subtable" h.002
EndChar

StartChar: uni0633
Encoding: 1587 1587 81
Width: 1980
GlyphClass: 2
Flags: W
AnchorPoint: "Anchor-38" 983 -727 basechar 0
AnchorPoint: "Anchor-37" 634 1464 basechar 0
LayerCount: 2
Fore
SplineSet
1515 642 m 1,0,1
 1515 -1 1515 -1 1134 -357 c 1,2,3
 701 -647 701 -647 483 -647 c 2,4,-1
 357 -647 l 2,5,6
 250 -647 250 -647 105 -463 c 1,7,-1
 -192 -512 l 1,8,-1
 -208 -490 l 1,9,-1
 -208 -470 l 1,10,-1
 116 -345 l 1,11,12
 116 -130 116 -130 235 136 c 1,13,14
 435 429 435 429 673 538 c 1,15,16
 1037 714 1037 714 1176 714 c 2,17,-1
 1188 714 l 1,18,19
 1309 670 1309 670 1309 605 c 2,20,-1
 1309 567 l 2,21,22
 1309 241 1309 241 608 -260 c 1,23,-1
 479 -319 l 1,24,-1
 479 -341 l 1,25,-1
 555 -341 l 2,26,27
 855 -341 855 -341 1272 51 c 1,28,29
 1414 237 1414 237 1414 468 c 2,30,-1
 1414 704 l 2,31,32
 1414 757 1414 757 1411 803 c 1,33,-1
 1519 793 l 1,34,-1
 1515 642 l 1,0,1
1393 843 m 1,36,-1
 1423 1049 l 1,37,-1
 1446 1049 l 2,38,39
 1480 1049 1480 1049 1480 1004 c 1,40,-1
 1483 1000 l 1,41,-1
 1555 1000 l 2,42,43
 1590 1000 1590 1000 1646 1116 c 1,44,-1
 1712 1087 l 1,45,46
 1765 1087 1765 1087 1813 1248 c 1,47,-1
 1844 1248 l 1,48,-1
 1867 1215 l 1,49,50
 1846 918 1846 918 1714 918 c 1,51,-1
 1714 870 l 1,52,-1
 1681 918 l 1,53,-1
 1672 918 l 1,54,55
 1597 809 1597 809 1477 764 c 1,56,-1
 1477 775 l 1,57,-1
 1413 782 l 1,58,35
 1408 843 1408 843 1393 843 c 1,36,-1
209 -167 m 1,59,-1
 209 -239 l 1,60,61
 229 -292 229 -292 266 -292 c 0,62,63
 478 -292 478 -292 1083 250 c 1,64,-1
 1152 358 l 1,65,-1
 1152 404 l 1,66,-1
 1131 433 l 1,67,-1
 1043 433 l 1,68,69
 724 378 724 378 306 -9 c 1,70,-1
 209 -167 l 1,59,-1
EndSplineSet
Validated: 5
MultipleSubs2: "'medi' Medial Forms in Arabic lookup 3 subtable" glyph517
MultipleSubs2: "'init' Initial Forms in Arabic lookup 2 subtable" glyph161
MultipleSubs2: "'fina' Terminal Forms in Arabic lookup 1 subtable" glyph81
EndChar

StartChar: uni0634
Encoding: 1588 1588 82
Width: 1980
GlyphClass: 2
Flags: W
AnchorPoint: "Anchor-38" 983 -727 basechar 0
AnchorPoint: "Anchor-37" 399 1863 basechar 0
LayerCount: 2
Fore
SplineSet
1813 1248 m 1,0,-1
 1843 1248 l 1,1,-1
 1867 1215 l 1,2,3
 1846 918 1846 918 1712 918 c 1,4,-1
 1712 874 l 1,5,-1
 1678 918 l 1,6,-1
 1669 918 l 1,7,8
 1593 808 1593 808 1501 784 c 1,9,-1
 1510 642 l 1,10,11
 1510 -1 1510 -1 1122 -357 c 1,12,13
 683 -647 683 -647 461 -647 c 2,14,-1
 334 -647 l 2,15,16
 225 -647 225 -647 78 -462 c 1,17,-1
 -224 -512 l 1,18,-1
 -240 -490 l 1,19,-1
 -240 -470 l 1,20,-1
 89 -345 l 1,21,22
 89 -130 89 -130 210 136 c 1,23,24
 413 429 413 429 655 538 c 1,25,26
 1024 714 1024 714 1166 714 c 2,27,-1
 1178 714 l 1,28,29
 1300 670 1300 670 1300 605 c 2,30,-1
 1300 567 l 2,31,32
 1300 241 1300 241 589 -260 c 1,33,-1
 457 -319 l 1,34,-1
 457 -341 l 1,35,-1
 535 -341 l 2,36,37
 839 -341 839 -341 1263 51 c 1,38,39
 1407 237 1407 237 1407 468 c 2,40,-1
 1407 704 l 2,41,42
 1407 843 1407 843 1386 843 c 1,43,-1
 1417 1049 l 1,44,-1
 1440 1049 l 2,45,46
 1474 1049 1474 1049 1474 1004 c 1,47,-1
 1477 1000 l 1,48,-1
 1550 1000 l 2,49,50
 1587 1000 1587 1000 1643 1116 c 1,51,-1
 1709 1087 l 1,52,53
 1764 1087 1764 1087 1813 1248 c 1,0,-1
183 -167 m 1,54,-1
 183 -239 l 1,55,56
 204 -292 204 -292 241 -292 c 0,57,58
 457 -292 457 -292 1071 250 c 1,59,-1
 1141 358 l 1,60,-1
 1141 404 l 1,61,-1
 1120 433 l 1,62,-1
 1030 433 l 1,63,64
 706 378 706 378 282 -9 c 1,65,-1
 183 -167 l 1,54,-1
1122 1493 m 128,-1,67
 1171 1540 1171 1540 1214 1573 c 1,68,69
 1241 1588 1241 1588 1258 1569 c 0,70,71
 1303 1522 1303 1522 1346 1478 c 128,-1,72
 1389 1434 1389 1434 1420 1401 c 1,73,74
 1436 1415 1436 1415 1483 1458.5 c 128,-1,75
 1530 1502 1530 1502 1568 1541 c 0,76,77
 1584 1557 1584 1557 1594.5 1553.5 c 128,-1,78
 1605 1550 1605 1550 1618 1537 c 0,79,80
 1661 1489 1661 1489 1705 1442 c 128,-1,81
 1749 1395 1749 1395 1793 1348 c 0,82,83
 1812 1332 1812 1332 1790 1319 c 1,84,85
 1750 1279 1750 1279 1713.5 1241 c 128,-1,86
 1677 1203 1677 1203 1636 1162 c 0,87,88
 1614 1141 1614 1141 1605 1145.5 c 128,-1,89
 1596 1150 1596 1150 1585 1162 c 0,90,91
 1542 1207 1542 1207 1499 1250 c 128,-1,92
 1456 1293 1456 1293 1423 1327 c 1,93,94
 1346 1271 1346 1271 1284 1179 c 0,95,96
 1278 1172 1278 1172 1278 1169 c 0,97,98
 1278 1134 1278 1134 1243 1170 c 0,99,100
 1190 1221 1190 1221 1140 1273.5 c 128,-1,101
 1090 1326 1090 1326 1039 1377 c 0,102,103
 1032 1387 1032 1387 1030 1393.5 c 128,-1,104
 1028 1400 1028 1400 1039 1412 c 0,105,66
 1073 1446 1073 1446 1122 1493 c 128,-1,67
1440 1475 m 2,106,107
 1431 1466 1431 1466 1421 1466 c 0,108,109
 1410 1466 1410 1466 1400 1480 c 0,110,111
 1357 1527 1357 1527 1315 1573 c 128,-1,112
 1273 1619 1273 1619 1229 1668 c 0,113,114
 1215 1680 1215 1680 1215 1687 c 0,115,116
 1215 1696 1215 1696 1230 1711 c 2,117,-1
 1382 1863 l 2,118,119
 1402 1881 1402 1881 1411 1876.5 c 128,-1,120
 1420 1872 1420 1872 1431 1860 c 0,121,122
 1477 1813 1477 1813 1520 1766 c 128,-1,123
 1563 1719 1563 1719 1607 1672 c 0,124,125
 1619 1661 1619 1661 1617 1655.5 c 128,-1,126
 1615 1650 1615 1650 1604 1639 c 2,127,-1
 1440 1475 l 2,106,107
EndSplineSet
Validated: 1
MultipleSubs2: "'medi' Medial Forms in Arabic lookup 3 subtable" glyph517 glyph838
MultipleSubs2: "'init' Initial Forms in Arabic lookup 2 subtable" glyph161 glyph838
MultipleSubs2: "'fina' Terminal Forms in Arabic lookup 1 subtable" glyph82
EndChar

StartChar: uni0635
Encoding: 1589 1589 83
Width: 2263
GlyphClass: 2
Flags: W
AnchorPoint: "Anchor-38" 983 -727 basechar 0
AnchorPoint: "Anchor-37" 696 1382 basechar 0
LayerCount: 2
Fore
SplineSet
1611 643 m 1,0,-1
 1611 561 l 1,1,2
 1600 -5 1600 -5 1203 -360 c 0,3,4
 1055 -493 1055 -493 558 -645 c 1,5,-1
 392 -645 l 2,6,7
 217 -645 217 -645 103 -470 c 1,8,-1
 -224 -517 l 1,9,-1
 -240 -496 l 1,10,-1
 -240 -477 l 1,11,-1
 108 -359 l 1,12,13
 136 -70 136 -70 194 25 c 0,14,15
 382 345 382 345 769 511 c 1,16,17
 1125 641 1125 641 1241 641 c 1,18,19
 1378 619 1378 619 1378 502 c 0,20,21
 1378 214 1378 214 699 -233 c 1,22,-1
 493 -335 l 1,23,-1
 493 -355 l 1,24,-1
 574 -355 l 2,25,26
 893 -355 893 -355 1342 15 c 1,27,28
 1502 214 1502 214 1502 456 c 2,29,-1
 1502 655 l 1,30,-1
 1498 706 l 1,31,-1
 1617 680 l 1,32,-1
 1611 643 l 1,0,-1
1483 843 m 1,33,34
 1497 993 1497 993 1538 993 c 1,35,-1
 1650 982 l 1,36,37
 1671 988 1671 988 1852 1292 c 1,38,39
 1943 1385 1943 1385 2027 1392 c 1,40,41
 2126 1392 2126 1392 2149 1230 c 1,42,43
 1997 657 1997 657 1654 657 c 1,44,-1
 1550 639 l 1,45,-1
 1577 660 l 1,46,-1
 1500 686 l 1,47,-1
 1483 843 l 1,33,34
1754 982 m 1,48,-1
 1754 970 l 1,49,-1
 1787 970 l 2,50,51
 1939 970 1939 970 2032 1126 c 1,52,-1
 2032 1192 l 1,53,-1
 1999 1231 l 1,54,-1
 1946 1231 l 1,55,56
 1867 1183 1867 1183 1754 982 c 1,48,-1
204 -213 m 2,57,-1
 204 -258 l 1,58,-1
 246 -308 l 1,59,-1
 283 -308 l 1,60,61
 556 -265 556 -265 1121 191 c 1,62,-1
 1214 305 l 1,63,-1
 1214 348 l 1,64,-1
 1191 375 l 1,65,-1
 1104 375 l 2,66,67
 857 375 857 375 345 -8 c 1,68,69
 204 -151 204 -151 204 -213 c 2,57,-1
EndSplineSet
Validated: 5
MultipleSubs2: "'medi' Medial Forms in Arabic lookup 3 subtable" glyph543
MultipleSubs2: "'init' Initial Forms in Arabic lookup 2 subtable" glyph187
MultipleSubs2: "'fina' Terminal Forms in Arabic lookup 1 subtable" glyph83
EndChar

StartChar: uni0636
Encoding: 1590 1590 84
Width: 2263
GlyphClass: 2
Flags: W
AnchorPoint: "Anchor-38" 983 -727 basechar 0
AnchorPoint: "Anchor-37" 696 1382 basechar 0
LayerCount: 2
Fore
SplineSet
2027 1392 m 1,0,1
 2126 1392 2126 1392 2149 1230 c 1,2,3
 1997 657 1997 657 1652 657 c 2,4,-1
 1613 657 l 1,5,-1
 1600 641 l 1,6,-1
 1600 561 l 2,7,8
 1600 -5 1600 -5 1203 -360 c 0,9,10
 1055 -493 1055 -493 558 -645 c 1,11,-1
 392 -645 l 2,12,13
 217 -645 217 -645 103 -470 c 1,14,-1
 -224 -517 l 1,15,-1
 -240 -496 l 1,16,-1
 -240 -477 l 1,17,-1
 108 -359 l 1,18,19
 136 -70 136 -70 194 25 c 0,20,21
 382 345 382 345 769 511 c 1,22,23
 1125 641 1125 641 1241 641 c 1,24,25
 1378 619 1378 619 1378 502 c 0,26,27
 1378 214 1378 214 699 -233 c 1,28,-1
 493 -335 l 1,29,-1
 493 -355 l 1,30,-1
 574 -355 l 2,31,32
 893 -355 893 -355 1342 15 c 1,33,34
 1502 214 1502 214 1502 456 c 2,35,-1
 1502 655 l 1,36,-1
 1483 843 l 1,37,38
 1497 993 1497 993 1538 993 c 1,39,-1
 1650 982 l 1,40,41
 1671 988 1671 988 1852 1292 c 1,42,43
 1943 1385 1943 1385 2027 1392 c 1,0,1
1754 982 m 1,44,-1
 1754 970 l 1,45,-1
 1787 970 l 2,46,47
 1939 970 1939 970 2032 1126 c 1,48,-1
 2032 1192 l 1,49,-1
 1999 1231 l 1,50,-1
 1946 1231 l 1,51,52
 1867 1183 1867 1183 1754 982 c 1,44,-1
204 -213 m 2,53,-1
 204 -258 l 1,54,-1
 246 -308 l 1,55,-1
 283 -308 l 1,56,57
 556 -265 556 -265 1121 191 c 1,58,-1
 1214 305 l 1,59,-1
 1214 348 l 1,60,-1
 1191 375 l 1,61,-1
 1104 375 l 2,62,63
 857 375 857 375 345 -8 c 1,64,65
 204 -151 204 -151 204 -213 c 2,53,-1
1807 1557 m 2,66,67
 1818 1546 1818 1546 1820 1540.5 c 128,-1,68
 1822 1535 1822 1535 1810 1524 c 0,69,70
 1766 1477 1766 1477 1723 1430 c 128,-1,71
 1680 1383 1680 1383 1634 1336 c 0,72,73
 1623 1324 1623 1324 1614 1319.5 c 128,-1,74
 1605 1315 1605 1315 1585 1333 c 2,75,-1
 1433 1485 l 2,76,77
 1418 1500 1418 1500 1418 1509 c 0,78,79
 1418 1516 1418 1516 1432 1528 c 0,80,81
 1476 1577 1476 1577 1518 1623 c 128,-1,82
 1560 1669 1560 1669 1603 1716 c 0,83,84
 1613 1730 1613 1730 1624 1730 c 0,85,86
 1634 1730 1634 1730 1643 1721 c 2,87,-1
 1807 1557 l 2,66,67
EndSplineSet
Validated: 1
MultipleSubs2: "'medi' Medial Forms in Arabic lookup 3 subtable" glyph543 glyph836
MultipleSubs2: "'init' Initial Forms in Arabic lookup 2 subtable" glyph187 glyph836
MultipleSubs2: "'fina' Terminal Forms in Arabic lookup 1 subtable" glyph84
EndChar

StartChar: uni0637
Encoding: 1591 1591 85
Width: 885
GlyphClass: 2
Flags: W
AnchorPoint: "Anchor-38" 286 -194 basechar 0
AnchorPoint: "Anchor-37" 614 1720 basechar 0
LayerCount: 2
Fore
SplineSet
218 71 m 1,0,1
 219 71 219 71 245.5 86 c 128,-1,2
 272 101 272 101 310 124.5 c 128,-1,3
 348 148 348 148 383.5 169.5 c 128,-1,4
 419 191 419 191 441 206 c 0,5,6
 505 247 505 247 559 287.5 c 128,-1,7
 613 328 613 328 659 383 c 0,8,9
 679 408 679 408 679.5 436 c 128,-1,10
 680 464 680 464 667 486.5 c 128,-1,11
 654 509 654 509 633 523 c 128,-1,12
 612 537 612 537 584 537 c 0,13,14
 553 537 553 537 521.5 524.5 c 128,-1,15
 490 512 490 512 460.5 489.5 c 128,-1,16
 431 467 431 467 407 439 c 128,-1,17
 383 411 383 411 370 380 c 0,18,19
 325 296 325 296 287 211.5 c 128,-1,20
 249 127 249 127 225 74 c 1,21,-1
 218 71 l 1,0,1
136 34 m 0,22,23
 154 76 154 76 172.5 125 c 128,-1,24
 191 174 191 174 207.5 227 c 128,-1,25
 224 280 224 280 235.5 333 c 128,-1,26
 247 386 247 386 252 434 c 0,27,28
 260 618 260 618 266 798.5 c 128,-1,29
 272 979 272 979 278 1162 c 0,30,31
 281 1170 281 1170 281.5 1176 c 128,-1,32
 282 1182 282 1182 282 1189 c 0,33,34
 304 1253 304 1253 331.5 1320.5 c 128,-1,35
 359 1388 359 1388 396 1491 c 0,36,37
 422 1567 422 1567 432 1530.5 c 128,-1,38
 442 1494 442 1494 442 1468 c 0,39,40
 435 1270 435 1270 429 1074.5 c 128,-1,41
 423 879 423 879 415 680 c 0,42,43
 415 670 415 670 413 648 c 128,-1,44
 411 626 411 626 408 601.5 c 128,-1,45
 405 577 405 577 400.5 553 c 128,-1,46
 396 529 396 529 401 561 c 1,47,48
 392 550 392 550 417.5 579.5 c 128,-1,49
 443 609 443 609 471.5 633.5 c 128,-1,50
 500 658 500 658 537 675 c 128,-1,51
 574 692 574 692 619 692 c 0,52,53
 701 692 701 692 740 638 c 128,-1,54
 779 584 779 584 779 514 c 0,55,56
 779 462 779 462 749.5 389 c 128,-1,57
 720 316 720 316 676.5 245 c 128,-1,58
 633 174 633 174 582 112.5 c 128,-1,59
 531 51 531 51 489 24 c 0,60,61
 475 12 475 12 446.5 3.5 c 128,-1,62
 418 -5 418 -5 406 -9 c 0,63,64
 295 -40 295 -40 183.5 -70.5 c 128,-1,65
 72 -101 72 -101 -39 -132 c 0,66,67
 -62 -138 -62 -138 -80 -131 c 128,-1,68
 -98 -124 -98 -124 -71 -99 c 0,69,70
 -56 -84 -56 -84 -23 -63.5 c 128,-1,71
 10 -43 10 -43 42.5 -24.5 c 128,-1,72
 75 -6 75 -6 102 9 c 128,-1,73
 129 24 129 24 136 34 c 0,22,23
EndSplineSet
Validated: 5
MultipleSubs2: "'medi' Medial Forms in Arabic lookup 3 subtable" glyph569
MultipleSubs2: "'init' Initial Forms in Arabic lookup 2 subtable" glyph213
MultipleSubs2: "'fina' Terminal Forms in Arabic lookup 1 subtable" glyph85
EndChar

StartChar: uni0638
Encoding: 1592 1592 86
Width: 889
GlyphClass: 2
Flags: W
AnchorPoint: "Anchor-38" 317 -204 basechar 0
AnchorPoint: "Anchor-37" 614 1720 basechar 0
LayerCount: 2
Fore
SplineSet
935 1160 m 0,0,1
 946 1149 946 1149 948 1144.5 c 128,-1,2
 950 1140 950 1140 940 1126 c 0,3,4
 896 1078 896 1078 852 1031 c 128,-1,5
 808 984 808 984 765 937 c 0,6,7
 753 925 753 925 744 920.5 c 128,-1,8
 735 916 735 916 716 935 c 0,9,10
 675 974 675 974 637 1013 c 128,-1,11
 599 1052 599 1052 562 1089 c 0,12,13
 547 1103 547 1103 547 1110 c 0,14,15
 547 1119 547 1119 560 1131 c 0,16,17
 603 1179 603 1179 647 1226 c 128,-1,18
 691 1273 691 1273 733 1319 c 1,19,20
 751 1348 751 1348 773 1320 c 1,21,22
 814 1279 814 1279 855 1239 c 128,-1,23
 896 1199 896 1199 935 1160 c 0,0,1
218 71 m 1,24,25
 219 71 219 71 245.5 86 c 128,-1,26
 272 101 272 101 310 124.5 c 128,-1,27
 348 148 348 148 383.5 169.5 c 128,-1,28
 419 191 419 191 441 206 c 0,29,30
 505 247 505 247 559 287.5 c 128,-1,31
 613 328 613 328 659 383 c 0,32,33
 679 408 679 408 679.5 436 c 128,-1,34
 680 464 680 464 667 486.5 c 128,-1,35
 654 509 654 509 633 523 c 128,-1,36
 612 537 612 537 584 537 c 0,37,38
 553 537 553 537 521.5 524.5 c 128,-1,39
 490 512 490 512 460.5 489.5 c 128,-1,40
 431 467 431 467 407 439 c 128,-1,41
 383 411 383 411 370 380 c 0,42,43
 325 296 325 296 287 211.5 c 128,-1,44
 249 127 249 127 225 74 c 1,45,-1
 218 71 l 1,24,25
136 34 m 0,46,47
 154 76 154 76 172.5 125 c 128,-1,48
 191 174 191 174 207.5 227 c 128,-1,49
 224 280 224 280 235.5 333 c 128,-1,50
 247 386 247 386 252 434 c 0,51,52
 260 618 260 618 266 798.5 c 128,-1,53
 272 979 272 979 278 1162 c 0,54,55
 281 1170 281 1170 281.5 1176 c 128,-1,56
 282 1182 282 1182 282 1189 c 0,57,58
 304 1253 304 1253 331.5 1320.5 c 128,-1,59
 359 1388 359 1388 396 1491 c 0,60,61
 422 1567 422 1567 432 1530.5 c 128,-1,62
 442 1494 442 1494 442 1468 c 0,63,64
 435 1270 435 1270 429 1074.5 c 128,-1,65
 423 879 423 879 415 680 c 0,66,67
 415 670 415 670 413 648 c 128,-1,68
 411 626 411 626 408 601.5 c 128,-1,69
 405 577 405 577 400.5 553 c 128,-1,70
 396 529 396 529 401 561 c 1,71,72
 392 550 392 550 417.5 579.5 c 128,-1,73
 443 609 443 609 471.5 633.5 c 128,-1,74
 500 658 500 658 537 675 c 128,-1,75
 574 692 574 692 619 692 c 0,76,77
 701 692 701 692 740 638 c 128,-1,78
 779 584 779 584 779 514 c 0,79,80
 779 462 779 462 749.5 389 c 128,-1,81
 720 316 720 316 676.5 245 c 128,-1,82
 633 174 633 174 582 112.5 c 128,-1,83
 531 51 531 51 489 24 c 0,84,85
 475 12 475 12 446.5 3.5 c 128,-1,86
 418 -5 418 -5 406 -9 c 0,87,88
 295 -40 295 -40 183.5 -70.5 c 128,-1,89
 72 -101 72 -101 -39 -132 c 0,90,91
 -62 -138 -62 -138 -80 -131 c 128,-1,92
 -98 -124 -98 -124 -71 -99 c 0,93,94
 -56 -84 -56 -84 -23 -63.5 c 128,-1,95
 10 -43 10 -43 42.5 -24.5 c 128,-1,96
 75 -6 75 -6 102 9 c 128,-1,97
 129 24 129 24 136 34 c 0,46,47
EndSplineSet
Validated: 5
MultipleSubs2: "'medi' Medial Forms in Arabic lookup 3 subtable" glyph569 glyph836
MultipleSubs2: "'init' Initial Forms in Arabic lookup 2 subtable" glyph213 glyph836
MultipleSubs2: "'fina' Terminal Forms in Arabic lookup 1 subtable" glyph86
EndChar

StartChar: uni0639
Encoding: 1593 1593 87
Width: 1559
GlyphClass: 2
Flags: W
AnchorPoint: "Anchor-38" 819 -788 basechar 0
AnchorPoint: "Anchor-37" 614 1576 basechar 0
LayerCount: 2
Fore
SplineSet
1109 278 m 0,0,1
 991 273 991 273 893.5 220.5 c 128,-1,2
 796 168 796 168 711 89.5 c 128,-1,3
 626 11 626 11 555.5 -84 c 128,-1,4
 485 -179 485 -179 427 -259 c 1,5,6
 544 -342 544 -342 680 -337.5 c 128,-1,7
 816 -333 816 -333 945.5 -271.5 c 128,-1,8
 1075 -210 1075 -210 1182 -107.5 c 128,-1,9
 1289 -5 1289 -5 1349 103 c 1,10,11
 1349 149 1349 149 1325.5 182 c 128,-1,12
 1302 215 1302 215 1266.5 237 c 128,-1,13
 1231 259 1231 259 1189 269.5 c 128,-1,14
 1147 280 1147 280 1109 278 c 0,0,1
171 -460 m 1,15,16
 94 -325 94 -325 77 -172.5 c 128,-1,17
 60 -20 60 -20 89.5 132.5 c 128,-1,18
 119 285 119 285 186 428.5 c 128,-1,19
 253 572 253 572 341 694 c 1,20,21
 337 690 337 690 347 690 c 1,22,23
 300 729 300 729 254.5 769 c 128,-1,24
 209 809 209 809 209 868 c 0,25,26
 209 904 209 904 221 933 c 128,-1,27
 233 962 233 962 250.5 986.5 c 128,-1,28
 268 1011 268 1011 288.5 1035.5 c 128,-1,29
 309 1060 309 1060 327 1089 c 0,30,31
 354 1128 354 1128 383 1176 c 128,-1,32
 412 1224 412 1224 450 1266 c 128,-1,33
 488 1308 488 1308 536.5 1337.5 c 128,-1,34
 585 1367 585 1367 650 1367 c 0,35,36
 675 1367 675 1367 707 1360 c 128,-1,37
 739 1353 739 1353 765.5 1338 c 128,-1,38
 792 1323 792 1323 808 1302 c 128,-1,39
 824 1281 824 1281 816 1256 c 1,40,41
 809 1193 809 1193 778 1176.5 c 128,-1,42
 747 1160 747 1160 710 1169 c 128,-1,43
 673 1178 673 1178 641.5 1194 c 128,-1,44
 610 1210 610 1210 592 1210 c 0,45,46
 550 1210 550 1210 497 1177 c 0,47,48
 445 1147 445 1147 445 1094 c 0,49,50
 445 1059 445 1059 472 1034 c 128,-1,51
 499 1009 499 1009 539 993 c 128,-1,52
 579 977 579 977 620.5 973 c 128,-1,53
 662 969 662 969 689 976 c 1,54,55
 755 1013 755 1013 822 1044 c 128,-1,56
 889 1075 889 1075 954 1108 c 1,57,58
 1006 1139 1006 1139 1022 1127.5 c 128,-1,59
 1038 1116 1038 1116 1026 1095 c 128,-1,60
 1014 1074 1014 1074 990 1048.5 c 128,-1,61
 966 1023 966 1023 942 1007 c 0,62,63
 887 967 887 967 834.5 929.5 c 128,-1,64
 782 892 782 892 729 854 c 0,65,66
 581 758 581 758 463 645 c 128,-1,67
 345 532 345 532 282.5 401.5 c 128,-1,68
 220 271 220 271 226 125.5 c 128,-1,69
 232 -20 232 -20 318 -162 c 1,70,71
 379 -67 379 -67 471 66 c 128,-1,72
 563 199 563 199 673 312 c 128,-1,73
 783 425 783 425 914 498.5 c 128,-1,74
 1045 572 1045 572 1199 570 c 0,75,76
 1262 570 1262 570 1313 543 c 128,-1,77
 1364 516 1364 516 1401 473 c 128,-1,78
 1438 430 1438 430 1459 377 c 128,-1,79
 1480 324 1480 324 1480 270 c 1,80,81
 1469 141 1469 141 1411 4 c 128,-1,82
 1353 -133 1353 -133 1263 -256 c 128,-1,83
 1173 -379 1173 -379 1053.5 -477 c 128,-1,84
 934 -575 934 -575 798.5 -621 c 128,-1,85
 663 -667 663 -667 517.5 -651 c 128,-1,86
 372 -635 372 -635 248 -545 c 1,87,88
 203 -623 203 -623 148 -712.5 c 128,-1,89
 93 -802 93 -802 39 -902 c 0,90,91
 18 -938 18 -938 -16.5 -976.5 c 128,-1,92
 -51 -1015 -51 -1015 -127 -1018 c 1,93,94
 -99 -962 -99 -962 -65 -896.5 c 128,-1,95
 -31 -831 -31 -831 9 -756 c 128,-1,96
 49 -681 49 -681 91.5 -603.5 c 128,-1,97
 134 -526 134 -526 171 -460 c 1,15,16
EndSplineSet
Validated: 37
MultipleSubs2: "'medi' Medial Forms in Arabic lookup 3 subtable" glyph595
MultipleSubs2: "'init' Initial Forms in Arabic lookup 2 subtable" glyph239
MultipleSubs2: "'fina' Terminal Forms in Arabic lookup 1 subtable" glyph87
EndChar

StartChar: uni063A
Encoding: 1594 1594 88
Width: 1559
GlyphClass: 2
Flags: W
AnchorPoint: "Anchor-38" 829 -808 basechar 0
AnchorPoint: "Anchor-37" 604 1904 basechar 0
LayerCount: 2
Fore
SplineSet
1109 278 m 0,0,1
 991 273 991 273 893.5 220.5 c 128,-1,2
 796 168 796 168 711 89.5 c 128,-1,3
 626 11 626 11 555.5 -84 c 128,-1,4
 485 -179 485 -179 427 -259 c 1,5,6
 544 -342 544 -342 680 -337.5 c 128,-1,7
 816 -333 816 -333 945.5 -271.5 c 128,-1,8
 1075 -210 1075 -210 1182 -107.5 c 128,-1,9
 1289 -5 1289 -5 1349 103 c 1,10,11
 1349 149 1349 149 1325.5 182 c 128,-1,12
 1302 215 1302 215 1266.5 237 c 128,-1,13
 1231 259 1231 259 1189 269.5 c 128,-1,14
 1147 280 1147 280 1109 278 c 0,0,1
341 693 m 1,16,17
 337 690 337 690 347 690 c 1,18,19
 300 729 300 729 254.5 769 c 128,-1,20
 209 809 209 809 209 868 c 0,21,22
 209 904 209 904 221 933 c 128,-1,23
 233 962 233 962 250.5 986.5 c 128,-1,24
 268 1011 268 1011 288.5 1035.5 c 128,-1,25
 309 1060 309 1060 327 1089 c 0,26,27
 354 1128 354 1128 383 1176 c 128,-1,28
 412 1224 412 1224 450 1266 c 128,-1,29
 488 1308 488 1308 536.5 1337.5 c 128,-1,30
 585 1367 585 1367 650 1367 c 0,31,32
 675 1367 675 1367 707 1360 c 128,-1,33
 739 1353 739 1353 765.5 1338 c 128,-1,34
 792 1323 792 1323 808 1302 c 128,-1,35
 824 1281 824 1281 816 1256 c 1,36,37
 809 1193 809 1193 778 1176.5 c 128,-1,38
 747 1160 747 1160 710 1169 c 128,-1,39
 673 1178 673 1178 641.5 1194 c 128,-1,40
 610 1210 610 1210 592 1210 c 0,41,42
 550 1210 550 1210 497 1177 c 0,43,44
 445 1147 445 1147 445 1094 c 0,45,46
 445 1059 445 1059 472 1034 c 128,-1,47
 499 1009 499 1009 539 993 c 128,-1,48
 579 977 579 977 620.5 973 c 128,-1,49
 662 969 662 969 689 976 c 1,50,51
 755 1013 755 1013 822 1044 c 128,-1,52
 889 1075 889 1075 954 1108 c 1,53,54
 1006 1139 1006 1139 1022 1127.5 c 128,-1,55
 1038 1116 1038 1116 1026 1095 c 128,-1,56
 1014 1074 1014 1074 990 1048.5 c 128,-1,57
 966 1023 966 1023 942 1007 c 0,58,59
 887 967 887 967 834.5 929.5 c 128,-1,60
 782 892 782 892 729 854 c 0,61,62
 605 773 605 773 497 677 c 1,63,-1
 323 675 l 1,64,15
 339 691 339 691 341 693 c 1,16,17
463 645 m 0,66,67
 345 532 345 532 282.5 401.5 c 128,-1,68
 220 271 220 271 226 125.5 c 128,-1,69
 232 -20 232 -20 318 -162 c 1,70,71
 379 -67 379 -67 471 66 c 128,-1,72
 563 199 563 199 673 312 c 128,-1,73
 783 425 783 425 914 498.5 c 128,-1,74
 1045 572 1045 572 1199 570 c 0,75,76
 1262 570 1262 570 1313 543 c 128,-1,77
 1364 516 1364 516 1401 473 c 128,-1,78
 1438 430 1438 430 1459 377 c 128,-1,79
 1480 324 1480 324 1480 270 c 1,80,81
 1469 141 1469 141 1411 4 c 128,-1,82
 1353 -133 1353 -133 1263 -256 c 128,-1,83
 1173 -379 1173 -379 1053.5 -477 c 128,-1,84
 934 -575 934 -575 798.5 -621 c 128,-1,85
 663 -667 663 -667 517.5 -651 c 128,-1,86
 372 -635 372 -635 248 -545 c 1,87,88
 203 -623 203 -623 148 -712.5 c 128,-1,89
 93 -802 93 -802 39 -902 c 0,90,91
 18 -938 18 -938 -16.5 -976.5 c 128,-1,92
 -51 -1015 -51 -1015 -127 -1018 c 1,93,94
 -99 -962 -99 -962 -65 -896.5 c 128,-1,95
 -31 -831 -31 -831 9 -756 c 128,-1,96
 49 -681 49 -681 91.5 -603.5 c 128,-1,97
 134 -526 134 -526 171 -460 c 1,98,99
 94 -325 94 -325 77 -172.5 c 128,-1,100
 60 -20 60 -20 89.5 132.5 c 128,-1,101
 119 285 119 285 187 428 c 0,102,103
 252 570 252 570 342 695 c 1,104,-1
 520 697 l 1,105,65
 482 663 482 663 463 645 c 0,66,67
586 1615 m 2,106,107
 597 1604 597 1604 599 1598.5 c 128,-1,108
 601 1593 601 1593 590 1582 c 0,109,110
 545 1535 545 1535 502 1488 c 128,-1,111
 459 1441 459 1441 414 1394 c 0,112,113
 402 1382 402 1382 393 1377.5 c 128,-1,114
 384 1373 384 1373 364 1391 c 2,115,-1
 213 1543 l 2,116,117
 197 1558 197 1558 197 1567 c 0,118,119
 197 1574 197 1574 211 1586 c 0,120,121
 255 1635 255 1635 297 1681 c 128,-1,122
 339 1727 339 1727 382 1774 c 0,123,124
 392 1788 392 1788 403 1788 c 0,125,126
 413 1788 413 1788 422 1779 c 2,127,-1
 586 1615 l 2,106,107
EndSplineSet
Validated: 37
MultipleSubs2: "'medi' Medial Forms in Arabic lookup 3 subtable" glyph595 glyph836
MultipleSubs2: "'init' Initial Forms in Arabic lookup 2 subtable" glyph239 glyph836
MultipleSubs2: "'fina' Terminal Forms in Arabic lookup 1 subtable" glyph88
EndChar

StartChar: uni0641
Encoding: 1601 1601 89
Width: 2263
GlyphClass: 2
Flags: W
AnchorPoint: "Anchor-38" 1105 -348 basechar 0
AnchorPoint: "Anchor-37" 1044 1372 basechar 0
LayerCount: 2
Fore
SplineSet
1951 303 m 1,1,2
 1959 308 1959 308 1979.5 319 c 128,-1,3
 2000 330 2000 330 2017.5 343 c 128,-1,4
 2035 356 2035 356 2046.5 370.5 c 128,-1,5
 2058 385 2058 385 2058 402 c 0,6,7
 2058 408 2058 408 2051.5 416.5 c 128,-1,8
 2045 425 2045 425 2033.5 434 c 128,-1,9
 2022 443 2022 443 2012.5 447.5 c 128,-1,10
 2003 452 2003 452 2000 452 c 1,11,-1
 2006 452 l 1,12,13
 1968 402 1968 402 1893 404 c 0,14,15
 1828 405 1828 405 1779.5 452 c 128,-1,16
 1731 499 1731 499 1731 559 c 2,17,-1
 1731 581 l 1,18,19
 1735 592 1735 592 1743 617.5 c 128,-1,20
 1751 643 1751 643 1759 670.5 c 128,-1,21
 1767 698 1767 698 1775.5 723 c 128,-1,22
 1784 748 1784 748 1788 759 c 0,23,24
 1794 780 1794 780 1799 810.5 c 128,-1,25
 1804 841 1804 841 1816 867.5 c 128,-1,26
 1828 894 1828 894 1850 915 c 128,-1,27
 1872 936 1872 936 1913 935 c 0,28,29
 1980 934 1980 934 2023.5 882 c 128,-1,30
 2067 830 2067 830 2095 764.5 c 128,-1,31
 2123 699 2123 699 2136.5 631 c 128,-1,32
 2150 563 2150 563 2150 521 c 0,33,34
 2150 459 2150 459 2137.5 400.5 c 128,-1,35
 2125 342 2125 342 2105 285 c 0,36,37
 2084 236 2084 236 2047 177 c 1,38,-1
 1941 291 l 1,39,0
 1941 303 1941 303 1951 303 c 1,1,2
1877 40 m 0,41,42
 1555 -170 1555 -170 669 -120 c 1,43,44
 57 -77 57 -77 57 82 c 2,45,-1
 57 127 l 1,46,-1
 67 217 l 1,47,-1
 -308 306 l 1,48,-1
 -308 325 l 1,49,-1
 -277 345 l 1,50,-1
 -228 340 l 1,51,-1
 75 295 l 1,52,53
 232 520 232 520 485 568 c 1,54,55
 791 621 791 621 1086 592 c 2,56,-1
 1127 588 l 2,57,58
 1620 539 1620 539 1620 425 c 0,59,60
 1620 217 1620 217 657 172 c 1,61,-1
 374 185 l 1,62,-1
 164 206 l 2,63,64
 160 206 160 206 160 197 c 1,65,66
 211 108 211 108 654 61 c 1,67,-1
 1040 49 l 1,68,69
 1547 60 1547 60 1775 154 c 1,70,71
 1878 213 1878 213 1971 320 c 1,72,-1
 2068 212 l 1,73,40
 2000 118 2000 118 1877 40 c 0,41,42
241 367 m 1,74,-1
 241 349 l 2,75,76
 241 290 241 290 374 276 c 0,77,78
 827 230 827 230 1378 324 c 1,79,-1
 1441 358 l 1,80,-1
 1441 376 l 2,81,82
 1441 407 1441 407 1214 443 c 1,83,-1
 1081 456 l 1,84,85
 366 473 366 473 268 383 c 1,86,-1
 241 367 l 1,74,-1
1952 1191 m 2,87,88
 1963 1180 1963 1180 1965 1174.5 c 128,-1,89
 1967 1169 1967 1169 1955 1158 c 0,90,91
 1911 1111 1911 1111 1868 1064 c 128,-1,92
 1825 1017 1825 1017 1779 970 c 0,93,94
 1768 958 1768 958 1759 953.5 c 128,-1,95
 1750 949 1750 949 1730 967 c 2,96,-1
 1578 1119 l 2,97,98
 1563 1134 1563 1134 1563 1143 c 0,99,100
 1563 1150 1563 1150 1577 1162 c 0,101,102
 1621 1211 1621 1211 1663 1257 c 128,-1,103
 1705 1303 1705 1303 1748 1350 c 0,104,105
 1758 1364 1758 1364 1769 1364 c 0,106,107
 1779 1364 1779 1364 1788 1355 c 2,108,-1
 1952 1191 l 2,87,88
EndSplineSet
Validated: 37
MultipleSubs2: "'medi' Medial Forms in Arabic lookup 3 subtable" glyph621 glyph836
MultipleSubs2: "'init' Initial Forms in Arabic lookup 2 subtable" glyph265 glyph836
MultipleSubs2: "'fina' Terminal Forms in Arabic lookup 1 subtable" glyph89
EndChar

StartChar: uni0642
Encoding: 1602 1602 90
Width: 1556
GlyphClass: 2
Flags: W
AnchorPoint: "Anchor-38" 983 -747 basechar 0
AnchorPoint: "Anchor-37" 696 1843 basechar 0
LayerCount: 2
Fore
SplineSet
1336 1044 m 2,0,-1
 1339 1044 l 2,1,2
 1445 1044 1445 1044 1505 807 c 0,3,4
 1519 743 1519 743 1523 623 c 1,5,6
 1523 312 1523 312 1453 95 c 1,7,8
 1309 -275 1309 -275 1057 -420 c 0,9,10
 839 -547 839 -547 603 -614 c 1,11,-1
 401 -645 l 1,12,-1
 388 -645 l 2,13,14
 171 -645 171 -645 89 -458 c 1,15,-1
 99 -458 l 1,16,17
 -100 -502 -100 -502 -213 -502 c 1,18,19
 -266 -497 -266 -497 -266 -474 c 0,20,21
 -266 -452 -266 -452 -131 -412 c 1,22,23
 -17 -372 -17 -372 78 -349 c 1,24,25
 89 -341 89 -341 89 -332 c 0,26,27
 89 79 89 79 427 305 c 1,28,29
 588 403 588 403 883 482 c 1,30,-1
 978 495 l 1,31,32
 1126 475 1126 475 1126 369 c 0,33,34
 1126 116 1126 116 768 -173 c 1,35,36
 623 -265 623 -265 437 -339 c 1,37,-1
 438 -339 l 1,38,-1
 438 -332 l 1,39,-1
 487 -339 l 1,40,41
 761 -339 761 -339 1094 -115 c 1,42,43
 1227 -33 1227 -33 1319 87 c 1,44,45
 1381 158 1381 158 1412 375 c 1,46,47
 1423 419 1423 419 1423 476 c 0,48,49
 1423 564 1423 564 1403 564 c 2,50,-1
 1401 564 l 1,51,-1
 1332 551 l 1,52,53
 1212 570 1212 570 1212 690 c 1,54,55
 1244 864 1244 864 1254 959 c 1,56,57
 1283 1044 1283 1044 1336 1044 c 2,0,-1
245 -158 m 2,58,-1
 245 -171 l 2,59,60
 245 -225 245 -225 309 -241 c 1,61,-1
 343 -241 l 1,62,63
 623 -150 623 -150 858 23 c 1,64,65
 966 111 966 111 966 182 c 2,66,-1
 966 185 l 1,67,68
 950 230 950 230 918 230 c 2,69,-1
 863 230 l 1,70,71
 661 213 661 213 332 -21 c 1,72,73
 245 -103 245 -103 245 -158 c 2,58,-1
672 1166 m 0,74,75
 661 1178 661 1178 663 1184.5 c 128,-1,76
 665 1191 665 1191 672 1201 c 0,77,78
 723 1252 723 1252 773 1304.5 c 128,-1,79
 823 1357 823 1357 876 1408 c 0,80,81
 911 1444 911 1444 911 1409 c 0,82,83
 911 1406 911 1406 917 1399 c 0,84,85
 979 1307 979 1307 1056 1251 c 1,86,87
 1089 1285 1089 1285 1132 1328 c 128,-1,88
 1175 1371 1175 1371 1218 1416 c 0,89,90
 1229 1428 1229 1428 1238 1432.5 c 128,-1,91
 1247 1437 1247 1437 1269 1416 c 0,92,93
 1310 1375 1310 1375 1346.5 1337 c 128,-1,94
 1383 1299 1383 1299 1423 1259 c 1,95,96
 1445 1246 1445 1246 1426 1230 c 0,97,98
 1382 1183 1382 1183 1338 1136 c 128,-1,99
 1294 1089 1294 1089 1251 1041 c 0,100,101
 1238 1028 1238 1028 1227.5 1024.5 c 128,-1,102
 1217 1021 1217 1021 1201 1037 c 0,103,104
 1163 1076 1163 1076 1116 1119.5 c 128,-1,105
 1069 1163 1069 1163 1053 1177 c 1,106,107
 1022 1144 1022 1144 979 1100 c 128,-1,108
 936 1056 936 1056 891 1009 c 0,109,110
 874 990 874 990 847 1005 c 1,111,112
 804 1038 804 1038 755 1085 c 128,-1,113
 706 1132 706 1132 672 1166 c 0,74,75
EndSplineSet
Validated: 5
MultipleSubs2: "'medi' Medial Forms in Arabic lookup 3 subtable" glyph621 glyph837
MultipleSubs2: "'init' Initial Forms in Arabic lookup 2 subtable" glyph265 glyph837
MultipleSubs2: "'fina' Terminal Forms in Arabic lookup 1 subtable" glyph90
EndChar

StartChar: uni0644
Encoding: 1604 1604 91
Width: 1614
GlyphClass: 2
Flags: W
AnchorPoint: "Anchor-38" 983 -757 basechar 0
AnchorPoint: "Anchor-37" 665 1576 basechar 0
LayerCount: 2
Fore
SplineSet
395 -645 m 1,1,-1
 363 -645 l 2,2,3
 185 -645 185 -645 52 -439 c 1,4,-1
 33 -439 l 1,5,-1
 -287 -481 l 1,6,-1
 -304 -458 l 1,7,-1
 -304 -436 l 1,8,9
 57 -316 57 -316 57 -277 c 0,10,11
 57 540 57 540 1100 845 c 1,12,-1
 1226 875 l 1,13,14
 1370 832 1370 832 1370 713 c 2,15,-1
 1370 685 l 2,16,17
 1370 383 1370 383 663 -161 c 1,18,19
 458 -263 458 -263 448 -292 c 1,20,-1
 448 -295 l 1,21,22
 988 -295 988 -295 1412 235 c 1,23,-1
 1442 291 l 1,24,-1
 1519 241 l 1,25,0
 1320 -487 1320 -487 395 -645 c 1,1,-1
1441 288 m 1,26,-1
 1441 713 l 1,27,-1
 1411 1551 l 1,28,29
 1411 1738 1411 1738 1533 1991 c 1,30,-1
 1555 1960 l 1,31,-1
 1572 1960 l 1,32,-1
 1561 1854 l 1,33,-1
 1561 1840 l 1,34,-1
 1571 671 l 2,35,36
 1571 432 1571 432 1513 218 c 1,37,-1
 1431 271 l 1,38,-1
 1441 288 l 1,26,-1
148 -140 m 2,39,-1
 148 -180 l 1,40,41
 169 -240 169 -240 212 -240 c 2,42,-1
 222 -240 l 2,43,44
 481 -240 481 -240 1162 401 c 1,45,46
 1200 457 1200 457 1200 506 c 2,47,-1
 1200 554 l 1,48,-1
 1162 565 l 1,49,50
 749 565 749 565 205 7 c 1,51,52
 148 -94 148 -94 148 -140 c 2,39,-1
EndSplineSet
Validated: 5
MultipleSubs2: "'medi' Medial Forms in Arabic lookup 3 subtable" glyph719
MultipleSubs2: "'init' Initial Forms in Arabic lookup 2 subtable" glyph363
MultipleSubs2: "'fina' Terminal Forms in Arabic lookup 1 subtable" glyph94
EndChar

StartChar: uni0645
Encoding: 1605 1605 92
Width: 1237
GlyphClass: 2
Flags: W
AnchorPoint: "Anchor-38" 624 -481 basechar 0
AnchorPoint: "Anchor-37" 573 1310 basechar 0
LayerCount: 2
Fore
SplineSet
180 -1513 m 0,0,1
 168 -1286 168 -1286 155.5 -1061 c 128,-1,2
 143 -836 143 -836 143 -608 c 0,3,4
 143 -434 143 -434 148.5 -258.5 c 128,-1,5
 154 -83 154 -83 201 85 c 0,6,7
 231 195 231 195 280 292 c 128,-1,8
 329 389 329 389 397.5 467 c 128,-1,9
 466 545 466 545 557.5 598.5 c 128,-1,10
 649 652 649 652 747 672 c 0,11,12
 749 670 749 670 729 675 c 128,-1,13
 709 680 709 680 719 711 c 1,14,15
 742 759 742 759 768 803 c 128,-1,16
 794 847 794 847 816 890 c 0,17,18
 826 910 826 910 839.5 935 c 128,-1,19
 853 960 853 960 879 960 c 0,20,21
 918 960 918 960 962 940 c 128,-1,22
 1006 920 1006 920 1042.5 888.5 c 128,-1,23
 1079 857 1079 857 1103.5 818.5 c 128,-1,24
 1128 780 1128 780 1128 741 c 0,25,26
 1128 706 1128 706 1117 674.5 c 128,-1,27
 1106 643 1106 643 1090 613 c 0,28,29
 1042 524 1042 524 955 471.5 c 128,-1,30
 868 419 868 419 767 402 c 0,31,32
 760 402 760 402 741.5 399 c 128,-1,33
 723 396 723 396 700 391.5 c 128,-1,34
 677 387 677 387 657.5 384 c 128,-1,35
 638 381 638 381 633 381 c 0,36,37
 582 372 582 372 526.5 347 c 128,-1,38
 471 322 471 322 422.5 284.5 c 128,-1,39
 374 247 374 247 340 197.5 c 128,-1,40
 306 148 306 148 298 87 c 0,41,42
 288 36 288 36 284 -11.5 c 128,-1,43
 280 -59 280 -59 278 -111 c 0,44,45
 278 -113 278 -113 277 -165 c 128,-1,46
 276 -217 276 -217 274 -289.5 c 128,-1,47
 272 -362 272 -362 270 -440 c 128,-1,48
 268 -518 268 -518 268 -567 c 0,49,50
 263 -809 263 -809 259 -1048.5 c 128,-1,51
 255 -1288 255 -1288 251 -1530 c 0,52,53
 249 -1552 249 -1552 247 -1578.5 c 128,-1,54
 245 -1605 245 -1605 236 -1654 c 1,55,-1
 208 -1626 l 1,56,57
 195 -1595 195 -1595 189.5 -1570 c 128,-1,58
 184 -1545 184 -1545 180 -1513 c 0,0,1
EndSplineSet
Validated: 5
MultipleSubs2: "'medi' Medial Forms in Arabic lookup 3 subtable" glyph744
MultipleSubs2: "'init' Initial Forms in Arabic lookup 2 subtable" glyph387
MultipleSubs2: "'fina' Terminal Forms in Arabic lookup 1 subtable" glyph95
EndChar

StartChar: uni0646
Encoding: 1606 1606 93
Width: 1561
GlyphClass: 2
Flags: W
AnchorPoint: "Anchor-38" 962 -757 basechar 0
AnchorPoint: "Anchor-37" 737 1454 basechar 0
LayerCount: 2
Fore
SplineSet
1497 1214 m 1,0,-1
 1527 1214 l 1,1,-1
 1552 1179 l 1,2,-1
 1552 882 l 2,3,4
 1552 287 1552 287 1427 35 c 1,5,6
 1289 -317 1289 -317 921 -493 c 0,7,8
 604 -643 604 -643 471 -643 c 2,9,-1
 385 -643 l 2,10,11
 224 -643 224 -643 112 -442 c 1,12,-1
 114 -442 l 1,13,-1
 -208 -497 l 1,14,-1
 -224 -474 l 1,15,-1
 -224 -439 l 1,16,17
 126 -336 126 -336 126 -284 c 0,18,19
 126 512 126 512 1088 797 c 1,20,-1
 1204 825 l 1,21,-1
 1218 825 l 1,22,23
 1363 799 1363 799 1363 667 c 0,24,25
 1363 343 1363 343 679 -184 c 1,26,27
 513 -271 513 -271 486 -313 c 1,28,-1
 486 -314 l 1,29,-1
 565 -314 l 2,30,31
 895 -314 895 -314 1345 136 c 1,32,33
 1428 283 1428 283 1428 333 c 2,34,-1
 1418 842 l 2,35,36
 1418 936 1418 936 1497 1214 c 1,0,-1
202 -164 m 2,37,-1
 202 -189 l 1,38,-1
 253 -261 l 1,39,-1
 262 -261 l 1,40,41
 544 -235 544 -235 1156 364 c 1,42,43
 1191 418 1191 418 1191 466 c 2,44,-1
 1191 505 l 1,45,-1
 1178 524 l 1,46,-1
 1074 524 l 2,47,48
 828 524 828 524 295 32 c 1,49,50
 202 -100 202 -100 202 -164 c 2,37,-1
821 978 m 2,51,52
 832 967 832 967 834 961.5 c 128,-1,53
 836 956 836 956 824 945 c 0,54,55
 780 898 780 898 737 851 c 128,-1,56
 694 804 694 804 648 757 c 0,57,58
 637 745 637 745 628 740.5 c 128,-1,59
 619 736 619 736 599 754 c 2,60,-1
 447 906 l 2,61,62
 432 921 432 921 432 930 c 0,63,64
 432 937 432 937 446 949 c 0,65,66
 490 998 490 998 532 1044 c 128,-1,67
 574 1090 574 1090 617 1137 c 0,68,69
 627 1151 627 1151 638 1151 c 0,70,71
 648 1151 648 1151 657 1142 c 2,72,-1
 821 978 l 2,51,52
EndSplineSet
Validated: 5
MultipleSubs2: "'medi' Medial Forms in Arabic lookup 3 subtable" glyph465 glyph836
MultipleSubs2: "'init' Initial Forms in Arabic lookup 2 subtable" glyph109 glyph836
MultipleSubs2: "'fina' Terminal Forms in Arabic lookup 1 subtable" glyph96
EndChar

StartChar: uni0648
Encoding: 1608 1608 94
Width: 606
GlyphClass: 2
Flags: W
AnchorPoint: "Anchor-38" 184 -215 basechar 0
AnchorPoint: "Anchor-37" 215 1198 basechar 0
LayerCount: 2
Fore
SplineSet
323 13 m 0,0,1
 311 -14 311 -14 287 -19 c 0,2,3
 201 -46 201 -46 115 -71.5 c 128,-1,4
 29 -97 29 -97 -63 -127 c 1,5,6
 -93 -127 -93 -127 -95.5 -117.5 c 128,-1,7
 -98 -108 -98 -108 -90.5 -98.5 c 128,-1,8
 -83 -89 -83 -89 -73 -81 c 128,-1,9
 -63 -73 -63 -73 -56 -69 c 0,10,11
 -9 -32 -9 -32 45 6 c 128,-1,12
 99 44 99 44 154.5 84 c 128,-1,13
 210 124 210 124 263.5 166.5 c 128,-1,14
 317 209 317 209 362 254 c 1,15,16
 376 280 376 280 363.5 293 c 128,-1,17
 351 306 351 306 335 308 c 1,18,19
 318 301 318 301 298 292 c 128,-1,20
 278 283 278 283 249 283 c 0,21,22
 215 283 215 283 180.5 297.5 c 128,-1,23
 146 312 146 312 122 335 c 128,-1,24
 98 358 98 358 83.5 388.5 c 128,-1,25
 69 419 69 419 69 451 c 0,26,27
 69 467 69 467 69 475 c 0,28,29
 69 484 69 484 73 500 c 0,30,31
 95 565 95 565 118.5 627.5 c 128,-1,32
 142 690 142 690 165 756 c 0,33,34
 176 786 176 786 207 810.5 c 128,-1,35
 238 835 238 835 278 835 c 0,36,37
 341 835 341 835 381.5 791 c 128,-1,38
 422 747 422 747 447 688 c 128,-1,39
 472 629 472 629 483 565.5 c 128,-1,40
 494 502 494 502 494 461 c 0,41,42
 494 428 494 428 490.5 396 c 128,-1,43
 487 364 487 364 476 332 c 0,44,45
 460 285 460 285 443.5 247 c 128,-1,46
 427 209 427 209 408.5 171.5 c 128,-1,47
 390 134 390 134 368.5 96 c 128,-1,48
 347 58 347 58 323 13 c 0,0,1
EndSplineSet
Validated: 1
MultipleSubs2: "'fina' Terminal Forms in Arabic lookup 1 subtable" glyph98
EndChar

StartChar: uni064B
Encoding: 1611 1611 95
Width: 0
GlyphClass: 4
Flags: W
AnchorPoint: "Anchor-39" 20 -102 mark 0
AnchorPoint: "Anchor-37" 20 -102 mark 0
LayerCount: 2
Fore
SplineSet
154 56 m 0,0,1
 184 75 184 75 205.5 87 c 128,-1,2
 227 99 227 99 300 146 c 1,3,4
 254 74 254 74 232.5 47.5 c 128,-1,5
 211 21 211 21 186 -10 c 1,6,7
 141 -40 141 -40 86 -73 c 128,-1,8
 31 -106 31 -106 -23 -137 c 0,9,10
 -28 -139 -28 -139 -39.5 -145.5 c 128,-1,11
 -51 -152 -51 -152 -64.5 -161.5 c 128,-1,12
 -78 -171 -78 -171 -93 -180 c 128,-1,13
 -108 -189 -108 -189 -158 -217 c 1,14,15
 -124 -159 -124 -159 -111 -134.5 c 128,-1,16
 -98 -110 -98 -110 -84 -85 c 1,17,18
 -32 -44 -32 -44 25.5 -15 c 128,-1,19
 83 14 83 14 154 56 c 0,0,1
102 189 m 0,20,21
 131 207 131 207 153.5 218.5 c 128,-1,22
 176 230 176 230 250 281 c 1,23,24
 203 205 203 205 181.5 179.5 c 128,-1,25
 160 154 160 154 135 121 c 1,26,27
 88 91 88 91 34 59 c 128,-1,28
 -20 27 -20 27 -73 -3 c 0,29,30
 -77 -7 -77 -7 -89.5 -14 c 128,-1,31
 -102 -21 -102 -21 -116.5 -30.5 c 128,-1,32
 -131 -40 -131 -40 -144.5 -48 c 128,-1,33
 -158 -56 -158 -56 -205 -88 c 1,34,35
 -178 -28 -178 -28 -164.5 -3.5 c 128,-1,36
 -151 21 -151 21 -136 46 c 1,37,38
 -83 87 -83 87 -26.5 116 c 128,-1,39
 30 145 30 145 102 189 c 0,20,21
EndSplineSet
Validated: 1
EndChar

StartChar: uni064C
Encoding: 1612 1612 96
Width: 0
GlyphClass: 4
Flags: W
AnchorPoint: "Anchor-39" 0 0 mark 0
AnchorPoint: "Anchor-37" 0 0 mark 0
LayerCount: 2
Fore
SplineSet
79 248 m 0,0,1
 79 231 79 231 94 220 c 128,-1,2
 109 209 109 209 119 209 c 0,3,4
 131 209 131 209 131 229 c 0,5,6
 131 243 131 243 120.5 252.5 c 128,-1,7
 110 262 110 262 99 262 c 0,8,9
 94 262 94 262 86.5 258 c 128,-1,10
 79 254 79 254 79 248 c 0,0,1
58 127 m 1,11,12
 49 128 49 128 28.5 149.5 c 128,-1,13
 8 171 8 171 8 203 c 0,14,15
 10 224 10 224 21 250.5 c 128,-1,16
 32 277 32 277 46.5 299.5 c 128,-1,17
 61 322 61 322 82.5 340 c 128,-1,18
 104 358 104 358 132 358 c 0,19,20
 179 358 179 358 189.5 328 c 128,-1,21
 200 298 200 298 200 268 c 0,22,23
 200 222 200 222 180 181.5 c 128,-1,24
 160 141 160 141 128.5 107.5 c 128,-1,25
 97 74 97 74 59.5 46 c 128,-1,26
 22 18 22 18 -15 -6 c 0,27,28
 -26 -10 -26 -10 -45 -21.5 c 128,-1,29
 -64 -33 -64 -33 -63 -33 c 1,30,31
 -65 -35 -65 -35 -79 -35 c 0,32,33
 -105 -35 -105 -35 -93 -9 c 0,34,35
 -80 11 -80 11 -64.5 22.5 c 128,-1,36
 -49 34 -49 34 -31 47 c 0,37,38
 -2 69 -2 69 20 89 c 128,-1,39
 42 109 42 109 58 127 c 1,11,12
-168 133 m 0,40,41
 -166 188 -166 188 -132 238 c 128,-1,42
 -98 288 -98 288 -64 322 c 0,43,44
 -53 335 -53 335 -31 354.5 c 128,-1,45
 -9 374 -9 374 -6 376 c 0,46,47
 1 383 1 383 15 383 c 0,48,49
 40 383 40 383 30 357 c 0,50,51
 30 354 30 354 18 336.5 c 128,-1,52
 6 319 6 319 0 307 c 0,53,54
 -9 296 -9 296 -22 282.5 c 128,-1,55
 -35 269 -35 269 -47 254 c 128,-1,56
 -59 239 -59 239 -67.5 219.5 c 128,-1,57
 -76 200 -76 200 -76 176 c 0,58,59
 -76 167 -76 167 -70 156 c 128,-1,60
 -64 145 -64 145 -68 145 c 0,61,62
 -72 144 -72 144 -70.5 147 c 128,-1,63
 -69 150 -69 150 -65 157 c 0,64,65
 -59 171 -59 171 -43 181 c 128,-1,66
 -27 191 -27 191 -13 177 c 1,67,68
 -1 171 -1 171 -1 141 c 0,69,70
 -1 118 -1 118 -12 97 c 0,71,72
 -23 79 -23 79 -45 63 c 128,-1,73
 -67 47 -67 47 -101 49 c 0,74,75
 -137 49 -137 49 -152.5 79.5 c 128,-1,76
 -168 110 -168 110 -168 133 c 0,40,41
EndSplineSet
Validated: 5
EndChar

StartChar: uni064D
Encoding: 1613 1613 97
Width: 0
GlyphClass: 4
Flags: W
AnchorPoint: "Anchor-40" 0 0 mark 0
AnchorPoint: "Anchor-38" 20 153 mark 0
LayerCount: 2
Fore
SplineSet
154 56 m 0,0,1
 184 75 184 75 205.5 87 c 128,-1,2
 227 99 227 99 300 146 c 1,3,4
 254 74 254 74 232.5 47.5 c 128,-1,5
 211 21 211 21 186 -10 c 1,6,7
 141 -40 141 -40 86 -73 c 128,-1,8
 31 -106 31 -106 -23 -137 c 0,9,10
 -28 -139 -28 -139 -39.5 -145.5 c 128,-1,11
 -51 -152 -51 -152 -64.5 -161.5 c 128,-1,12
 -78 -171 -78 -171 -93 -180 c 128,-1,13
 -108 -189 -108 -189 -158 -217 c 1,14,15
 -124 -159 -124 -159 -111 -134.5 c 128,-1,16
 -98 -110 -98 -110 -84 -85 c 1,17,18
 -32 -44 -32 -44 25.5 -15 c 128,-1,19
 83 14 83 14 154 56 c 0,0,1
102 189 m 0,20,21
 131 207 131 207 153.5 218.5 c 128,-1,22
 176 230 176 230 250 281 c 1,23,24
 203 205 203 205 181.5 179.5 c 128,-1,25
 160 154 160 154 135 121 c 1,26,27
 88 91 88 91 34 59 c 128,-1,28
 -20 27 -20 27 -73 -3 c 0,29,30
 -77 -7 -77 -7 -89.5 -14 c 128,-1,31
 -102 -21 -102 -21 -116.5 -30.5 c 128,-1,32
 -131 -40 -131 -40 -144.5 -48 c 128,-1,33
 -158 -56 -158 -56 -205 -88 c 1,34,35
 -178 -28 -178 -28 -164.5 -3.5 c 128,-1,36
 -151 21 -151 21 -136 46 c 1,37,38
 -83 87 -83 87 -26.5 116 c 128,-1,39
 30 145 30 145 102 189 c 0,20,21
EndSplineSet
Validated: 1
EndChar

StartChar: uni064E
Encoding: 1614 1614 98
Width: 0
GlyphClass: 4
Flags: W
AnchorPoint: "Anchor-39" 20 -102 mark 0
AnchorPoint: "Anchor-37" 20 -102 mark 0
LayerCount: 2
Fore
SplineSet
126 103 m 0,0,1
 155 123 155 123 177.5 135 c 128,-1,2
 200 147 200 147 276 196 c 1,3,4
 227 121 227 121 205.5 94.5 c 128,-1,5
 184 68 184 68 160 37 c 1,6,7
 113 7 113 7 58.5 -25.5 c 128,-1,8
 4 -58 4 -58 -50 -90 c 0,9,10
 -54 -92 -54 -92 -66 -98.5 c 128,-1,11
 -78 -105 -78 -105 -92 -114.5 c 128,-1,12
 -106 -124 -106 -124 -119.5 -132 c 128,-1,13
 -133 -140 -133 -140 -180 -172 c 1,14,15
 -153 -112 -153 -112 -139.5 -87.5 c 128,-1,16
 -126 -63 -126 -63 -111 -38 c 1,17,18
 -59 3 -59 3 -2 33 c 128,-1,19
 55 63 55 63 126 103 c 0,0,1
EndSplineSet
Validated: 1
EndChar

StartChar: uni064F
Encoding: 1615 1615 99
Width: 0
GlyphClass: 4
Flags: W
AnchorPoint: "Anchor-39" -61 -122 mark 0
AnchorPoint: "Anchor-37" -61 -122 mark 0
LayerCount: 2
Fore
SplineSet
-197 1812 m 0,0,1
 -197 1793 -197 1793 -178.5 1779 c 128,-1,2
 -160 1765 -160 1765 -146 1765 c 0,3,4
 -129 1765 -129 1765 -129 1792 c 0,5,6
 -129 1811 -129 1811 -142 1822 c 128,-1,7
 -155 1833 -155 1833 -171 1833 c 0,8,9
 -176 1833 -176 1833 -186.5 1827.5 c 128,-1,10
 -197 1822 -197 1822 -197 1812 c 0,0,1
-215 1668 m 1,11,12
 -229 1670 -229 1670 -253.5 1696 c 128,-1,13
 -278 1722 -278 1722 -276 1759 c 0,14,15
 -274 1784 -274 1784 -262.5 1816 c 128,-1,16
 -251 1848 -251 1848 -233 1875.5 c 128,-1,17
 -215 1903 -215 1903 -188 1924 c 128,-1,18
 -161 1945 -161 1945 -130 1945 c 0,19,20
 -80 1945 -80 1945 -65 1910 c 128,-1,21
 -50 1875 -50 1875 -50 1839 c 0,22,23
 -50 1782 -50 1782 -75 1733.5 c 128,-1,24
 -100 1685 -100 1685 -137.5 1644 c 128,-1,25
 -175 1603 -175 1603 -221 1569 c 128,-1,26
 -267 1535 -267 1535 -311 1508 c 0,27,28
 -321 1502 -321 1502 -345 1488 c 128,-1,29
 -369 1474 -369 1474 -371 1474 c 0,30,31
 -375 1472 -375 1472 -386 1472 c 0,32,33
 -415 1472 -415 1472 -400 1500 c 0,34,35
 -383 1524 -383 1524 -365.5 1538.5 c 128,-1,36
 -348 1553 -348 1553 -325 1569 c 0,37,38
 -289 1597 -289 1597 -262.5 1621 c 128,-1,39
 -236 1645 -236 1645 -215 1668 c 1,11,12
EndSplineSet
Validated: 33
EndChar

StartChar: uni0650
Encoding: 1616 1616 100
Width: 0
GlyphClass: 4
Flags: W
AnchorPoint: "Anchor-40" 20 81 mark 0
AnchorPoint: "Anchor-38" 20 81 mark 0
LayerCount: 2
Fore
SplineSet
126 103 m 0,0,1
 155 123 155 123 177.5 135 c 128,-1,2
 200 147 200 147 276 196 c 1,3,4
 227 121 227 121 205.5 94.5 c 128,-1,5
 184 68 184 68 160 37 c 1,6,7
 113 7 113 7 58.5 -25.5 c 128,-1,8
 4 -58 4 -58 -50 -90 c 0,9,10
 -54 -92 -54 -92 -66 -98.5 c 128,-1,11
 -78 -105 -78 -105 -92 -114.5 c 128,-1,12
 -106 -124 -106 -124 -119.5 -132 c 128,-1,13
 -133 -140 -133 -140 -180 -172 c 1,14,15
 -153 -112 -153 -112 -139.5 -87.5 c 128,-1,16
 -126 -63 -126 -63 -111 -38 c 1,17,18
 -59 3 -59 3 -2 33 c 128,-1,19
 55 63 55 63 126 103 c 0,0,1
EndSplineSet
Validated: 1
EndChar

StartChar: uni0651
Encoding: 1617 1617 101
Width: 0
GlyphClass: 4
Flags: W
AnchorPoint: "Anchor-39" 0 0 mark 0
AnchorPoint: "Anchor-37" 0 0 mark 0
LayerCount: 2
Fore
SplineSet
-143 2364 m 1,0,1
 -133 2386 -133 2386 -103 2386 c 1,2,3
 -103 2347 -103 2347 -107.5 2319.5 c 128,-1,4
 -112 2292 -112 2292 -112 2265 c 0,5,6
 -112 2237 -112 2237 -104 2214 c 128,-1,7
 -96 2191 -96 2191 -74 2191 c 0,8,9
 -54 2192 -54 2192 -49.5 2209.5 c 128,-1,10
 -45 2227 -45 2227 -41 2260 c 0,11,12
 -37 2285 -37 2285 -32 2310 c 128,-1,13
 -27 2335 -27 2335 -19 2351 c 1,14,15
 -15 2371 -15 2371 -6.5 2382 c 128,-1,16
 2 2393 2 2393 40 2423 c 1,17,18
 40 2372 40 2372 36 2346 c 128,-1,19
 32 2320 32 2320 32 2296 c 0,20,21
 32 2280 32 2280 33 2263 c 128,-1,22
 34 2246 34 2246 39.5 2232 c 128,-1,23
 45 2218 45 2218 55 2209 c 128,-1,24
 65 2200 65 2200 80 2197 c 0,25,26
 89 2197 89 2197 92 2202 c 0,27,28
 92 2234 92 2234 92 2259 c 0,29,30
 92 2287 92 2287 104 2325 c 0,31,32
 112 2353 112 2353 123 2380 c 128,-1,33
 134 2407 134 2407 167 2446 c 1,34,35
 171 2382 171 2382 171 2341 c 0,36,37
 171 2302 171 2302 167 2255 c 0,38,39
 165 2235 165 2235 158 2205 c 128,-1,40
 151 2175 151 2175 138 2144.5 c 128,-1,41
 125 2114 125 2114 103.5 2090.5 c 128,-1,42
 82 2067 82 2067 47 2067 c 0,43,44
 15 2067 15 2067 -3.5 2086.5 c 128,-1,45
 -22 2106 -22 2106 -20 2103 c 1,46,47
 -21 2103 -21 2103 -42 2080 c 128,-1,48
 -63 2057 -63 2057 -102 2057 c 0,49,50
 -147 2057 -147 2057 -167 2088.5 c 128,-1,51
 -187 2120 -187 2120 -187 2163 c 0,52,53
 -187 2185 -187 2185 -185 2226.5 c 128,-1,54
 -183 2268 -183 2268 -172 2298 c 0,55,56
 -157 2344 -157 2344 -143 2364 c 1,0,1
EndSplineSet
Validated: 1
EndChar

StartChar: uni0652
Encoding: 1618 1618 102
Width: 0
GlyphClass: 4
Flags: W
AnchorPoint: "Anchor-39" -10 -71 mark 0
AnchorPoint: "Anchor-37" -10 -71 mark 0
LayerCount: 2
Fore
SplineSet
57 33 m 0,0,1
 57 45 57 45 38 48 c 128,-1,2
 19 51 19 51 7 51 c 0,3,4
 -12 51 -12 51 -28 48 c 128,-1,5
 -44 45 -44 45 -88 37 c 1,6,7
 -74 92 -74 92 -61 114 c 0,8,9
 -41 151 -41 151 -19.5 162.5 c 128,-1,10
 2 174 2 174 48 174 c 0,11,12
 61 174 61 174 79 173 c 128,-1,13
 97 172 97 172 114 166 c 128,-1,14
 131 160 131 160 144 148 c 128,-1,15
 157 136 157 136 157 115 c 0,16,17
 157 91 157 91 142 63.5 c 128,-1,18
 127 36 127 36 117 19 c 0,19,20
 94 -12 94 -12 83.5 -28.5 c 128,-1,21
 73 -45 73 -45 63.5 -55.5 c 128,-1,22
 54 -66 54 -66 40 -73.5 c 128,-1,23
 26 -81 26 -81 0 -89 c 0,24,25
 -12 -93 -12 -93 -31.5 -99 c 128,-1,26
 -51 -105 -51 -105 -71 -111.5 c 128,-1,27
 -91 -118 -91 -118 -108 -122.5 c 128,-1,28
 -125 -127 -125 -127 -127 -127 c 0,29,30
 -170 -137 -170 -137 -161 -117.5 c 128,-1,31
 -152 -98 -152 -98 -130 -88 c 0,32,33
 -127 -86 -127 -86 -109.5 -77 c 128,-1,34
 -92 -68 -92 -68 -72 -57.5 c 128,-1,35
 -52 -47 -52 -47 -35.5 -38 c 128,-1,36
 -19 -29 -19 -29 -14 -27 c 0,37,38
 -6 -23 -6 -23 15 -9 c 128,-1,39
 36 5 36 5 44 10 c 0,40,41
 46 12 46 12 51.5 18.5 c 128,-1,42
 57 25 57 25 57 33 c 0,0,1
EndSplineSet
Validated: 1
EndChar

StartChar: uni0653
Encoding: 1619 1619 103
Width: 0
GlyphClass: 4
Flags: W
AnchorPoint: "Anchor-39" 0 0 mark 0
AnchorPoint: "Anchor-37" 0 0 mark 0
LayerCount: 2
Fore
SplineSet
-132 303 m 0,0,1
 -97 303 -97 303 -69.5 291 c 128,-1,2
 -42 279 -42 279 -16 266 c 0,3,4
 55 238 55 238 131.5 246.5 c 128,-1,5
 208 255 208 255 278 291 c 128,-1,6
 348 327 348 327 405 383 c 128,-1,7
 462 439 462 439 497 506 c 1,8,9
 533 542 533 542 540 502 c 1,10,11
 540 458 540 458 526 416.5 c 128,-1,12
 512 375 512 375 492 334 c 0,13,14
 457 257 457 257 405.5 183.5 c 128,-1,15
 354 110 354 110 288 51.5 c 128,-1,16
 222 -7 222 -7 141 -43 c 128,-1,17
 60 -79 60 -79 -34 -79 c 0,18,19
 -101 -79 -101 -79 -156 -53.5 c 128,-1,20
 -211 -28 -211 -28 -263 2 c 1,21,22
 -292 12 -292 12 -320 -1.5 c 128,-1,23
 -348 -15 -348 -15 -374 -41 c 128,-1,24
 -400 -67 -400 -67 -422 -100 c 128,-1,25
 -444 -133 -444 -133 -460 -154 c 0,26,27
 -472 -176 -472 -176 -508 -176 c 1,28,29
 -508 -107 -508 -107 -474.5 -27 c 128,-1,30
 -441 53 -441 53 -388.5 125.5 c 128,-1,31
 -336 198 -336 198 -268 250.5 c 128,-1,32
 -200 303 -200 303 -132 303 c 0,0,1
EndSplineSet
Validated: 33
EndChar

StartChar: uni0654
Encoding: 1620 1620 104
Width: 0
GlyphClass: 4
Flags: W
AnchorPoint: "Anchor-39" 0 0 mark 0
AnchorPoint: "Anchor-37" 225 102 mark 0
LayerCount: 2
Fore
SplineSet
-70 -39 m 0,0,1
 -43 -39 -43 -39 -26 -9 c 128,-1,2
 -9 21 -9 21 12 63.5 c 128,-1,3
 33 106 33 106 64 144 c 128,-1,4
 95 182 95 182 163 182 c 0,5,6
 174 182 174 182 192 177 c 128,-1,7
 210 172 210 172 231 156 c 1,8,9
 216 121 216 121 200 86.5 c 128,-1,10
 184 52 184 52 162 19 c 1,11,12
 137 19 137 19 114.5 14 c 128,-1,13
 92 9 92 9 70 -6 c 1,14,15
 54 -22 54 -22 40 -49.5 c 128,-1,16
 26 -77 26 -77 6.5 -103 c 128,-1,17
 -13 -129 -13 -129 -41.5 -149.5 c 128,-1,18
 -70 -170 -70 -170 -113 -170 c 0,19,20
 -145 -170 -145 -170 -165.5 -153.5 c 128,-1,21
 -186 -137 -186 -137 -203 -121 c 1,22,23
 -196 -92 -196 -92 -186.5 -66.5 c 128,-1,24
 -177 -41 -177 -41 -157 7 c 1,25,26
 -126 -18 -126 -18 -107 -28.5 c 128,-1,27
 -88 -39 -88 -39 -70 -39 c 0,0,1
EndSplineSet
Validated: 1
EndChar

StartChar: uni0656
Encoding: 1622 1622 105
Width: 0
GlyphClass: 4
Flags: W
AnchorPoint: "Anchor-40" 0 0 mark 0
AnchorPoint: "Anchor-38" 0 296 mark 0
LayerCount: 2
Fore
SplineSet
-24 212 m 1,0,1
 -13 246 -13 246 -3 281.5 c 128,-1,2
 7 317 7 317 17 350 c 0,3,4
 19 354 19 354 23 364.5 c 128,-1,5
 27 375 27 375 60 375 c 1,6,-1
 60 332 l 2,7,8
 60 319 60 319 59 290.5 c 128,-1,9
 58 262 58 262 56 229.5 c 128,-1,10
 54 197 54 197 52.5 167.5 c 128,-1,11
 51 138 51 138 48 125 c 0,12,13
 47 114 47 114 40.5 91 c 128,-1,14
 34 68 34 68 26 43 c 128,-1,15
 18 18 18 18 9.5 -3.5 c 128,-1,16
 1 -25 1 -25 -1 -33 c 0,17,18
 -9 -49 -9 -49 -41 -49 c 1,19,20
 -36 20 -36 20 -32 86 c 128,-1,21
 -28 152 -28 152 -24 212 c 1,0,1
EndSplineSet
Validated: 1
EndChar

StartChar: uni0657
Encoding: 1623 1623 106
Width: 0
GlyphClass: 4
Flags: W
AnchorPoint: "Anchor-39" 0 0 mark 0
AnchorPoint: "Anchor-37" 0 0 mark 0
LayerCount: 2
Fore
SplineSet
-72 96 m 0,0,1
 -70 151 -70 151 -52 197.5 c 128,-1,2
 -34 244 -34 244 -9 292 c 0,3,4
 9 332 9 332 28.5 352 c 128,-1,5
 48 372 48 372 57.5 359 c 128,-1,6
 67 346 67 346 64 325.5 c 128,-1,7
 61 305 61 305 50 283 c 0,8,9
 40 254 40 254 29 227 c 128,-1,10
 18 200 18 200 14 168 c 0,11,12
 14 151 14 151 19 129.5 c 128,-1,13
 24 108 24 108 33 108 c 1,14,15
 40 115 40 115 48 122 c 128,-1,16
 56 129 56 129 63 136 c 0,17,18
 78 143 78 143 92 136.5 c 128,-1,19
 106 130 106 130 106 121 c 0,20,21
 106 101 106 101 101 79 c 128,-1,22
 96 57 96 57 85.5 37.5 c 128,-1,23
 75 18 75 18 55 3 c 128,-1,24
 35 -12 35 -12 9 -12 c 0,25,26
 -41 -12 -41 -12 -56.5 25 c 128,-1,27
 -72 62 -72 62 -72 96 c 0,0,1
EndSplineSet
Validated: 1
EndChar

StartChar: uni0658
Encoding: 1624 1624 107
Width: 0
GlyphClass: 4
Flags: W
AnchorPoint: "Anchor-39" 51 30 mark 0
AnchorPoint: "Anchor-37" 51 30 mark 0
LayerCount: 2
Fore
SplineSet
93 250 m 1,0,1
 77 219 77 219 73 207.5 c 128,-1,2
 69 196 69 196 71 180 c 0,3,4
 71 170 71 170 74 155.5 c 128,-1,5
 77 141 77 141 85 130 c 128,-1,6
 93 119 93 119 103 113 c 128,-1,7
 113 107 113 107 125 109 c 0,8,9
 145 116 145 116 155 130 c 128,-1,10
 165 144 165 144 207 149 c 1,11,12
 204 117 204 117 191.5 91.5 c 128,-1,13
 179 66 179 66 160.5 43.5 c 128,-1,14
 142 21 142 21 117.5 5.5 c 128,-1,15
 93 -10 93 -10 64 -10 c 0,16,17
 19 -10 19 -10 -0.5 25 c 128,-1,18
 -20 60 -20 60 -20 92 c 0,19,20
 -20 102 -20 102 -16 125 c 128,-1,21
 -12 148 -12 148 -2.5 173 c 128,-1,22
 7 198 7 198 23.5 220 c 128,-1,23
 40 242 40 242 93 250 c 1,0,1
EndSplineSet
Validated: 1
EndChar

StartChar: uni0660
Encoding: 1632 1632 108
Width: 709
GlyphClass: 2
Flags: W
LayerCount: 2
Fore
SplineSet
393 260 m 1,0,1
 370 272 370 272 336 299 c 128,-1,2
 302 326 302 326 265 358.5 c 128,-1,3
 228 391 228 391 194.5 424.5 c 128,-1,4
 161 458 161 458 143 476 c 1,5,6
 143 485 143 485 172 524 c 128,-1,7
 201 563 201 563 234.5 606 c 128,-1,8
 268 649 268 649 299 688 c 128,-1,9
 330 727 330 727 347 727 c 1,10,11
 376 706 376 706 412.5 675.5 c 128,-1,12
 449 645 449 645 485 612 c 128,-1,13
 521 579 521 579 550.5 551 c 128,-1,14
 580 523 580 523 596 507 c 1,15,16
 590 495 590 495 563 459.5 c 128,-1,17
 536 424 536 424 503 383.5 c 128,-1,18
 470 343 470 343 440 309.5 c 128,-1,19
 410 276 410 276 393 260 c 1,0,1
EndSplineSet
Validated: 1
EndChar

StartChar: uni0661
Encoding: 1633 1633 109
Width: 434
GlyphClass: 2
Flags: W
LayerCount: 2
Fore
SplineSet
320 412 m 2,0,1
 320 167 320 167 227 -49 c 0,2,3
 216 -73 216 -73 205 -95.5 c 128,-1,4
 194 -118 194 -118 183 -137 c 128,-1,5
 172 -156 172 -156 157.5 -147.5 c 128,-1,6
 143 -139 143 -139 151 -105 c 0,7,8
 153 -88 153 -88 155 -58.5 c 128,-1,9
 157 -29 157 -29 159 0 c 128,-1,10
 161 29 161 29 163 51.5 c 128,-1,11
 165 74 165 74 165 78 c 2,12,-1
 165 729 l 1,13,14
 173 802 173 802 203.5 881 c 128,-1,15
 234 960 234 960 261 1030 c 0,16,17
 290 1098 290 1098 306 1079.5 c 128,-1,18
 322 1061 322 1061 320 975 c 2,19,-1
 320 412 l 2,0,1
EndSplineSet
Validated: 33
EndChar

StartChar: uni0662
Encoding: 1634 1634 110
Width: 791
GlyphClass: 2
Flags: W
LayerCount: 2
Fore
SplineSet
323 467 m 0,0,1
 323 311 323 311 293 155.5 c 128,-1,2
 263 0 263 0 193 -142 c 1,3,4
 176 -166 176 -166 161.5 -157.5 c 128,-1,5
 147 -149 147 -149 147 -139 c 0,6,7
 147 -133 147 -133 148.5 -124 c 128,-1,8
 150 -115 150 -115 150 -109 c 0,9,10
 164 20 164 20 174 159.5 c 128,-1,11
 184 299 184 299 174 428 c 0,12,13
 174 455 174 455 169 511 c 128,-1,14
 164 567 164 567 159 628.5 c 128,-1,15
 154 690 154 690 148.5 744.5 c 128,-1,16
 143 799 143 799 143 823 c 0,17,18
 143 842 143 842 150.5 886.5 c 128,-1,19
 158 931 158 931 170 975.5 c 128,-1,20
 182 1020 182 1020 197.5 1058 c 128,-1,21
 213 1096 213 1096 246 1083 c 1,22,23
 253 1015 253 1015 285.5 979.5 c 128,-1,24
 318 944 318 944 366 933 c 0,25,26
 427 918 427 918 486 934 c 128,-1,27
 545 950 545 950 574 989 c 0,28,29
 585 1005 585 1005 599.5 1026.5 c 128,-1,30
 614 1048 614 1048 630 1065.5 c 128,-1,31
 646 1083 646 1083 662 1075 c 128,-1,32
 678 1067 678 1067 671 1027 c 0,33,34
 661 970 661 970 639.5 893.5 c 128,-1,35
 618 817 618 817 576 750.5 c 128,-1,36
 534 684 534 684 467 641.5 c 128,-1,37
 400 599 400 599 317 614 c 1,38,39
 317 586 317 586 320 547 c 128,-1,40
 323 508 323 508 323 467 c 0,0,1
EndSplineSet
Validated: 33
EndChar

StartChar: uni0663
Encoding: 1635 1635 111
Width: 838
GlyphClass: 2
Flags: W
LayerCount: 2
Fore
SplineSet
323 383 m 0,0,1
 323 309 323 309 321 249.5 c 128,-1,2
 319 190 319 190 310.5 134.5 c 128,-1,3
 302 79 302 79 286 25 c 128,-1,4
 270 -29 270 -29 242 -90 c 0,5,6
 232 -114 232 -114 222.5 -132 c 128,-1,7
 213 -150 213 -150 194.5 -157.5 c 128,-1,8
 176 -165 176 -165 176 -131 c 0,9,10
 176 -115 176 -115 184 -71 c 0,11,12
 205 145 205 145 188.5 363 c 128,-1,13
 172 581 172 581 143 799 c 1,14,-1
 143 823 l 2,15,16
 143 836 143 836 150.5 878.5 c 128,-1,17
 158 921 158 921 169 966.5 c 128,-1,18
 180 1012 180 1012 196.5 1050.5 c 128,-1,19
 213 1089 213 1089 238 1089 c 2,20,-1
 253 1089 l 1,21,22
 269 997 269 997 309.5 963.5 c 128,-1,23
 350 930 350 930 429 930 c 0,24,25
 475 930 475 930 506.5 949.5 c 128,-1,26
 538 969 538 969 571 1009 c 0,27,28
 577 1014 577 1014 584 1026.5 c 128,-1,29
 591 1039 591 1039 599 1054 c 128,-1,30
 607 1069 607 1069 617 1082 c 128,-1,31
 627 1095 627 1095 644 1095 c 0,32,33
 668 1095 668 1095 669.5 1082 c 128,-1,34
 671 1069 671 1069 668 1056 c 128,-1,35
 665 1043 665 1043 662 1030.5 c 128,-1,36
 659 1018 659 1018 661 1011 c 0,37,38
 661 994 661 994 671 986.5 c 128,-1,39
 681 979 681 979 696 975 c 128,-1,40
 711 971 711 971 728 968.5 c 128,-1,41
 745 966 745 966 756 966 c 0,42,43
 777 966 777 966 806 977.5 c 128,-1,44
 835 989 835 989 854 1004 c 0,45,46
 864 1011 864 1011 874 1026 c 128,-1,47
 884 1041 884 1041 893 1057.5 c 128,-1,48
 902 1074 902 1074 911 1090 c 128,-1,49
 920 1106 920 1106 935 1106 c 0,50,51
 958 1106 958 1106 961 1093 c 128,-1,52
 964 1080 964 1080 964 1073 c 0,53,54
 964 1035 964 1035 943 976.5 c 128,-1,55
 922 918 922 918 890 856.5 c 128,-1,56
 858 795 858 795 817 743 c 128,-1,57
 776 691 776 691 736 672 c 0,58,59
 705 657 705 657 668.5 652 c 128,-1,60
 632 647 632 647 599.5 655.5 c 128,-1,61
 567 664 567 664 541 685.5 c 128,-1,62
 515 707 515 707 512 714 c 1,63,64
 507 707 507 707 486 682.5 c 128,-1,65
 465 658 465 658 438 642 c 128,-1,66
 411 626 411 626 378 620.5 c 128,-1,67
 345 615 345 615 317 615 c 1,68,69
 317 565 317 565 320 503.5 c 128,-1,70
 323 442 323 442 323 383 c 0,0,1
EndSplineSet
Validated: 33
EndChar

StartChar: uni0664
Encoding: 1636 1636 112
Width: 860
GlyphClass: 2
Flags: W
LayerCount: 2
Fore
SplineSet
166 724 m 0,0,1
 176 773 176 773 194 828.5 c 128,-1,2
 212 884 212 884 242 930.5 c 128,-1,3
 272 977 272 977 319.5 1008.5 c 128,-1,4
 367 1040 367 1040 435 1040 c 0,5,6
 485 1040 485 1040 525 1020 c 128,-1,7
 565 1000 565 1000 594 969 c 128,-1,8
 623 938 623 938 640 896.5 c 128,-1,9
 657 855 657 855 656 870 c 0,10,11
 656 871 656 871 688 930 c 128,-1,12
 720 989 720 989 760.5 1040.5 c 128,-1,13
 801 1092 801 1092 850.5 1136.5 c 128,-1,14
 900 1181 900 1181 984 1218 c 1,15,16
 984 1153 984 1153 974 1094 c 128,-1,17
 964 1035 964 1035 953 985 c 1,18,19
 816 878 816 878 734 752 c 128,-1,20
 652 626 652 626 592 457 c 1,21,-1
 570 457 l 2,22,23
 554 457 554 457 550.5 481 c 128,-1,24
 547 505 547 505 542 531.5 c 128,-1,25
 537 558 537 558 530.5 584 c 128,-1,26
 524 610 524 610 519 625 c 0,27,28
 500 665 500 665 465.5 692 c 128,-1,29
 431 719 431 719 388 719 c 0,30,31
 375 719 375 719 351.5 714.5 c 128,-1,32
 328 710 328 710 306.5 699.5 c 128,-1,33
 285 689 285 689 270 676 c 128,-1,34
 255 663 255 663 257 647 c 0,35,36
 263 547 263 547 275.5 449.5 c 128,-1,37
 288 352 288 352 288 252 c 0,38,39
 288 168 288 168 279 88.5 c 128,-1,40
 270 9 270 9 247 -69 c 0,41,42
 239 -104 239 -104 230.5 -126.5 c 128,-1,43
 222 -149 222 -149 205 -166 c 128,-1,44
 188 -183 188 -183 182 -156 c 128,-1,45
 176 -129 176 -129 180 -94 c 1,46,47
 180 33 180 33 173 134.5 c 128,-1,48
 166 236 166 236 159 322 c 128,-1,49
 152 408 152 408 147.5 482.5 c 128,-1,50
 143 557 143 557 150 631 c 0,51,52
 150 633 150 633 152 644.5 c 128,-1,53
 154 656 154 656 157 671.5 c 128,-1,54
 160 687 160 687 162 701.5 c 128,-1,55
 164 716 164 716 166 724 c 0,0,1
EndSplineSet
Validated: 33
EndChar

StartChar: uni0665
Encoding: 1637 1637 113
Width: 1114
GlyphClass: 2
Flags: W
LayerCount: 2
Fore
SplineSet
292 295 m 0,0,1
 292 247 292 247 328 218 c 128,-1,2
 364 189 364 189 407 186 c 0,3,4
 449 183 449 183 484.5 212 c 128,-1,5
 520 241 520 241 546 278.5 c 128,-1,6
 572 316 572 316 604 391 c 1,7,8
 635 391 635 391 638.5 363.5 c 128,-1,9
 642 336 642 336 654 309.5 c 128,-1,10
 666 283 666 283 690 262 c 128,-1,11
 714 241 714 241 760 241 c 0,12,13
 782 241 782 241 811.5 245 c 128,-1,14
 841 249 841 249 852 264 c 1,15,16
 854 301 854 301 842.5 348 c 128,-1,17
 831 395 831 395 811.5 443 c 128,-1,18
 792 491 792 491 767 533.5 c 128,-1,19
 742 576 742 576 720 606 c 0,20,21
 708 623 708 623 683.5 657.5 c 128,-1,22
 659 692 659 692 629.5 728.5 c 128,-1,23
 600 765 600 765 573.5 791.5 c 128,-1,24
 547 818 547 818 545 819 c 0,25,26
 523 785 523 785 477.5 711.5 c 128,-1,27
 432 638 432 638 391.5 559.5 c 128,-1,28
 351 481 351 481 321.5 409 c 128,-1,29
 292 337 292 337 292 295 c 0,0,1
143 111 m 0,30,31
 143 171 143 171 157.5 238 c 128,-1,32
 172 305 172 305 210.5 395.5 c 128,-1,33
 249 486 249 486 317.5 609 c 128,-1,34
 386 732 386 732 495 906 c 0,35,36
 503 920 503 920 515.5 955.5 c 128,-1,37
 528 991 528 991 540.5 1029 c 128,-1,38
 553 1067 553 1067 563.5 1099.5 c 128,-1,39
 574 1132 574 1132 590 1132 c 0,40,41
 608 1132 608 1132 631 1114 c 128,-1,42
 654 1096 654 1096 664 1087 c 0,43,44
 722 1031 722 1031 783 962 c 128,-1,45
 844 893 844 893 891 815.5 c 128,-1,46
 938 738 938 738 969.5 654 c 128,-1,47
 1001 570 1001 570 1001 483 c 0,48,49
 1001 446 1001 446 992.5 390.5 c 128,-1,50
 984 335 984 335 969 273 c 128,-1,51
 954 211 954 211 928.5 150 c 128,-1,52
 903 89 903 89 869 39 c 128,-1,53
 835 -11 835 -11 790.5 -44.5 c 128,-1,54
 746 -78 746 -78 689 -78 c 0,55,56
 615 -78 615 -78 574 -32.5 c 128,-1,57
 533 13 533 13 527 36 c 1,58,59
 531 44 531 44 512.5 10 c 128,-1,60
 494 -24 494 -24 468 -53 c 128,-1,61
 442 -82 442 -82 407 -102.5 c 128,-1,62
 372 -123 372 -123 324 -123 c 0,63,64
 271 -123 271 -123 237 -101.5 c 128,-1,65
 203 -80 203 -80 181.5 -45 c 128,-1,66
 160 -10 160 -10 151.5 29.5 c 128,-1,67
 143 69 143 69 143 111 c 0,30,31
EndSplineSet
Validated: 33
EndChar

StartChar: uni0666
Encoding: 1638 1638 114
Width: 752
GlyphClass: 2
Flags: W
LayerCount: 2
Fore
SplineSet
472 596 m 1,0,1
 423 564 423 564 346.5 556.5 c 128,-1,2
 270 549 270 549 208 577.5 c 128,-1,3
 146 606 146 606 109 667 c 128,-1,4
 72 728 72 728 76 815 c 0,5,6
 76 827 76 827 78 850 c 128,-1,7
 80 873 80 873 85 901 c 128,-1,8
 90 929 90 929 95 957.5 c 128,-1,9
 100 986 100 986 106 1010 c 1,10,11
 116 1032 116 1032 126 1042 c 128,-1,12
 136 1052 136 1052 148.5 1049 c 128,-1,13
 161 1046 161 1046 165 1040 c 128,-1,14
 169 1034 169 1034 171 996.5 c 128,-1,15
 173 959 173 959 229.5 913.5 c 128,-1,16
 286 868 286 868 371 868 c 0,17,18
 450 868 450 868 494 910 c 128,-1,19
 538 952 538 952 565 1016 c 0,20,21
 600 1110 600 1110 619 1086.5 c 128,-1,22
 638 1063 638 1063 632 979 c 1,23,24
 630 868 630 868 627 762.5 c 128,-1,25
 624 657 624 657 622 545 c 0,26,27
 618 465 618 465 616 383 c 128,-1,28
 614 301 614 301 606.5 218.5 c 128,-1,29
 599 136 599 136 584 56 c 128,-1,30
 569 -24 569 -24 540 -100 c 0,31,32
 532 -121 532 -121 523.5 -138 c 128,-1,33
 515 -155 515 -155 497 -167 c 128,-1,34
 479 -179 479 -179 475 -158 c 128,-1,35
 471 -137 471 -137 475 -104 c 1,36,37
 473 -14 473 -14 476 77 c 128,-1,38
 479 168 479 168 482 258 c 128,-1,39
 485 348 485 348 483 438 c 128,-1,40
 481 528 481 528 472 596 c 1,0,1
EndSplineSet
Validated: 33
EndChar

StartChar: uni0667
Encoding: 1639 1639 115
Width: 999
GlyphClass: 2
Flags: W
LayerCount: 2
Fore
SplineSet
357 465 m 1,0,1
 470 362 470 362 605 265.5 c 128,-1,2
 740 169 740 169 887 80 c 1,3,4
 882 55 882 55 860 19 c 128,-1,5
 838 -17 838 -17 812 -55.5 c 128,-1,6
 786 -94 786 -94 759.5 -125.5 c 128,-1,7
 733 -157 733 -157 712 -166 c 1,8,9
 685 -163 685 -163 637.5 -138.5 c 128,-1,10
 590 -114 590 -114 532 -77 c 128,-1,11
 474 -40 474 -40 410 5 c 128,-1,12
 346 50 346 50 291 93.5 c 128,-1,13
 236 137 236 137 196 173.5 c 128,-1,14
 156 210 156 210 143 231 c 1,15,16
 143 263 143 263 151.5 292 c 128,-1,17
 160 321 160 321 175 347 c 0,18,19
 280 536 280 536 432.5 700.5 c 128,-1,20
 585 865 585 865 751 1016 c 0,21,22
 780 1039 780 1039 796 1032.5 c 128,-1,23
 812 1026 812 1026 791 996 c 0,24,25
 783 982 783 982 769.5 960.5 c 128,-1,26
 756 939 756 939 743.5 919.5 c 128,-1,27
 731 900 731 900 720.5 884 c 128,-1,28
 710 868 710 868 708 865 c 0,29,30
 548 661 548 661 357 465 c 1,0,1
EndSplineSet
Validated: 1
EndChar

StartChar: uni0668
Encoding: 1640 1640 116
Width: 1194
GlyphClass: 2
Flags: W
LayerCount: 2
Fore
SplineSet
569 627 m 1,0,1
 508 496 508 496 441 332.5 c 128,-1,2
 374 169 374 169 284 15 c 0,3,4
 280 7 280 7 260.5 -24 c 128,-1,5
 241 -55 241 -55 220.5 -82 c 128,-1,6
 200 -109 200 -109 171.5 -122.5 c 128,-1,7
 143 -136 143 -136 163 -68 c 1,8,9
 256 156 256 156 349 371 c 128,-1,10
 442 586 442 586 536 809 c 0,11,12
 559 856 559 856 577.5 901.5 c 128,-1,13
 596 947 596 947 619 990 c 1,14,15
 630 998 630 998 642.5 1000.5 c 128,-1,16
 655 1003 655 1003 673 978.5 c 128,-1,17
 691 954 691 954 723 902.5 c 128,-1,18
 755 851 755 851 814 753 c 1,19,20
 886 611 886 611 958 461 c 128,-1,21
 1030 311 1030 311 1089 162 c 1,22,23
 1066 122 1066 122 1048.5 93 c 128,-1,24
 1031 64 1031 64 1012.5 37 c 128,-1,25
 994 10 994 10 975 -16.5 c 128,-1,26
 956 -43 956 -43 915 -97 c 1,27,28
 856 15 856 15 815 108 c 128,-1,29
 774 201 774 201 734 293 c 128,-1,30
 694 385 694 385 650 475.5 c 128,-1,31
 606 566 606 566 569 627 c 1,0,1
EndSplineSet
Validated: 1
EndChar

StartChar: uni0669
Encoding: 1641 1641 117
Width: 823
GlyphClass: 2
Flags: W
LayerCount: 2
Fore
SplineSet
284 700 m 0,0,1
 284 668 284 668 302 645 c 128,-1,2
 320 622 320 622 346 608.5 c 128,-1,3
 372 595 372 595 402.5 588 c 128,-1,4
 433 581 433 581 459 581 c 0,5,6
 473 581 473 581 490.5 583 c 128,-1,7
 508 585 508 585 521.5 590.5 c 128,-1,8
 535 596 535 596 545 604 c 128,-1,9
 555 612 555 612 557 627 c 0,10,11
 557 663 557 663 544 699.5 c 128,-1,12
 531 736 531 736 508.5 766.5 c 128,-1,13
 486 797 486 797 456 815.5 c 128,-1,14
 426 834 426 834 392 834 c 0,15,16
 370 834 370 834 351 822.5 c 128,-1,17
 332 811 332 811 316.5 792 c 128,-1,18
 301 773 301 773 292.5 748.5 c 128,-1,19
 284 724 284 724 284 700 c 0,0,1
312 1015 m 1,20,21
 363 1087 363 1087 414 1114 c 128,-1,22
 465 1141 465 1141 512 1132 c 128,-1,23
 559 1123 559 1123 596 1085.5 c 128,-1,24
 633 1048 633 1048 658 996 c 128,-1,25
 683 944 683 944 696.5 883 c 128,-1,26
 710 822 710 822 710 762 c 0,27,28
 710 588 710 588 695.5 411.5 c 128,-1,29
 681 235 681 235 638 68 c 1,30,31
 587 -86 587 -86 538 -183.5 c 128,-1,32
 489 -281 489 -281 520 -105 c 1,33,34
 530 -24 530 -24 536.5 58.5 c 128,-1,35
 543 141 543 141 543 240 c 0,36,37
 543 248 543 248 542 271.5 c 128,-1,38
 541 295 541 295 540 319.5 c 128,-1,39
 539 344 539 344 538 366.5 c 128,-1,40
 537 389 537 389 537 350 c 1,41,42
 520 325 520 325 448 299.5 c 128,-1,43
 376 274 376 274 308.5 290.5 c 128,-1,44
 241 307 241 307 193 362.5 c 128,-1,45
 145 418 145 418 143 504 c 2,46,-1
 143 506 l 1,47,48
 150 568 150 568 166 635 c 128,-1,49
 182 702 182 702 204.5 767.5 c 128,-1,50
 227 833 227 833 255.5 897 c 128,-1,51
 284 961 284 961 312 1015 c 1,20,21
EndSplineSet
Validated: 33
EndChar

StartChar: uni066A
Encoding: 1642 1642 118
Width: 1192
GlyphClass: 2
Flags: W
LayerCount: 2
Fore
SplineSet
407 -112 m 1,0,1
 335 -155 335 -155 288 -181 c 128,-1,2
 241 -207 241 -207 143 -264 c 1,3,-1
 848 1010 l 1,4,-1
 1111 1167 l 1,5,6
 1020 1005 1020 1005 961.5 899.5 c 128,-1,7
 903 794 903 794 851 697.5 c 128,-1,8
 799 601 799 601 748.5 510 c 128,-1,9
 698 419 698 419 646 322.5 c 128,-1,10
 594 226 594 226 535.5 120.5 c 128,-1,11
 477 15 477 15 407 -112 c 1,0,1
763 70 m 0,12,13
 759 78 759 78 775 105.5 c 128,-1,14
 791 133 791 133 813 162.5 c 128,-1,15
 835 192 835 192 858 219 c 128,-1,16
 881 246 881 246 897 246 c 0,17,18
 907 246 907 246 936 227 c 128,-1,19
 965 208 965 208 996 186.5 c 128,-1,20
 1027 165 1027 165 1053.5 143.5 c 128,-1,21
 1080 122 1080 122 1080 113 c 0,22,23
 1080 101 1080 101 1064.5 73 c 128,-1,24
 1049 45 1049 45 1028 17 c 128,-1,25
 1007 -11 1007 -11 983.5 -35.5 c 128,-1,26
 960 -60 960 -60 936 -64 c 1,27,28
 888 -32 888 -32 843.5 -0.5 c 128,-1,29
 799 31 799 31 763 70 c 0,12,13
158 752 m 0,30,31
 154 760 154 760 170.5 787.5 c 128,-1,32
 187 815 187 815 209 844.5 c 128,-1,33
 231 874 231 874 254 901 c 128,-1,34
 277 928 277 928 293 928 c 0,35,36
 303 928 303 928 332 909 c 128,-1,37
 361 890 361 890 392 868.5 c 128,-1,38
 423 847 423 847 449.5 825.5 c 128,-1,39
 476 804 476 804 476 795 c 0,40,41
 476 782 476 782 460 754.5 c 128,-1,42
 444 727 444 727 423 699 c 128,-1,43
 402 671 402 671 378.5 646.5 c 128,-1,44
 355 622 355 622 332 618 c 1,45,46
 284 650 284 650 239.5 681.5 c 128,-1,47
 195 713 195 713 158 752 c 0,30,31
EndSplineSet
Validated: 1
EndChar

StartChar: uni066B
Encoding: 1643 1643 119
Width: 1026
GlyphClass: 2
Flags: W
LayerCount: 2
Fore
SplineSet
295 -117 m 1,0,1
 285 -111 285 -111 247 -89 c 128,-1,2
 209 -67 209 -67 180 -19 c 0,3,4
 143 41 143 41 180 101 c 0,5,6
 190 118 190 118 210.5 152.5 c 128,-1,7
 231 187 231 187 259 229.5 c 128,-1,8
 287 272 287 272 309.5 305 c 128,-1,9
 332 338 332 338 342 352 c 0,10,11
 374 396 374 396 428 443.5 c 128,-1,12
 482 491 482 491 553 491 c 0,13,14
 596 491 596 491 646.5 462.5 c 128,-1,15
 697 434 697 434 697 383 c 0,16,17
 697 344 697 344 661.5 318.5 c 128,-1,18
 626 293 626 293 587 293 c 0,19,20
 557 293 557 293 532.5 311.5 c 128,-1,21
 508 330 508 330 473 330 c 0,22,23
 439 330 439 330 405.5 312 c 128,-1,24
 372 294 372 294 367 249 c 0,25,26
 363 233 363 233 380 211 c 128,-1,27
 397 189 397 189 423 169 c 128,-1,28
 449 149 449 149 481 139 c 128,-1,29
 513 129 513 129 538 129 c 0,30,31
 608 140 608 140 669 185 c 128,-1,32
 730 230 730 230 788 273 c 1,33,34
 949 372 949 372 826 211 c 0,35,36
 774 140 774 140 709.5 85.5 c 128,-1,37
 645 31 645 31 580.5 -19 c 128,-1,38
 516 -69 516 -69 449.5 -125 c 128,-1,39
 383 -181 383 -181 324 -256 c 0,40,41
 312 -272 312 -272 291 -299.5 c 128,-1,42
 270 -327 270 -327 248 -381 c 0,43,44
 239 -410 239 -410 212 -433.5 c 128,-1,45
 185 -457 185 -457 167 -422 c 1,46,47
 159 -333 159 -333 204.5 -255.5 c 128,-1,48
 250 -178 250 -178 295 -117 c 1,0,1
EndSplineSet
Validated: 33
EndChar

StartChar: uni066C
Encoding: 1644 1644 120
Width: 514
GlyphClass: 2
Flags: W
LayerCount: 2
Fore
SplineSet
107 24 m 1,0,1
 105 140 105 140 150.5 201.5 c 128,-1,2
 196 263 196 263 258.5 272.5 c 128,-1,3
 321 282 321 282 373.5 238 c 128,-1,4
 426 194 426 194 434 110 c 0,5,6
 442 39 442 39 416.5 -48 c 128,-1,7
 391 -135 391 -135 339 -227 c 1,8,9
 327 -261 327 -261 298 -295 c 128,-1,10
 269 -329 269 -329 238.5 -352 c 128,-1,11
 208 -375 208 -375 193 -358 c 128,-1,12
 178 -341 178 -341 205 -285 c 0,13,14
 217 -261 217 -261 242.5 -215.5 c 128,-1,15
 268 -170 268 -170 285 -118 c 128,-1,16
 302 -66 302 -66 302 -16 c 0,17,18
 302 30 302 30 268 58 c 0,19,20
 265 61 265 61 261 57.5 c 128,-1,21
 257 54 257 54 246 23 c 0,22,23
 239 4 239 4 220.5 -8 c 128,-1,24
 202 -20 202 -20 179 -21 c 128,-1,25
 156 -22 156 -22 136.5 -10 c 128,-1,26
 117 2 117 2 107 24 c 1,0,1
EndSplineSet
Validated: 33
EndChar

StartChar: uni0670
Encoding: 1648 1648 121
Width: 0
GlyphClass: 4
Flags: W
AnchorPoint: "Anchor-39" 0 2500 mark 0
AnchorPoint: "Anchor-37" 0 2500 mark 0
LayerCount: 2
Fore
SplineSet
-7 2606 m 1,0,1
 4 2640 4 2640 14 2675.5 c 128,-1,2
 24 2711 24 2711 34 2744 c 0,3,4
 36 2748 36 2748 40 2758.5 c 128,-1,5
 44 2769 44 2769 77 2769 c 1,6,-1
 77 2726 l 2,7,8
 77 2713 77 2713 76 2684.5 c 128,-1,9
 75 2656 75 2656 73 2623.5 c 128,-1,10
 71 2591 71 2591 69.5 2561.5 c 128,-1,11
 68 2532 68 2532 65 2519 c 0,12,13
 64 2508 64 2508 57.5 2485 c 128,-1,14
 51 2462 51 2462 43 2437 c 128,-1,15
 35 2412 35 2412 26.5 2390.5 c 128,-1,16
 18 2369 18 2369 16 2361 c 0,17,18
 8 2345 8 2345 -24 2345 c 1,19,20
 -19 2414 -19 2414 -15 2480 c 128,-1,21
 -11 2546 -11 2546 -7 2606 c 1,0,1
EndSplineSet
Validated: 1
EndChar

StartChar: uni0679
Encoding: 1657 1657 122
Width: 2306
GlyphClass: 2
Flags: W
AnchorPoint: "Anchor-38" 1228 -337 basechar 0
AnchorPoint: "Anchor-37" 1208 1628 basechar 0
LayerCount: 2
Fore
SplineSet
1337 1035 m 0,0,1
 1289 1031 1289 1031 1267.5 1014 c 128,-1,2
 1246 997 1246 997 1225 972.5 c 128,-1,3
 1204 948 1204 948 1189.5 917 c 128,-1,4
 1175 886 1175 886 1172 871 c 1,5,6
 1175 872 1175 872 1215.5 891.5 c 128,-1,7
 1256 911 1256 911 1293 931.5 c 128,-1,8
 1330 952 1330 952 1351.5 972 c 128,-1,9
 1373 992 1373 992 1379 1009 c 1,10,11
 1374 1029 1374 1029 1364 1032 c 128,-1,12
 1354 1035 1354 1035 1337 1035 c 0,0,1
1138 1007 m 0,13,14
 1138 1020 1138 1020 1139 1050 c 128,-1,15
 1140 1080 1140 1080 1145 1109.5 c 128,-1,16
 1150 1139 1150 1139 1151 1164.5 c 128,-1,17
 1152 1190 1152 1190 1152 1207 c 1,18,19
 1176 1247 1176 1247 1196.5 1290.5 c 128,-1,20
 1217 1334 1217 1334 1234 1360 c 1,21,22
 1245 1396 1245 1396 1280 1396 c 1,23,24
 1280 1316 1280 1316 1278.5 1275 c 128,-1,25
 1277 1234 1277 1234 1276 1202.5 c 128,-1,26
 1275 1171 1275 1171 1273.5 1148.5 c 128,-1,27
 1272 1126 1272 1126 1272 1122 c 0,28,29
 1270 1119 1270 1119 1295 1129.5 c 128,-1,30
 1320 1140 1320 1140 1370 1143 c 1,31,32
 1424 1136 1424 1136 1450.5 1106.5 c 128,-1,33
 1477 1077 1477 1077 1474 1057 c 1,34,35
 1454 1004 1454 1004 1429 965 c 0,36,37
 1410 941 1410 941 1387.5 907.5 c 128,-1,38
 1365 874 1365 874 1331.5 847.5 c 128,-1,39
 1298 821 1298 821 1272.5 799 c 128,-1,40
 1247 777 1247 777 1224 771 c 0,41,42
 1213 771 1213 771 1183.5 765 c 128,-1,43
 1154 759 1154 759 1107.5 752 c 128,-1,44
 1061 745 1061 745 1030.5 739.5 c 128,-1,45
 1000 734 1000 734 990 734 c 0,46,47
 953 728 953 728 923.5 735 c 128,-1,48
 894 742 894 742 946 767 c 0,49,50
 994 789 994 789 1024 805 c 128,-1,51
 1054 821 1054 821 1083 840 c 1,52,53
 1106 875 1106 875 1122 924 c 128,-1,54
 1138 973 1138 973 1138 1007 c 0,13,14
1563 698 m 2,55,-1
 1613 698 l 2,56,57
 2212 698 2212 698 2212 583 c 0,58,59
 2212 376 2212 376 1044 235 c 1,60,-1
 700 220 l 1,61,-1
 446 220 l 2,62,63
 435 220 435 220 435 209 c 1,64,65
 495 127 495 127 1131 127 c 2,66,-1
 1144 127 l 1,67,68
 2080 160 2080 160 2080 250 c 1,69,70
 2169 295 2169 295 2169 322 c 1,71,-1
 2202 322 l 1,72,-1
 2214 315 l 1,73,-1
 2243 315 l 1,74,75
 2139 119 2139 119 1885 33 c 1,76,77
 1399 -73 1399 -73 940 -73 c 0,78,79
 316 -73 316 -73 316 87 c 2,80,-1
 316 132 l 1,81,-1
 328 222 l 1,82,-1
 -128 274 l 1,83,-1
 -128 294 l 1,84,-1
 -93 315 l 1,85,-1
 -36 315 l 1,86,-1
 336 300 l 1,87,88
 528 542 528 542 834 614 c 0,89,90
 1205 698 1205 698 1563 698 c 2,55,-1
533 387 m 1,91,-1
 533 369 l 2,92,93
 533 311 533 311 696 311 c 0,94,95
 1249 311 1249 311 1920 460 c 1,96,-1
 2000 501 l 1,97,-1
 2000 519 l 2,98,99
 2000 549 2000 549 1724 562 c 1,100,-1
 1560 562 l 1,101,102
 687 507 687 507 567 407 c 1,103,-1
 533 387 l 1,91,-1
EndSplineSet
Validated: 33
MultipleSubs2: "'medi' Medial Forms in Arabic lookup 3 subtable" glyph465 glyph842
MultipleSubs2: "'init' Initial Forms in Arabic lookup 2 subtable" glyph109 glyph842
MultipleSubs2: "'fina' Terminal Forms in Arabic lookup 1 subtable" glyph56
EndChar

